<?xml version="1.0" encoding="UTF-8"?>
<svg xmlns="http://www.w3.org/2000/svg" xmlns:xlink="http://www.w3.org/1999/xlink" viewBox="0 0 1920 1080">
  <defs>
    <style>
      .cls-1 {
        fill: none;
      }

      .cls-2 {
        clip-path: url(#clippath);
      }

      .cls-3 {
        fill: #f0fcff;
      }

      .cls-4 {
        fill: #fff;
      }

      .cls-5 {
        fill: #c9f1fd;
      }

      .cls-6 {
        fill: url(#Degradado_sin_nombre_5);
      }

      .cls-7 {
        fill: #72c2ea;
        mix-blend-mode: multiply;
        opacity: .1;
      }

      .cls-8 {
        isolation: isolate;
      }
    </style>
    <clipPath id="clippath">
      <rect class="cls-1" width="1920" height="1080"/>
    </clipPath>
    <linearGradient id="Degradado_sin_nombre_5" data-name="Degradado sin nombre 5" x1="960" y1="-132.5" x2="960" y2="1097" gradientUnits="userSpaceOnUse">
      <stop offset="0" stop-color="#45bae6"/>
      <stop offset="1" stop-color="#a3daf3"/>
    </linearGradient>
  </defs>
  <g class="cls-8">
    <g id="Capa_2" data-name="Capa 2">
      <g id="Capa_1-2" data-name="Capa 1">
        <g class="cls-2">
          <g>
            <rect class="cls-6" x="-8.5" y="-132.5" width="1937" height="1229.5"/>
            <path class="cls-7" d="M3714.5,463.2v591.14h-1497v47H-75.61V510.2c40.74-36.56,94.58-58.83,153.63-58.83,76.7,0,144.6,37.57,186.41,95.27,22.31-55.82,76.83-95.27,140.6-95.27,83.62,0,151.4,67.79,151.4,151.4,0,11.65-1.36,22.98-3.85,33.87,25.64-9.86,53.46-15.32,82.58-15.32,70.75,0,134.01,31.95,176.22,82.19,25.14-48.8,75.97-82.19,134.64-82.19,33.27,0,64.01,10.76,89,28.95,3.7-110.47,94.35-198.9,205.72-198.9,77.93,0,145.71,43.31,180.65,107.15,6.94,12.65,12.58,26.11,16.75,40.2,15.88-21.82,35.5-40.73,57.91-55.81,36.64-24.66,80.75-39.05,128.23-39.05,73.39,0,138.73,34.37,180.86,87.89,36.2-79.56,116.36-134.89,209.48-134.89,76.53,0,144.29,37.39,186.13,94.86,25.23-85.18,104.04-147.35,197.4-147.35,111.37,0,202.02,88.43,205.73,198.9,24.98-18.19,55.72-28.95,88.99-28.95,58.67,0,109.51,33.39,134.64,82.19,42.21-50.24,105.48-82.19,176.23-82.19,29.11,0,56.94,5.46,82.58,15.32-2.5-10.89-3.86-22.22-3.86-33.87,0-83.61,67.79-151.4,151.4-151.4,63.77,0,118.3,39.45,140.6,95.27,41.82-57.7,109.71-95.27,186.42-95.27,59.05,0,112.88,22.27,153.62,58.83Z"/>
            <g>
              <path class="cls-4" d="M1992.05,915.91c-14.51-4.29-30.16-4.73-44.75-.71,15.61-88.05-65.69-185.28-157.23-137.01-4.36-40.08-22.2-80.09-54.6-104.09-32.4-24-80.38-28.4-112.87-4.52,1.04-43.76-24.85-85.52-61.01-110.18-36.16-24.66-81.24-33.74-125-32.59-48.23,1.26-96.68,17.55-134.11,48.37-44,36.23-53.68,86.4-53.06,141.99-22.57-5.53-46.47-8.14-68.96-2.28-64.01,16.66-79.3,102.61-65.95,158.2-39.48-9.96-81.47-18.69-120.38-6.68-38.91,12.01-72.13,52.11-62.13,91.58-22.13-10.26-44.82-20.59-69.1-22.94-24.28-2.35-50.86,4.72-65.97,23.87-20.39,25.84-13.47,64.69,4.38,92.35,23.87,36.99,64.11,61.38,106.62,72.8,73.41,19.73,155.89,1.9,214.59-46.4-10.99,9.04,75.7,63.66,84.07,66.85,35.2,13.43,70.96,27.39,109.21,19.87,41.22-8.11,77.73-33.74,103.95-66.56,82.61,72.73,217.99,75.91,303.93,7.14,76.94,69.55,206.3,70.75,284.52,2.65,30.56,13.72,69.43,20.95,95.22-.43,19.76-16.38,24.79-47.9,11.1-69.61-13.68-21.71-44.3-30.77-67.59-20.01,8.45-27.75,.67-59.82-19.57-80.61-9.67-9.94-22-17.11-35.3-21.04Z"/>
              <path class="cls-3" d="M1249.41,717.17c-.62-55.59,9.06-105.76,53.06-141.99,37.43-30.82,85.89-47.1,134.11-48.37,43.76-1.15,88.84,7.93,125,32.59-73.28-14.01-154.87-14.26-215.85,28.72-15.54,10.96-29.45,24.55-39.16,40.9-10.92,18.39-16.21,39.82-16.77,61.2-1.29,49.68,23.26,98.29,60.78,130.87,37.52,32.58,86.9,49.85,136.47,53.25-51.17,9.45-105.8-1.34-149.52-29.55-43.72-28.21-87.55-75.59-88.13-127.62Z"/>
              <path class="cls-3" d="M1622.59,669.58c32.49-23.88,80.47-19.47,112.87,4.52,32.4,24,50.25,64,54.6,104.09,2.92,26.88-24.06,48.59-48.47,60.23-24.41,11.64-52.8,13.05-79.37,8.02,26.45-1.47,48.81-21.99,60.19-45.91,14.54-30.56,13.82-68.6-4.32-97.18-18.13-28.58-62.31-40.37-95.51-33.78Z"/>
              <g>
                <path class="cls-3" d="M1947.29,915.2c14.6-4.02,30.25-3.58,44.75,.71,13.29,3.93,25.62,11.1,35.3,21.04,20.23,20.79,28.02,52.86,19.57,80.61,23.3-10.76,53.91-1.7,67.59,20.01,13.68,21.71,8.65,53.24-11.1,69.61-25.79,21.37-64.66,14.14-95.22,.43-78.22,68.1-207.59,66.9-284.52-2.65-85.94,68.78-221.31,65.6-303.93-7.14-26.22,32.82-62.73,58.45-103.95,66.56-38.25,7.52-74.01-6.44-109.21-19.87-8.37-3.19-95.06-57.81-84.07-66.85-58.7,48.3-141.18,66.13-214.59,46.4-42.52-11.43-82.75-35.81-106.62-72.8-17.85-27.65-24.76-66.51-4.38-92.35,15.11-19.15,41.69-26.22,65.96-23.87,24.28,2.35,46.97,12.68,69.1,22.94-10-39.47,23.22-79.58,62.13-91.58,38.91-12.01,80.9-3.28,120.38,6.68-13.34-55.6,1.94-141.54,65.95-158.2,13.31-3.46,27.1-3.92,40.83-2.6-11.37,46.15-9.13,97.02,15.48,137.48,26,42.74,80.49,69.6,128.12,54.32,45.18,44.84,110.61,68.46,174.01,62.81,63.41-5.64,123.63-40.44,160.18-92.56,34.4,25.64,87.73,25.62,117.88-4.91,31.19-31.59,18-65.58,3.19-99.35-.38-.87-.66-1.7-.95-2.53,78.79-16.68,142.02,69.09,128.1,147.65Z"/>
                <path class="cls-5" d="M1992.05,915.91c-14.51-4.29-30.16-4.73-44.75-.71,13.93-78.56-49.3-164.33-128.1-147.65,29.33,3.2,57.08,19.05,74.75,42.67,17.68,23.62,26.04,53.63,25.16,83.12-.34,11.45-2.08,23.04-6.85,33.45-12.63,27.55-43.25,41.49-71.97,51.18,26.45,7.3,54.14-5.66,76.86-21.04,22.72-15.38,48.13-34.96,74.89-41.01Z"/>
              </g>
              <path class="cls-5" d="M1122.51,1077.67c-58.7,48.3-141.18,66.13-214.59,46.4-42.51-11.43-82.75-35.81-106.62-72.8-17.85-27.65-24.76-66.51-4.38-92.35-2.62,52.12,46.14,98.23,95.67,114.68,49.53,16.44,104.49,6.8,152.57-13.5,23.07-9.74,45.6-22.23,62.18-41,16.58-18.76,26.5-44.7,21.36-69.2,16.91,38.78,7.78,87.84-6.19,127.77Z"/>
              <path class="cls-5" d="M1419.74,1097.82c82.61,72.73,217.99,75.91,303.93,7.14,76.94,69.55,206.3,70.75,284.52,2.65,30.56,13.72,69.43,20.95,95.22-.43,19.76-16.38,24.79-47.9,11.1-69.61-14.96,42.49-77.79,57.49-113.12,29.54,11.91-15.78,18.61-35.42,18.82-55.19-42.03,43.52-106.38,64.23-165.9,53.39-59.52-10.83-112.45-52.89-136.44-108.43-3.17,35.42,.19,71.41,9.88,105.62-82.27,75.51-210.94,90.53-308.01,35.32Z"/>
            </g>
            <g>
              <path class="cls-4" d="M751.14,991.12c10.99-3.25,22.85-3.58,33.91-.54-11.83-66.72,49.78-140.4,119.14-103.82,3.3-30.37,16.83-60.69,41.38-78.87,24.55-18.18,60.91-21.52,85.53-3.43-.79-33.16,18.83-64.8,46.23-83.49,27.4-18.69,61.56-25.56,94.72-24.69,36.54,.96,73.26,13.3,101.62,36.65,33.34,27.45,40.68,65.47,40.21,107.59,17.1-4.19,35.21-6.17,52.25-1.73,48.51,12.63,60.09,77.75,49.98,119.88,29.92-7.55,61.73-14.16,91.22-5.06,29.48,9.1,54.66,39.49,47.08,69.4,16.77-7.77,33.96-15.6,52.36-17.38,18.4-1.78,38.54,3.57,49.99,18.09,15.45,19.58,10.21,49.02-3.32,69.98-18.09,28.03-48.58,46.51-80.79,55.17-55.63,14.95-118.12,1.44-162.6-35.16,8.33,6.85-57.36,48.24-63.7,50.66-26.67,10.18-53.77,20.76-82.75,15.06-31.23-6.14-58.9-25.57-78.77-50.44-62.6,55.12-165.18,57.52-230.3,5.41-58.3,52.7-156.33,53.61-215.6,2.01-23.15,10.39-52.61,15.87-72.15-.32-14.97-12.41-18.78-36.3-8.41-52.75,10.37-16.45,33.57-23.32,51.22-15.16-6.4-21.03-.5-45.33,14.83-61.09,7.33-7.53,16.67-12.96,26.75-15.94Z"/>
              <path class="cls-3" d="M1313.88,840.52c.47-42.12-6.87-80.14-40.21-107.59-28.36-23.35-65.08-35.69-101.62-36.65-33.16-.87-67.32,6.01-94.72,24.69,55.53-10.62,117.35-10.81,163.56,21.76,11.78,8.3,22.32,18.6,29.67,31,8.27,13.93,12.29,30.17,12.71,46.37,.97,37.64-17.62,74.48-46.06,99.17-28.43,24.69-65.85,37.78-103.41,40.35,38.77,7.16,80.17-1.02,113.3-22.39,33.13-21.37,66.34-57.28,66.78-96.71Z"/>
              <path class="cls-3" d="M1031.09,804.46c-24.62-18.09-60.98-14.76-85.53,3.43-24.55,18.18-38.08,48.5-41.38,78.87-2.21,20.37,18.23,36.82,36.72,45.64,18.5,8.82,40.01,9.89,60.15,6.08-20.04-1.11-36.98-16.66-45.61-34.79-11.02-23.16-10.47-51.98,3.27-73.64,13.74-21.65,47.22-30.59,72.37-25.59Z"/>
              <g>
                <path class="cls-3" d="M785.05,990.58c-11.06-3.04-22.92-2.71-33.91,.54-10.07,2.98-19.42,8.41-26.75,15.94-15.33,15.75-21.23,40.06-14.83,61.09-17.65-8.15-40.85-1.29-51.22,15.16-10.37,16.45-6.56,40.34,8.41,52.75,19.54,16.2,49,10.72,72.15,.32,59.27,51.61,157.3,50.69,215.6-2.01,65.12,52.12,167.7,49.71,230.3-5.41,19.87,24.87,47.54,44.29,78.77,50.44,28.98,5.7,56.08-4.88,82.75-15.06,6.34-2.42,72.03-43.8,63.7-50.66,44.48,36.6,106.98,50.11,162.6,35.16,32.22-8.66,62.7-27.14,80.79-55.17,13.52-20.96,18.76-50.4,3.32-69.98-11.45-14.51-31.59-19.86-49.99-18.09-18.4,1.78-35.59,9.61-52.36,17.38,7.58-29.91-17.6-60.3-47.08-69.4-29.48-9.1-61.3-2.49-91.22,5.06,10.11-42.13-1.47-107.25-49.98-119.88-10.08-2.62-20.54-2.97-30.94-1.97,8.61,34.97,6.92,73.52-11.73,104.18-19.7,32.39-60.99,52.74-97.09,41.16-34.24,33.98-83.81,51.87-131.86,47.6-48.05-4.28-93.68-30.65-121.38-70.14-26.07,19.43-66.48,19.41-89.32-3.72-23.64-23.94-13.64-49.7-2.42-75.28,.29-.66,.5-1.29,.72-1.92-59.71-12.64-107.62,52.36-97.07,111.88Z"/>
                <path class="cls-5" d="M751.14,991.12c10.99-3.25,22.85-3.58,33.91-.54-10.55-59.53,37.36-124.52,97.07-111.88-22.22,2.42-43.25,14.44-56.65,32.33-13.39,17.9-19.73,40.64-19.06,62.98,.26,8.68,1.57,17.46,5.19,25.35,9.57,20.88,32.77,31.44,54.53,38.78-20.04,5.53-41.03-4.29-58.24-15.94-17.22-11.65-36.47-26.49-56.75-31.08Z"/>
              </g>
              <path class="cls-5" d="M1184.81,1128.97c-62.6,55.12-165.18,57.52-230.3,5.41-58.3,52.7-156.33,53.61-215.6,2.01-23.15,10.39-52.61,15.87-72.15-.32-14.97-12.41-18.78-36.3-8.41-52.75,11.34,32.19,58.95,43.56,85.71,22.38-9.02-11.96-14.1-26.84-14.26-41.82,31.85,32.98,80.61,48.67,125.71,40.46,45.1-8.21,85.21-40.08,103.39-82.16,2.41,26.84-.15,54.11-7.49,80.03,62.34,57.22,159.84,68.6,233.39,26.76Z"/>
            </g>
            <g>
              <path class="cls-4" d="M256.14,991.12c10.99-3.25,22.85-3.58,33.91-.54-11.83-66.72,49.78-140.4,119.14-103.82,3.3-30.37,16.83-60.69,41.38-78.87,24.55-18.18,60.91-21.52,85.53-3.43-.79-33.16,18.83-64.8,46.23-83.49,27.4-18.69,61.56-25.56,94.72-24.69,36.54,.96,73.26,13.3,101.62,36.65,33.34,27.45,40.68,65.47,40.21,107.59,17.1-4.19,35.21-6.17,52.25-1.73,48.51,12.63,60.09,77.75,49.98,119.88,29.92-7.55,61.73-14.16,91.22-5.06,29.48,9.1,54.66,39.49,47.08,69.4,16.77-7.77,33.96-15.6,52.36-17.38,18.4-1.78,38.54,3.57,49.99,18.09,15.45,19.58,10.21,49.02-3.32,69.98-18.09,28.03-48.58,46.51-80.79,55.17-55.63,14.95-118.12,1.44-162.6-35.16,8.33,6.85-57.36,48.24-63.7,50.66-26.67,10.18-53.77,20.76-82.75,15.06-31.23-6.14-58.9-25.57-78.77-50.44-62.6,55.12-165.18,57.52-230.3,5.41-58.3,52.7-156.33,53.61-215.6,2.01-23.15,10.39-52.61,15.87-72.15-.32-14.97-12.41-18.78-36.3-8.41-52.75,10.37-16.45,33.57-23.32,51.22-15.16-6.4-21.03-.5-45.33,14.83-61.09,7.33-7.53,16.67-12.96,26.75-15.94Z"/>
              <path class="cls-3" d="M818.88,840.52c.47-42.12-6.87-80.14-40.21-107.59-28.36-23.35-65.08-35.69-101.62-36.65-33.16-.87-67.32,6.01-94.72,24.69,55.53-10.62,117.35-10.81,163.56,21.76,11.78,8.3,22.32,18.6,29.67,31,8.27,13.93,12.29,30.17,12.71,46.37,.97,37.64-17.62,74.48-46.06,99.17-28.43,24.69-65.85,37.78-103.41,40.35,38.77,7.16,80.17-1.02,113.3-22.39,33.13-21.37,66.34-57.28,66.78-96.71Z"/>
              <path class="cls-3" d="M536.09,804.46c-24.62-18.09-60.98-14.76-85.53,3.43-24.55,18.18-38.08,48.5-41.38,78.87-2.21,20.37,18.23,36.82,36.72,45.64,18.5,8.82,40.01,9.89,60.15,6.08-20.04-1.11-36.98-16.66-45.61-34.79-11.02-23.16-10.47-51.98,3.27-73.64,13.74-21.65,47.22-30.59,72.37-25.59Z"/>
              <g>
                <path class="cls-3" d="M290.05,990.58c-11.06-3.04-22.92-2.71-33.91,.54-10.07,2.98-19.42,8.41-26.75,15.94-15.33,15.75-21.23,40.06-14.83,61.09-17.65-8.15-40.85-1.29-51.22,15.16-10.37,16.45-6.56,40.34,8.41,52.75,19.54,16.2,49,10.72,72.15,.32,59.27,51.61,157.3,50.69,215.6-2.01,65.12,52.12,167.7,49.71,230.3-5.41,19.87,24.87,47.54,44.29,78.77,50.44,28.98,5.7,56.08-4.88,82.75-15.06,6.34-2.42,72.03-43.8,63.7-50.66,44.48,36.6,106.98,50.11,162.6,35.16,32.22-8.66,62.7-27.14,80.79-55.17,13.52-20.96,18.76-50.4,3.32-69.98-11.45-14.51-31.59-19.86-49.99-18.09-18.4,1.78-35.59,9.61-52.36,17.38,7.58-29.91-17.6-60.3-47.08-69.4-29.48-9.1-61.3-2.49-91.22,5.06,10.11-42.13-1.47-107.25-49.98-119.88-10.08-2.62-20.54-2.97-30.94-1.97,8.61,34.97,6.92,73.52-11.73,104.18-19.7,32.39-60.99,52.74-97.09,41.16-34.24,33.98-83.81,51.87-131.86,47.6-48.05-4.28-93.68-30.65-121.38-70.14-26.07,19.43-66.48,19.41-89.32-3.72-23.64-23.94-13.64-49.7-2.42-75.28,.29-.66,.5-1.29,.72-1.92-59.71-12.64-107.62,52.36-97.07,111.88Z"/>
                <path class="cls-5" d="M256.14,991.12c10.99-3.25,22.85-3.58,33.91-.54-10.55-59.53,37.36-124.52,97.07-111.88-22.22,2.42-43.25,14.44-56.65,32.33-13.39,17.9-19.73,40.64-19.06,62.98,.26,8.68,1.57,17.46,5.19,25.35,9.57,20.88,32.77,31.44,54.53,38.78-20.04,5.53-41.03-4.29-58.24-15.94-17.22-11.65-36.47-26.49-56.75-31.08Z"/>
              </g>
              <path class="cls-5" d="M689.81,1128.97c-62.6,55.12-165.18,57.52-230.3,5.41-58.3,52.7-156.33,53.61-215.6,2.01-23.15,10.39-52.61,15.87-72.15-.32-14.97-12.41-18.78-36.3-8.41-52.75,11.34,32.19,58.95,43.56,85.71,22.38-9.02-11.96-14.1-26.84-14.26-41.82,31.85,32.98,80.61,48.67,125.71,40.46,45.1-8.21,85.21-40.08,103.39-82.16,2.41,26.84-.15,54.11-7.49,80.03,62.34,57.22,159.84,68.6,233.39,26.76Z"/>
            </g>
            <g>
              <path class="cls-4" d="M-381.86,848.12c10.99-3.25,22.85-3.58,33.91-.54-11.83-66.72,49.78-140.4,119.14-103.82,3.3-30.37,16.83-60.69,41.38-78.87,24.55-18.18,60.91-21.52,85.53-3.43-.79-33.16,18.83-64.8,46.23-83.49,27.4-18.69,61.56-25.56,94.72-24.69,36.54,.96,73.26,13.3,101.62,36.65,33.34,27.45,40.68,65.47,40.21,107.59,17.1-4.19,35.21-6.17,52.25-1.73,48.51,12.63,60.09,77.75,49.98,119.88,29.92-7.55,61.73-14.16,91.22-5.06,29.48,9.1,54.66,39.49,47.08,69.4,16.77-7.77,33.96-15.6,52.36-17.38,18.4-1.78,38.54,3.57,49.99,18.09,15.45,19.58,10.21,49.02-3.32,69.98-18.09,28.03-48.58,46.51-80.79,55.17-55.63,14.95-118.12,1.44-162.6-35.16,8.33,6.85-57.36,48.24-63.7,50.66-26.67,10.18-53.77,20.76-82.75,15.06-31.23-6.14-58.9-25.57-78.77-50.44-62.6,55.12-165.18,57.52-230.3,5.41-58.3,52.7-156.33,53.61-215.6,2.01-23.15,10.39-52.61,15.87-72.15-.32-14.97-12.41-18.78-36.3-8.41-52.75,10.37-16.45,33.57-23.32,51.22-15.16-6.4-21.03-.5-45.33,14.83-61.09,7.33-7.53,16.67-12.96,26.75-15.94Z"/>
              <path class="cls-3" d="M180.88,697.52c.47-42.12-6.87-80.14-40.21-107.59-28.36-23.35-65.08-35.69-101.62-36.65-33.16-.87-67.32,6.01-94.72,24.69,55.53-10.62,117.35-10.81,163.56,21.76,11.78,8.3,22.32,18.6,29.67,31,8.27,13.93,12.29,30.17,12.71,46.37,.97,37.64-17.62,74.48-46.06,99.17-28.43,24.69-65.85,37.78-103.41,40.35,38.77,7.16,80.17-1.02,113.3-22.39,33.13-21.37,66.34-57.28,66.78-96.71Z"/>
              <path class="cls-3" d="M-347.95,847.58c-11.06-3.04-22.92-2.71-33.91,.54-10.07,2.98-19.42,8.41-26.75,15.94-15.33,15.75-21.23,40.06-14.83,61.09-17.65-8.15-40.85-1.29-51.22,15.16-10.37,16.45-6.56,40.34,8.41,52.75,19.54,16.2,49,10.72,72.15,.32,59.27,51.61,157.3,50.69,215.6-2.01,65.12,52.12,167.7,49.71,230.3-5.41,19.87,24.87,47.54,44.29,78.77,50.44,28.98,5.7,56.08-4.88,82.75-15.06,6.34-2.42,72.03-43.8,63.7-50.66,44.48,36.6,106.98,50.11,162.6,35.16,32.22-8.66,62.7-27.14,80.79-55.17,13.52-20.96,18.76-50.4,3.32-69.98-11.45-14.51-31.59-19.86-49.99-18.09-18.4,1.78-35.59,9.61-52.36,17.38,7.58-29.91-17.6-60.3-47.08-69.4-29.48-9.1-61.3-2.49-91.22,5.06,10.11-42.13-1.47-107.25-49.98-119.88-10.08-2.62-20.54-2.97-30.94-1.97,8.61,34.97,6.92,73.52-11.73,104.18-19.7,32.39-60.99,52.74-97.09,41.16-34.24,33.98-83.81,51.87-131.86,47.6-48.05-4.28-93.68-30.65-121.38-70.14-26.07,19.43-66.48,19.41-89.32-3.72-23.64-23.94-13.64-49.7-2.42-75.28,.29-.66,.5-1.29,.72-1.92-59.71-12.64-107.62,52.36-97.07,111.88Z"/>
              <path class="cls-5" d="M277.04,970.69c44.48,36.6,106.98,50.11,162.6,35.16,32.22-8.66,62.7-27.14,80.79-55.17,13.52-20.96,18.76-50.4,3.32-69.98,1.99,39.49-34.96,74.44-72.49,86.9-37.53,12.46-79.18,5.15-115.61-10.23-17.48-7.38-34.55-16.85-47.12-31.06-12.56-14.22-20.08-33.87-16.19-52.44-12.81,29.39-5.9,66.56,4.69,96.82Z"/>
              <path class="cls-5" d="M51.81,985.97c-62.6,55.12-165.18,57.52-230.3,5.41-58.3,52.7-156.33,53.61-215.6,2.01-23.15,10.39-52.61,15.87-72.15-.32-14.97-12.41-18.78-36.3-8.41-52.75,11.34,32.19,58.95,43.56,85.71,22.38-9.02-11.96-14.1-26.84-14.26-41.82,31.85,32.98,80.61,48.67,125.71,40.46,45.1-8.21,85.21-40.08,103.39-82.16,2.41,26.84-.15,54.11-7.49,80.03,62.34,57.22,159.84,68.6,233.39,26.76Z"/>
            </g>
            <g>
              <path class="cls-4" d="M2484.05,1033.91c-14.51-4.29-30.16-4.73-44.75-.71,15.61-88.05-65.69-185.28-157.23-137.01-4.36-40.08-22.2-80.09-54.6-104.09-32.4-24-80.38-28.4-112.87-4.52,1.04-43.76-24.85-85.52-61.01-110.18-36.16-24.66-81.24-33.74-125-32.59-48.23,1.26-96.68,17.55-134.11,48.37-44,36.23-53.68,86.4-53.06,141.99-22.57-5.53-46.47-8.14-68.96-2.28-64.01,16.66-79.3,102.61-65.95,158.2-39.48-9.96-81.47-18.69-120.38-6.68-38.91,12.01-72.13,52.11-62.13,91.58-22.13-10.26-44.82-20.59-69.1-22.94-24.28-2.35-50.86,4.72-65.97,23.87-20.39,25.84-13.47,64.69,4.38,92.35,23.87,36.99,64.11,61.38,106.62,72.8,73.41,19.73,155.89,1.9,214.59-46.4-10.99,9.04,75.7,63.66,84.07,66.85,35.2,13.43,70.96,27.39,109.21,19.87,41.22-8.11,77.73-33.74,103.95-66.56,82.61,72.73,217.99,75.91,303.93,7.14,76.94,69.55,206.3,70.75,284.52,2.65,30.56,13.72,69.43,20.95,95.22-.43,19.76-16.38,24.79-47.9,11.1-69.61-13.68-21.71-44.3-30.77-67.59-20.01,8.45-27.75,.67-59.82-19.57-80.61-9.67-9.94-22-17.11-35.3-21.04Z"/>
              <path class="cls-3" d="M1741.41,835.17c-.62-55.59,9.06-105.76,53.06-141.99,37.43-30.82,85.89-47.1,134.11-48.37,43.76-1.15,88.84,7.93,125,32.59-73.28-14.01-154.87-14.26-215.85,28.72-15.54,10.96-29.45,24.55-39.16,40.9-10.92,18.39-16.21,39.82-16.77,61.2-1.29,49.68,23.26,98.29,60.78,130.87,37.52,32.58,86.9,49.85,136.47,53.25-51.17,9.45-105.8-1.34-149.52-29.55-43.72-28.21-87.55-75.59-88.13-127.62Z"/>
              <path class="cls-3" d="M2439.29,1033.2c14.6-4.02,30.25-3.58,44.75,.71,13.29,3.93,25.62,11.1,35.3,21.04,20.23,20.79,28.02,52.86,19.57,80.61,23.3-10.76,53.91-1.7,67.59,20.01,13.68,21.71,8.65,53.24-11.1,69.61-25.79,21.37-64.66,14.14-95.22,.43-78.22,68.1-207.59,66.9-284.52-2.65-85.94,68.78-221.31,65.6-303.93-7.14-26.22,32.82-62.73,58.45-103.95,66.56-38.25,7.52-74.01-6.44-109.21-19.87-8.37-3.19-95.06-57.81-84.07-66.85-58.7,48.3-141.18,66.13-214.59,46.4-42.52-11.43-82.75-35.81-106.62-72.8-17.85-27.65-24.76-66.51-4.38-92.35,15.11-19.15,41.69-26.22,65.96-23.87,24.28,2.35,46.97,12.68,69.1,22.94-10-39.47,23.22-79.58,62.13-91.58,38.91-12.01,80.9-3.28,120.38,6.68-13.34-55.6,1.94-141.54,65.95-158.2,13.31-3.46,27.1-3.92,40.83-2.6-11.37,46.15-9.13,97.02,15.48,137.48,26,42.74,80.49,69.6,128.12,54.32,45.18,44.84,110.61,68.46,174.01,62.81,63.41-5.64,123.63-40.44,160.18-92.56,34.4,25.64,87.73,25.62,117.88-4.91,31.19-31.59,18-65.58,3.19-99.35-.38-.87-.66-1.7-.95-2.53,78.79-16.68,142.02,69.09,128.1,147.65Z"/>
              <path class="cls-5" d="M1614.51,1195.67c-58.7,48.3-141.18,66.13-214.59,46.4-42.51-11.43-82.75-35.81-106.62-72.8-17.85-27.65-24.76-66.51-4.38-92.35-2.62,52.12,46.14,98.23,95.67,114.68,49.53,16.44,104.49,6.8,152.57-13.5,23.07-9.74,45.6-22.23,62.18-41,16.58-18.76,26.5-44.7,21.36-69.2,16.91,38.78,7.78,87.84-6.19,127.77Z"/>
              <path class="cls-5" d="M1911.74,1215.82c82.61,72.73,217.99,75.91,303.93,7.14,76.94,69.55,206.3,70.75,284.52,2.65,30.56,13.72,69.43,20.95,95.22-.43,19.76-16.38,24.79-47.9,11.1-69.61-14.96,42.49-77.79,57.49-113.12,29.54,11.91-15.78,18.61-35.42,18.82-55.19-42.03,43.52-106.38,64.23-165.9,53.39-59.52-10.83-112.45-52.89-136.44-108.43-3.17,35.42,.19,71.41,9.88,105.62-82.27,75.51-210.94,90.53-308.01,35.32Z"/>
            </g>
            <g>
              <path class="cls-4" d="M-172.23,941.91c14.29-4.23,29.71-4.66,44.09-.7-15.38-86.74,64.72-182.53,154.89-134.97,4.29-39.49,21.87-78.9,53.79-102.54,31.92-23.64,79.19-27.98,111.19-4.46-1.02-43.11,24.48-84.24,60.1-108.54,35.62-24.3,80.03-33.23,123.14-32.1,47.51,1.25,95.24,17.29,132.12,47.65,43.35,35.69,52.88,85.12,52.27,139.88,22.24-5.45,45.78-8.02,67.93-2.25,63.06,16.42,78.12,101.08,64.97,155.85,38.89-9.81,80.26-18.41,118.59-6.58,38.33,11.83,71.06,51.34,61.2,90.22,21.8-10.11,44.15-20.28,68.07-22.6,23.92-2.31,50.1,4.65,64.98,23.51,20.08,25.46,13.27,63.73-4.31,90.97-23.52,36.44-63.15,60.46-105.03,71.72-72.32,19.44-153.57,1.87-211.39-45.71,10.83,8.91-74.58,62.71-82.82,65.85-34.67,13.23-69.9,26.99-107.59,19.57-40.6-7.99-76.58-33.24-102.4-65.57-81.39,71.65-214.75,74.78-299.41,7.03-75.79,68.51-203.24,69.7-280.29,2.61-30.1,13.51-68.4,20.64-93.8-.42-19.46-16.13-24.42-47.19-10.94-68.58,13.48-21.39,43.64-30.31,66.59-19.71-8.33-27.34-.66-58.93,19.28-79.41,9.53-9.79,21.68-16.85,34.77-20.72Z"/>
              <path class="cls-3" d="M559.37,746.12c.61-54.76-8.93-104.19-52.27-139.88-36.87-30.36-84.61-46.4-132.12-47.65-43.11-1.13-87.52,7.81-123.14,32.1,72.19-13.8,152.57-14.05,212.64,28.29,15.31,10.79,29.01,24.19,38.58,40.3,10.75,18.11,15.97,39.23,16.52,60.29,1.27,48.94-22.91,96.83-59.87,128.92-36.96,32.1-85.6,49.11-134.44,52.46,50.41,9.31,104.22-1.32,147.3-29.11,43.07-27.79,86.25-74.47,86.82-125.72Z"/>
              <path class="cls-3" d="M191.73,699.24c-32-23.52-79.27-19.18-111.19,4.46-31.92,23.64-49.5,63.05-53.79,102.54-2.88,26.48,23.7,47.87,47.74,59.34,24.05,11.47,52.02,12.85,78.19,7.9-26.06-1.45-48.08-21.66-59.3-45.22-14.33-30.11-13.61-67.58,4.25-95.73,17.87-28.15,61.39-39.77,94.09-33.27Z"/>
              <path class="cls-4" d="M-128.14,941.21c-14.38-3.96-29.8-3.53-44.09,.7-13.1,3.87-25.24,10.93-34.77,20.72-19.93,20.48-27.6,52.08-19.28,79.41-22.95-10.6-53.11-1.67-66.59,19.71-13.48,21.39-8.53,52.45,10.94,68.58,25.41,21.06,63.7,13.93,93.8,.42,77.05,67.09,204.5,65.9,280.29-2.61,84.66,67.75,218.02,64.62,299.41-7.03,25.83,32.33,61.8,57.58,102.4,65.57,37.68,7.41,72.91-6.34,107.59-19.57,8.24-3.14,93.64-56.95,82.82-65.85,57.83,47.58,139.08,65.14,211.39,45.71,41.88-11.26,81.52-35.28,105.03-71.72,17.58-27.24,24.39-65.52,4.31-90.97-14.88-18.87-41.07-25.83-64.98-23.51-23.92,2.31-46.27,12.49-68.07,22.6,9.85-38.88-22.87-78.39-61.2-90.22-38.33-11.83-79.69-3.23-118.59,6.58,13.14-54.77-1.91-139.44-64.97-155.85-13.11-3.41-26.7-3.86-40.22-2.56,11.2,45.47,8.99,95.58-15.25,135.44-25.61,42.1-79.29,68.57-126.22,53.52-44.51,44.17-108.96,67.44-171.42,61.88-62.46-5.56-121.79-39.84-157.8-91.18-33.89,25.26-86.43,25.24-116.12-4.84-30.73-31.12-17.73-64.61-3.14-97.87,.38-.86,.65-1.67,.94-2.49-77.62-16.43-139.91,68.07-126.19,145.46Z"/>
              <path class="cls-3" d="M684.38,1101.26c57.83,47.58,139.08,65.15,211.39,45.71,41.88-11.26,81.52-35.28,105.03-71.72,17.58-27.24,24.39-65.52,4.31-90.97,2.58,51.34-45.45,96.77-94.24,112.97-48.79,16.2-102.93,6.69-150.3-13.3-22.72-9.59-44.92-21.9-61.25-40.39-16.33-18.48-26.1-44.03-21.04-68.17-16.66,38.2-7.67,86.53,6.1,125.87Z"/>
              <path class="cls-3" d="M391.57,1121.12c-81.39,71.65-214.75,74.78-299.41,7.03-75.79,68.51-203.24,69.7-280.29,2.61-30.1,13.51-68.4,20.64-93.8-.42-19.46-16.13-24.42-47.19-10.94-68.58,14.74,41.85,76.64,56.63,111.43,29.1-11.73-15.54-18.33-34.9-18.54-54.37,41.4,42.87,104.8,63.27,163.43,52.6,58.64-10.67,110.77-52.1,134.41-106.82,3.13,34.89-.19,70.35-9.73,104.05,81.04,74.39,207.8,89.18,303.42,34.79Z"/>
            </g>
          </g>
        </g>
      </g>
    </g>
  </g>
</svg>