<?xml version="1.0" encoding="UTF-8"?>
<svg id="Capa_2" data-name="Capa 2" xmlns="http://www.w3.org/2000/svg" viewBox="0 0 419.47 158.33">
  <defs>
    <style>
      .cls-1 {
        fill: #070707;
      }
    </style>
  </defs>
  <g id="Capa_1-2" data-name="Capa 1">
    <g>
      <rect class="cls-1" width="14.86" height="158.33"/>
      <rect class="cls-1" x="70.44" width="14.86" height="158.33"/>
      <rect class="cls-1" x="19.47" width="6.15" height="158.33"/>
      <rect class="cls-1" x="29.71" width="4.1" height="158.33"/>
      <rect class="cls-1" x="51.49" width="6.15" height="158.33"/>
      <rect class="cls-1" x="61.73" width="4.1" height="158.33"/>
      <rect class="cls-1" x="37.66" width="10.5" height="158.33"/>
      <rect class="cls-1" x="102.72" width="6.15" height="158.33"/>
      <rect class="cls-1" x="112.97" width="4.1" height="158.33"/>
      <rect class="cls-1" x="88.89" width="10.5" height="158.33"/>
      <rect class="cls-1" x="280.88" width="14.86" height="158.33"/>
      <rect class="cls-1" x="351.32" width="14.86" height="158.33"/>
      <rect class="cls-1" x="300.35" width="6.15" height="158.33"/>
      <rect class="cls-1" x="310.59" width="4.1" height="158.33"/>
      <rect class="cls-1" x="332.37" width="6.15" height="158.33"/>
      <rect class="cls-1" x="342.61" width="4.1" height="158.33"/>
      <rect class="cls-1" x="318.53" width="10.5" height="158.33"/>
      <rect class="cls-1" x="369.77" width="10.5" height="158.33"/>
      <rect class="cls-1" x="130.74" width="7.62" height="158.33" transform="translate(269.11 158.33) rotate(180)"/>
      <rect class="cls-1" x="120.58" width="5.08" height="158.33" transform="translate(246.25 158.33) rotate(180)"/>
      <rect class="cls-1" x="142.49" width="13.02" height="158.33" transform="translate(297.99 158.33) rotate(180)"/>
      <rect class="cls-1" x="164.76" width="5.21" height="158.33" transform="translate(334.74 158.33) rotate(180)"/>
      <rect class="cls-1" x="157.81" width="3.47" height="158.33" transform="translate(319.1 158.33) rotate(180)"/>
      <rect class="cls-1" x="172.8" width="8.9" height="158.33" transform="translate(354.5 158.33) rotate(180)"/>
      <rect class="cls-1" x="199.04" width="6.15" height="158.33"/>
      <rect class="cls-1" x="209.28" width="4.1" height="158.33"/>
      <rect class="cls-1" x="185.2" width="10.5" height="158.33"/>
      <rect class="cls-1" x="227.06" width="7.62" height="158.33" transform="translate(461.74 158.33) rotate(180)"/>
      <rect class="cls-1" x="216.9" width="5.08" height="158.33" transform="translate(438.88 158.33) rotate(180)"/>
      <rect class="cls-1" x="383.82" width="6.15" height="158.33"/>
      <rect class="cls-1" x="394.07" width="4.1" height="158.33"/>
      <rect class="cls-1" x="411.85" width="7.62" height="158.33" transform="translate(831.31 158.33) rotate(180)"/>
      <rect class="cls-1" x="401.69" width="5.08" height="158.33" transform="translate(808.46 158.33) rotate(180)"/>
      <rect class="cls-1" x="238.81" width="13.02" height="158.33" transform="translate(490.63 158.33) rotate(180)"/>
      <rect class="cls-1" x="261.08" width="5.21" height="158.33" transform="translate(527.37 158.33) rotate(180)"/>
      <rect class="cls-1" x="254.13" width="3.47" height="158.33" transform="translate(511.74 158.33) rotate(180)"/>
      <rect class="cls-1" x="269.12" width="8.9" height="158.33" transform="translate(547.14 158.33) rotate(180)"/>
    </g>
  </g>
</svg>