<?xml version="1.0" encoding="UTF-8"?>
<svg id="Capa_2" data-name="Capa 2" xmlns="http://www.w3.org/2000/svg" viewBox="0 0 426.95 19">
  <defs>
    <style>
      .cls-1 {
        fill: #fff;
      }
    </style>
  </defs>
  <g id="Capa_1-2" data-name="Capa 1">
    <path class="cls-1" d="M0,0V19H7.78c0-6.57,5.33-11.9,11.9-11.9s11.9,5.33,11.9,11.9h11.4c0-6.57,5.33-11.9,11.9-11.9s11.9,5.33,11.9,11.9h11.41c0-6.57,5.32-11.9,11.9-11.9s11.89,5.33,11.89,11.9h11.41c0-6.57,5.33-11.9,11.9-11.9s11.9,5.33,11.9,11.9h11.4c0-6.57,5.33-11.9,11.9-11.9s11.9,5.33,11.9,11.9h11.41c0-6.57,5.32-11.9,11.9-11.9s11.89,5.33,11.89,11.9h11.77c0-6.57,5.33-11.9,11.9-11.9s11.9,5.33,11.9,11.9h11.4c0-6.57,5.33-11.9,11.9-11.9s11.9,5.33,11.9,11.9h11.41c0-6.57,5.32-11.9,11.9-11.9s11.89,5.33,11.89,11.9h11.41c0-6.57,5.33-11.9,11.9-11.9s11.9,5.33,11.9,11.9h11.4c0-6.57,5.33-11.9,11.9-11.9s11.9,5.33,11.9,11.9h11.41c0-6.57,5.32-11.9,11.9-11.9s11.89,5.33,11.89,11.9h7.78V0H0Z"/>
  </g>
</svg>