<svg xmlns="http://www.w3.org/2000/svg" viewBox="0 0 645.21 457.29"><defs><style>.cls-1{fill:#3a3a3a;}.cls-2,.cls-9{fill:#1e1e1e;}.cls-3{fill:#ff9;}.cls-4{fill:#f9f9f9;}.cls-5{fill:#ddd;opacity:0.5;}.cls-6{fill:#f9c;}.cls-7{fill:#ff5ab5;}.cls-8{fill:#fff;}.cls-9{stroke:#1e1e1e;stroke-miterlimit:10;stroke-width:0.75px;}</style></defs><g id="Capa_2" data-name="Capa 2"><g id="Capa_1-2" data-name="Capa 1"><polygon class="cls-1" points="29.23 317.07 6.44 306.77 27.41 293.14 37.71 270.35 51.34 291.32 74.13 301.62 53.16 315.25 42.86 338.04 29.23 317.07"/><polygon class="cls-1" points="573.84 145.7 559.13 132 578.6 127.01 592.29 112.3 597.29 131.77 611.99 145.47 592.53 150.46 578.83 165.16 573.84 145.7"/><polygon class="cls-1" points="607.84 187.34 596.75 174.81 613.28 172.24 625.82 161.15 628.39 177.68 639.48 190.21 622.95 192.79 610.41 203.88 607.84 187.34"/><polygon class="cls-2" points="27.12 319.52 0 307.26 24.96 291.04 37.22 263.91 53.44 288.87 80.57 301.13 55.61 317.36 43.35 344.48 27.12 319.52"/><polygon class="cls-2" points="571.22 147.25 553.23 130.5 577.04 124.39 593.8 106.4 599.91 130.22 617.89 146.97 594.08 153.08 577.33 171.07 571.22 147.25"/><polygon class="cls-2" points="605.08 188.64 591.02 172.75 611.99 169.48 627.88 155.41 631.15 176.39 645.21 192.28 624.24 195.55 608.35 209.61 605.08 188.64"/><polygon class="cls-3" points="49.24 293.77 67.69 302.11 50.71 313.15 42.37 331.61 31.33 314.62 12.87 306.28 29.86 295.24 38.2 276.79 49.24 293.77"/><polygon class="cls-3" points="594.67 133.32 606.09 143.96 590.97 147.84 580.33 159.26 576.46 144.14 565.03 133.5 580.15 129.63 590.79 118.21 594.67 133.32"/><polygon class="cls-3" points="625.64 178.98 633.75 188.15 621.65 190.03 612.48 198.15 610.6 186.05 602.48 176.88 614.58 174.99 623.75 166.88 625.64 178.98"/><path class="cls-2" d="M329.1,456a116.85,116.85,0,0,1-79.19-48.72c-.88-1.24-1.75-2.53-2.6-3.85a107.08,107.08,0,0,1-146.07-99.63,96.67,96.67,0,0,1,9.39-180,107.8,107.8,0,0,1,117-80.26A122.67,122.67,0,0,1,428.52,63a91.53,91.53,0,0,1,112.22,92.29l1.36.78a128.35,128.35,0,0,1,40,185.87,129.53,129.53,0,0,1-42.06,37.38c-.77,1.74-1.56,3.38-2.34,4.88a96.39,96.39,0,0,1-99.58,51.08,96.94,96.94,0,0,1-17.61-4.31c-2,1.63-4,3.18-6.09,4.63a117.85,117.85,0,0,1-56.91,21.21l-.22,0A118.43,118.43,0,0,1,329.1,456Zm-88-90.11a6.72,6.72,0,0,1,5.41,4.62,104.84,104.84,0,0,0,9.31,21.17c1.58,2.74,3.28,5.39,5,7.88a103.61,103.61,0,0,0,70.21,43.2,105.05,105.05,0,0,0,24.85.69l.19,0a104.36,104.36,0,0,0,50.6-18.82c2.81-2,5.54-4.14,8.12-6.38a104.43,104.43,0,0,0,20.76-24.6,6.69,6.69,0,0,1,6.7-3.14,6.61,6.61,0,0,1,2.49.9A6.69,6.69,0,0,1,447,400.6a117,117,0,0,1-15.1,19.76,80.82,80.82,0,0,0,8.17,1.62,83,83,0,0,0,79.3-33.5l-.56.19A6.69,6.69,0,0,1,514.54,376a114.59,114.59,0,0,0,17.15-7.4l.21-.11a115.93,115.93,0,0,0,39.34-34.4,114.94,114.94,0,0,0-32.19-164.27,91.18,91.18,0,0,1-3.75,13.48,6.71,6.71,0,0,1-7.26,4.34,5.91,5.91,0,0,1-1.3-.33,6.69,6.69,0,0,1-4-8.57,78.71,78.71,0,0,0,3.86-15.34c.24-1.61.42-3.16.54-4.62v-.22A78.14,78.14,0,0,0,460.7,74.79,77.69,77.69,0,0,0,412.89,83a6.6,6.6,0,0,1-4.09.7,6.69,6.69,0,0,1-2.16-12.54,91.77,91.77,0,0,1,8.83-4.07,109.37,109.37,0,0,0-187.91-.53,6.69,6.69,0,0,1-6.71,3.18,6.61,6.61,0,0,1-2.47-.89,6.68,6.68,0,0,1-2.29-9.18c.67-1.12,1.38-2.25,2.11-3.38a94.45,94.45,0,0,0-95.41,74.23c-.46,2.14-.85,4.29-1.16,6.41a95,95,0,0,0-1,12.25,6.69,6.69,0,0,1-6.8,6.58,6.11,6.11,0,0,1-.86-.07,6.71,6.71,0,0,1-5.72-6.73c.06-3.25.26-6.51.61-9.75A83.29,83.29,0,0,0,69.07,257.86a84.17,84.17,0,0,0,33.14,31.56l.18-1.27a107.22,107.22,0,0,1,7.18-25.85,6.69,6.69,0,0,1,7.14-4,7,7,0,0,1,1.62.45,6.7,6.7,0,0,1,3.58,8.76,94.26,94.26,0,0,0-6.28,22.63,92.2,92.2,0,0,0-.91,9.63,93.71,93.71,0,0,0,125.89,92,118.68,118.68,0,0,1-6.89-17.16,6.7,6.7,0,0,1,4.39-8.38A6.51,6.51,0,0,1,241.08,365.91Z"/><path class="cls-4" d="M598.17,284.77a121.39,121.39,0,0,1-63.32,89.72h0s0,0,0,0l0,0A89.68,89.68,0,0,1,419.2,423.3,111.17,111.17,0,0,1,250,395.06a100.41,100.41,0,0,1-142-95.63,90,90,0,0,1,8.22-170.35A101.13,101.13,0,0,1,229.77,50.6l.63.1A116,116,0,0,1,425.11,70.78,84.81,84.81,0,0,1,533.8,159.1,121.59,121.59,0,0,1,598.17,284.77Z"/><path class="cls-5" d="M598.17,284.77a121.39,121.39,0,0,1-63.32,89.72h0c-.93,2.24-2,4.44-3.06,6.57l-2.49,1.28a96.75,96.75,0,0,1-18.42,25.28A89.67,89.67,0,0,1,419.2,423.3a108.82,108.82,0,0,1-8.64,6.79c-1.16-.4-2.32-.84-3.47-1.29a118.52,118.52,0,0,1-50.36,21.31h-.05a111.36,111.36,0,0,1-101.3-46.68,7.69,7.69,0,0,1,3.24-.09,7.57,7.57,0,0,1,2.39.91A102.64,102.64,0,0,0,294.25,417a103.95,103.95,0,0,0,94.54-29.81,7.46,7.46,0,0,1,6.76-2.14l.71.17a76.41,76.41,0,0,0,7.66,1.88,83,83,0,0,0,24.29,1.07,82,82,0,0,0,69.73-56.72,7.48,7.48,0,0,1,3.23-4.18c2.11-1.37,4.24-2.86,6.35-4.46A114.15,114.15,0,0,0,536.3,172a7.44,7.44,0,0,1,1.28-9.34,6.75,6.75,0,0,1,1.14-.87A121.58,121.58,0,0,1,598.17,284.77Z"/><path class="cls-6" d="M265.67,272.42s-12.76-6.7-22.12-.26c0,0-13.12-15.71-30.11-6.66s-44.71,65.88-9.52,81.56c0,0,20.12,8.76,38.58-23.75,0,0,14.46-25.79,32.35-19.67C274.85,303.64,279.27,265.12,265.67,272.42Z"/><path class="cls-7" d="M274.07,298.74s-18.15-9.43-33.19,16.16c-15.18,25.85-27.13,26.08-35.23,24.89-11.42-1.68-18.69-16.31-18.54-22.29,0,0,1.46,22.06,16.81,29.56,0,0,19.75,6,35.16-18.47,0,0,12.85-27.52,27.64-25.88l8.13.93Z"/><path class="cls-2" d="M589.61,212a124.35,124.35,0,0,0-49.39-52.78c-1.06-.62-2.16-1.23-3.31-1.85A87.77,87.77,0,0,0,426.63,67.26,118.94,118.94,0,0,0,229.16,47.52a104.07,104.07,0,0,0-115.42,79.22A92.95,92.95,0,0,0,105,301.39a103.35,103.35,0,0,0,143.8,97.44c1.34,2.18,2.73,4.3,4.16,6.33a114.35,114.35,0,0,0,104,47.92l.15,0a114,114,0,0,0,55.17-20.54c2.58-1.83,5.09-3.78,7.51-5.82a92.63,92.63,0,0,0,114.62-44.27c1-1.87,1.89-3.83,2.74-5.81a124.32,124.32,0,0,0,64-91.41A123.8,123.8,0,0,0,589.61,212ZM574.26,336.25a119.74,119.74,0,0,1-40.68,35.55l-.14.07a117.63,117.63,0,0,1-17.71,7.64,3,3,0,0,0,1.9,5.64c3.69-1.25,7.32-2.67,10.86-4.25a86.73,86.73,0,0,1-103.65,41.28,113.91,113.91,0,0,0,19-23.51,3,3,0,0,0-5.08-3.09,108.11,108.11,0,0,1-21.5,25.48c-2.67,2.32-5.5,4.54-8.41,6.6a108.06,108.06,0,0,1-52.39,19.49h-.14a108.31,108.31,0,0,1-98.5-45.43c-1.83-2.58-3.58-5.33-5.23-8.16A109,109,0,0,1,243,371.64a3,3,0,0,0-5.68,1.78,114.78,114.78,0,0,0,8.54,20.22A97.41,97.41,0,0,1,111,299.56a99.46,99.46,0,0,1,1-10A97.9,97.9,0,0,1,118.48,266a3,3,0,1,0-5.48-2.3,103.89,103.89,0,0,0-6.93,25q-.46,3.18-.73,6.39a87,87,0,0,1,7.06-161.65c-.11.69-.24,1.39-.34,2.07A107.14,107.14,0,0,0,111,149a3,3,0,0,0,2.54,3,2.34,2.34,0,0,0,.38,0,3,3,0,0,0,3-2.92,98.86,98.86,0,0,1,1-12.73c.32-2.2.73-4.43,1.21-6.65A98.14,98.14,0,0,1,225,53c-2,2.77-3.91,5.63-5.67,8.56a3,3,0,0,0,1,4.08,3,3,0,0,0,4.08-1A113,113,0,0,1,420.85,69a88.59,88.59,0,0,0-12.47,5.4,3,3,0,0,0,2.78,5.26,81.8,81.8,0,0,1,119.68,79.17v0c-.13,1.6-.32,3.3-.58,5.05a82.44,82.44,0,0,1-4,16.07,3,3,0,0,0,1.79,3.81,2.45,2.45,0,0,0,.58.14,3,3,0,0,0,3.23-1.92,89,89,0,0,0,4.34-17.23c0-.33.09-.65.13-1,.32.18.64.36,1,.55a118.66,118.66,0,0,1,37,171.87Z"/><ellipse class="cls-8" cx="337.4" cy="190.06" rx="65.43" ry="45.36" transform="translate(67.87 468.11) rotate(-75.28)"/><path class="cls-2" d="M323.7,258.11a33.91,33.91,0,0,1-4-.81c-13.05-3.43-23.34-13.81-29-29.24-5.42-14.9-5.85-32.86-1.2-50.56s13.84-33.13,25.89-43.45C328,123.38,342,119.39,355.06,122.82s23.34,13.81,29,29.24c5.43,14.9,5.85,32.86,1.21,50.56h0c-4.65,17.7-13.85,33.13-25.9,43.44C348.11,255.67,335.6,259.86,323.7,258.11Zm26.23-128c-21.21-3.11-44.25,18.26-52.44,49.48-4.23,16.1-3.88,32.33,1,45.68,4.67,12.84,13,21.4,23.35,24.13,22,5.77,46.9-16.13,55.49-48.85,4.23-16.1,3.89-32.33-1-45.69-4.67-12.83-13-21.4-23.35-24.12A27.07,27.07,0,0,0,349.93,130.1Zm31.34,71.48h0Z"/><ellipse class="cls-8" cx="223.37" cy="173.29" rx="59.49" ry="41.23" transform="translate(19.43 369.08) rotate(-81.63)"/><path class="cls-2" d="M214.12,236.19c-12.26-1.8-22.69-10.22-29.38-23.71-6.43-13-8.64-29.25-6.21-45.78s9.23-31.47,19.13-42.06c10.28-11,22.7-16,35-14.25s22.7,10.23,29.38,23.71c6.44,13,8.65,29.25,6.21,45.79s-9.22,31.47-19.12,42.05C238.8,232.93,226.39,238,214.12,236.19Zm17.31-117.7c-20.26-3-40.36,19.18-44.81,49.4s8.43,57.23,28.69,60.21,40.37-19.18,44.81-49.4S251.7,121.46,231.43,118.49Z"/><path class="cls-9" d="M277.37,275.35c-.85-2.56-2.29-5.22-4.76-6.53s-5.2-.58-7.32,1a28.83,28.83,0,0,0-11.19-2.3,27.91,27.91,0,0,0-9.72,1.9c-3.36-4.49-8.73-7.19-14.19-8.16a27.19,27.19,0,0,0-18.72,3.6c-5.89,3.48-10.54,8.84-14.14,14.59A89.85,89.85,0,0,0,188,299.71c-2.43,7.61-3.8,15.69-2.67,23.66a33,33,0,0,0,8.61,18.16c4.49,4.73,10.49,8.31,17.11,8.77,6.78.47,13.17-2.25,18.29-6.58s9-9.87,12.67-15.49c3.77-5.85,7.53-12,12.85-16.62.43-.37.87-.7,1.31-1a15,15,0,0,0,2.71,5.67,6.64,6.64,0,0,0,6.47,2.63c5.19-1.15,8.16-7.1,9.92-11.59a55.69,55.69,0,0,0,3.12-12C279.28,288.73,279.47,281.66,277.37,275.35Zm-46.3,60.32c-3.73,4.33-8.47,8.33-14,9.69A19.21,19.21,0,0,1,201.2,342a28,28,0,0,1-10.27-13.87c-2.27-6.72-1.89-14.13-.41-21A82.37,82.37,0,0,1,198.1,287c2.86-5.53,6.43-10.94,11.14-15.05s9.84-6.53,15.84-6.69a24.46,24.46,0,0,1,7.65,1.19,17.44,17.44,0,0,1,6.76,4.06c.25.24.47.48.73.78a49.56,49.56,0,0,0-11.72,9.15,69,69,0,0,0-10.66,14.13,58,58,0,0,0-4.17,9,2.28,2.28,0,0,0,1.15,2.94,2.25,2.25,0,0,0,2.94-1.14A61.42,61.42,0,0,1,236.6,279a35,35,0,0,1,7.78-4.81h0a25.5,25.5,0,0,1,9.94-2.28,24.35,24.35,0,0,1,10.45,2.51,2.19,2.19,0,0,0,2.23-.25,5,5,0,0,1,2.76-1.63h.06l.38.05h.06l.06,0a1.8,1.8,0,0,0,.34.17s.38.27.44.32l.26.27c.12.13.23.27.34.41a5.76,5.76,0,0,1,.71,1.14,16.19,16.19,0,0,1,1.18,3.25c1.35,5.3,1.11,11,.34,16.37a57.33,57.33,0,0,1-1.35,6.48,1.51,1.51,0,0,0-.48-.09,28.28,28.28,0,0,0-15.83,4h0C244.58,312.13,239.69,325.68,231.07,335.67Zm38.34-26.42L269,310a5.48,5.48,0,0,1-.31.52,20.38,20.38,0,0,1-1.94,2.5l-.12.14-.07.06-.47.4-.47.36-.27.17h0l-.45.21-.26.09a2.42,2.42,0,0,1-.28.06.73.73,0,0,1-.25,0l.17,0a5.23,5.23,0,0,0-.57-.06h-.06l-.12-.06-.34-.18c-.16-.11-.31-.23-.46-.35l-.08-.07-.29-.33c-.18-.23-.34-.47-.51-.71a2.28,2.28,0,0,1-.3-.53q-.25-.51-.48-1.05a18.52,18.52,0,0,1-1-3.24l.31-.16c.5-.25,1-.47,1.52-.69s1.16-.45,1.75-.64l.67-.21.44-.13.13,0a24.72,24.72,0,0,1,3.42-.6c.54-.06,1.09-.09,1.63-.12l.93,0c.28,0,.31,0,.1,0h.18c-.3.76-.61,1.51-.95,2.25Q269.83,308.46,269.41,309.25Z"/><path class="cls-9" d="M264.09,314.53Z"/><path class="cls-2" d="M206.45,99.56a4,4,0,0,1-1.73-.69,4.08,4.08,0,0,1-1-5.69,28.62,28.62,0,0,1,40.49-6.74A4.09,4.09,0,1,1,239.33,93a20.46,20.46,0,0,0-28.92,4.83A4.09,4.09,0,0,1,206.45,99.56Z"/><path class="cls-2" d="M394.64,130.81a4.09,4.09,0,0,1-3.46-3.58A20.45,20.45,0,0,0,364.71,110a4.09,4.09,0,0,1-2.46-7.8A28.62,28.62,0,0,1,399.3,126.3a4.07,4.07,0,0,1-3.59,4.52A3.83,3.83,0,0,1,394.64,130.81Z"/><ellipse class="cls-2" cx="213.01" cy="197.32" rx="34.44" ry="26.4" transform="translate(8.63 403.57) rotate(-88.07)"/><ellipse class="cls-2" cx="324.16" cy="215.92" rx="37.18" ry="28.6" transform="translate(97.45 532.63) rotate(-88.07)"/><circle class="cls-8" cx="224.5" cy="180.97" r="7.44"/><circle class="cls-8" cx="233.28" cy="192.79" r="3.72"/><circle class="cls-8" cx="346.27" cy="206.4" r="3.72"/><circle class="cls-8" cx="336.53" cy="195.94" r="7.44"/></g></g></svg>