<?xml version="1.0" encoding="UTF-8"?>
<svg id="Capa_2" data-name="Capa 2" xmlns="http://www.w3.org/2000/svg" viewBox="0 0 2330.36 205.85">
  <defs>
    <style>
      .cls-1 {
        fill: #fff;
      }

      .cls-2 {
        fill: #1e1e1e;
      }

      .cls-3 {
        fill: #3a3a3a;
      }
    </style>
  </defs>
  <g id="Capa_1-2" data-name="Capa 1">
    <g>
      <path class="cls-2" d="M14.46,202.06c-7.98,0-14.46-6.49-14.46-14.46,0-7.21,5.4-13.28,12.37-14.31V41.66c-6.97-1.03-12.37-7.11-12.37-14.31,0-7.98,6.49-14.46,14.46-14.46h57.73c7.98,0,14.46,6.49,14.46,14.46,0,7.21-5.4,13.28-12.37,14.31V173.29c6.97,1.03,12.37,7.1,12.37,14.31,0,7.98-6.49,14.46-14.46,14.46H14.46Z"/>
      <path class="cls-2" d="M161.27,202.06c-4.27,0-8.09-1.95-10.63-5-2.54,3.05-6.36,5-10.63,5h-46.67c-7.61,0-13.81-6.19-13.81-13.81,0-5.95,3.87-11.13,9.27-13.04l-.59-70.35c-4.75-.99-8.7-4.42-10.28-9.16l-.19-.57c-1.19-3.55-.9-7.35,.81-10.68,1.68-3.28,4.67-5.79,8.2-6.89l32.55-10.09c1.33-.41,2.71-.62,4.09-.62,6.07,0,11.37,3.89,13.18,9.69l1.62,5.19,8.14-11.67c2.58-3.7,6.83-5.91,11.36-5.91,.07,0,.23,0,.3,0,17.53,.37,31.03,5.18,40.12,14.27,9.48,9.48,14.29,23.67,14.29,42.17v54.67c5.31,1.95,9.09,7.1,9.09,12.97,0,7.62-6.2,13.82-13.81,13.82h-46.42Zm-16.66-26.82c2.38,.85,4.45,2.33,6.03,4.24,1.61-1.94,3.73-3.44,6.16-4.28v-44.49c0-6.91-2.4-9.26-3.19-10.03-1.54-1.51-3.59-2.51-6.22-3.04l-1.97,2.03-.82,55.57Z"/>
      <path class="cls-2" d="M221.04,202.06c-7.57,0-13.73-6.16-13.73-13.73v-.15c0-5.94,3.88-11.12,9.29-12.99l-.41-77.41h-.46c-7.57,0-13.73-6.16-13.73-13.73v-1.88c0-6.56,4.63-12.06,10.79-13.41-.32-1.62-.63-3.31-.92-5.05-1.18-6.89-1.78-12.98-1.78-18.09,0-3.21,.08-5.66,.24-7.49,.11-1.21,.38-2.4,.8-3.53,2.12-5.74,5.85-10.98,11.07-15.56,4.94-4.33,10.55-7.8,16.69-10.32,6.32-2.59,12.4-3.9,18.06-3.9,8.36,0,16.85,1.29,25.25,3.84,6.66,2.02,12.88,4.61,18.47,7.7,3.39,1.87,5.83,5.1,6.71,8.88,.88,3.79,.11,7.8-2.11,10.99l-16,22.94c-2.57,3.68-6.78,5.88-11.26,5.88-3.71,0-7.31-1.53-9.88-4.21-1.37-1.42-2.87-2.9-4.48-4.43,1.71,4.83,3.33,8.86,4.83,12.04h12.52c7.57,0,13.73,6.16,13.73,13.73v3.01c0,7.57-6.16,13.73-13.73,13.73-.16,0-.31,0-.47,0l-7.82-.27-.4,75.73,6.19,.24c7.4,.29,13.2,6.32,13.2,13.72s-6.16,13.73-13.73,13.73h-56.92Z"/>
      <path class="cls-2" d="M337.75,205.85c-19.45,0-35.46-5.96-47.61-17.71-12.24-11.83-18.45-28.53-18.45-49.61,0-8.81,1.62-18.05,4.83-27.46,3.12-9.19,7.66-17.47,13.49-24.6,.68-.83,1.42-1.62,2.2-2.35,6.01-5.65,13.04-10.3,20.88-13.8,8.42-3.76,17.31-5.67,26.43-5.67,19.44,0,35.45,5.96,47.6,17.71,12.24,11.85,18.45,28.54,18.45,49.61,0,8.94-1.57,18.24-4.67,27.63-3.04,9.22-7.55,17.52-13.39,24.68-.68,.83-1.42,1.62-2.2,2.36-6.05,5.68-13.1,10.29-20.97,13.72-8.39,3.65-17.34,5.5-26.59,5.5Zm-7.75-99.74c-.32,2.05-.61,4.18-.88,6.36-.71,5.8-1.06,10.49-1.06,13.94,0,13.6,2.45,23.56,7.29,29.62,3.04,3.81,7.05,6.58,12.16,8.39,.28-1.93,.54-3.94,.76-6,.63-5.86,.95-10.68,.95-14.33,0-13.74-2.44-23.74-7.25-29.7-3.02-3.74-6.97-6.48-11.96-8.27Z"/>
      <path class="cls-2" d="M403.58,202.06c-7.57,0-13.72-6.16-13.72-13.72v-.17c0-5.93,3.87-11.1,9.27-12.97l-.59-70.3c-4.73-.97-8.68-4.38-10.25-9.1l-.25-.74c-1.18-3.53-.89-7.3,.81-10.61s4.59-5.74,8.14-6.84l32.73-10.15c1.32-.41,2.69-.62,4.07-.62,6,0,11.26,3.84,13.08,9.57l.81,2.53c2.49-3.29,5.06-6.24,7.71-8.83,1.5-1.46,3.33-2.58,5.29-3.22,4.53-1.49,9.81-2.24,15.69-2.24,6.9,0,13.58,1.05,19.85,3.11,6.76,2.22,10.71,9.39,9.01,16.32l-6.44,26.15c-1.51,6.15-6.99,10.44-13.32,10.44-.8,0-1.61-.07-2.41-.21-4.02-.71-8.94-1.4-14.62-2.03-4.75-.53-9-.96-12.68-1.28l-.81,57.18,9.07,.31c7.44,.25,13.26,6.27,13.26,13.71s-6.16,13.72-13.72,13.72h-59.97Z"/>
      <path class="cls-2" d="M631.68,202.06c-3.93,0-7.48-1.65-10-4.29-2.52,2.64-6.07,4.29-10,4.29h-46.42c-3.86,0-7.36-1.59-9.87-4.16-2.51,2.56-6.01,4.16-9.87,4.16h-46.67c-7.61,0-13.81-6.19-13.81-13.81,0-5.95,3.87-11.13,9.27-13.04l-.59-70.35c-4.75-.99-8.7-4.42-10.28-9.16l-.19-.57c-1.19-3.55-.9-7.34,.81-10.68,1.68-3.28,4.67-5.79,8.2-6.89l32.55-10.09c1.33-.41,2.71-.62,4.09-.62,6.07,0,11.37,3.89,13.18,9.69l1.62,5.19,8.14-11.67c2.58-3.7,6.8-5.91,11.29-5.91,.07,0,.22,0,.3,0,14.01,.3,25.39,3.57,33.83,9.72,4.13,3.01,7.61,6.74,10.42,11.14l10.56-15.19c2.58-3.71,6.83-5.93,11.37-5.93,.08,0,.25,0,.32,0,17.08,.39,30.23,5.23,39.08,14.39,9.15,9.47,13.79,23.7,13.79,42.3v54.67c5.31,1.95,9.09,7.1,9.09,12.97,0,7.62-6.2,13.82-13.81,13.82h-46.42Zm-15.27-26.79c2.02,.74,3.82,1.95,5.28,3.49,1.51-1.59,3.4-2.84,5.53-3.57v-44.49c0-4.79-1.03-8.33-3.05-10.54-.83-.9-2.17-2.06-4.76-2.71l-3,3v54.82Zm-66.28-.04c2.01,.72,3.81,1.89,5.27,3.4,1.49-1.53,3.34-2.73,5.4-3.44v-44.49c0-4.75-1-8.22-2.98-10.33-.84-.89-2.19-2.04-4.82-2.68l-2.06,2.06-.82,55.48Z"/>
      <path class="cls-2" d="M707.41,205.85c-9.7,0-18.12-3.68-24.36-10.65-6.05-6.74-9.12-15.28-9.12-25.36,0-3.98,.44-8.31,1.32-12.87,.66-3.46,1.46-6.4,2.44-8.98,1.76-4.65,5.9-8.04,10.8-8.82l43.56-6.99c.09-4.57-.76-7.98-2.55-10.16-1.9-2.31-6.19-2.8-9.45-2.8-2.88,0-5.97,.32-9.19,.95-1.64,.32-3.13,.68-4.48,1.08l-.77,1.63c-2.28,4.84-7.21,7.97-12.56,7.97-1.65,0-3.27-.29-4.82-.86-6.98-2.58-10.67-10.16-8.4-17.24l9.94-31.12c1.25-3.91,4.13-7.05,7.92-8.61,13.51-5.57,26.63-8.39,39.01-8.39,14.3,0,26.31,3.97,35.69,11.79,9.93,8.27,14.96,20.84,14.96,37.35,0,.17,0,.33-.01,.5,0,0-.26,5.21-.27,5.29l-2.52,34-.48,8.7c0,.17,0,.32,0,.48,5.21,.38,9.77,3.65,11.79,8.54l.16,.39c2.84,6.88-.2,14.73-6.92,17.88l-31.61,14.84c-1.84,.87-3.89,1.32-5.93,1.32-3.32,0-6.52-1.19-9.01-3.34-1.87-1.62-3.54-3.42-5-5.39-3.5,1.76-7.03,3.32-10.55,4.67-7.37,2.82-13.79,4.2-19.61,4.2Z"/>
      <path class="cls-2" d="M839.71,205.85c-18.08,0-32.79-6.28-43.73-18.65-10.63-12.02-16.02-28.13-16.02-47.91,0-11.55,2.38-23.12,7.08-34.4,4.56-10.94,10.51-20.3,17.68-27.82,1.13-1.19,2.45-2.15,3.92-2.87,6.16-3.02,12.67-5.38,19.35-7,6.97-1.7,13.8-2.56,20.29-2.56,11.96,0,22.8,3.32,32.22,9.87,8.25,5.74,15.09,13.8,20.32,23.95,3.35,6.49,1.02,14.45-5.3,18.13l-22.27,12.97c-2.09,1.22-4.48,1.86-6.89,1.87-5.65,0-10.65-3.4-12.74-8.65-2.29-5.76-5.2-11.67-8.66-17.56-.99-1.69-1.91-3.18-2.76-4.49-.84,1.67-1.64,3.49-2.4,5.46-2.65,6.79-3.99,13.85-3.99,20.99,0,10.46,2.09,18.23,6.2,23.06,3.81,4.49,9.09,6.58,16.62,6.58s14.75-2.5,22.2-7.65c2.31-1.6,5.01-2.44,7.82-2.44,3.91,0,7.64,1.67,10.24,4.59,4.06,4.57,4.62,11.14,1.4,16.35-6.66,10.78-14.96,19.7-24.67,26.52-11.02,7.74-23.1,11.67-35.92,11.67Z"/>
      <path class="cls-2" d="M899.83,202.06c-7.61,0-13.81-6.19-13.81-13.81,0-5.95,3.87-11.13,9.27-13.04l-.59-70.01c-4.69-.98-8.63-4.36-10.24-9.02l-.14-.41c-1.22-3.53-.95-7.45,.73-10.77,1.68-3.32,4.68-5.85,8.23-6.95l39.05-12.08c1.32-.41,2.7-.62,4.08-.62,4.89,0,9.46,2.62,11.93,6.85l1.49,2.55c1.25,2.14,1.9,4.58,1.88,7.06l-.68,93.39c5.41,1.9,9.28,7.09,9.28,13.04,0,7.61-6.2,13.81-13.81,13.81h-46.67Zm10.09-141.25c-7.61,0-13.8-6.2-13.8-13.81V28.2c0-6.5,4.42-12.03,10.76-13.47l24.7-5.6c1-.23,2.03-.34,3.06-.34,7.61,0,13.8,6.2,13.8,13.81v20.73c0,6.79-5.06,12.66-11.78,13.66l-24.7,3.67c-.67,.1-1.36,.15-2.04,.15Z"/>
      <path class="cls-2" d="M1012.67,205.85c-19.45,0-35.46-5.96-47.61-17.71-12.24-11.83-18.45-28.53-18.45-49.61,0-8.81,1.62-18.05,4.83-27.46,3.2-9.41,7.88-17.85,13.9-25.1,.41-.49,.85-.97,1.32-1.41,6.12-5.85,13.3-10.65,21.35-14.25,3.05-1.36,6.15-2.48,9.31-3.35-.66-.57-1.27-1.19-1.84-1.87-4.68-5.63-4.92-13.67-.57-19.55l25.38-34.42c2.98-4.03,7.75-6.44,12.76-6.44,4.32,0,8.36,1.71,11.37,4.81l5.17,5.32c2.97,3.06,4.56,7.09,4.47,11.35-.08,4.26-1.83,8.23-4.92,11.17l-28.88,27.5c16.83,1.09,30.86,6.97,41.77,17.52,12.24,11.85,18.45,28.54,18.45,49.61,0,8.94-1.57,18.24-4.67,27.63-3.11,9.44-7.76,17.91-13.8,25.18-.42,.5-.85,.96-1.3,1.4-6.16,5.89-13.38,10.66-21.46,14.18-8.39,3.65-17.34,5.5-26.59,5.5Zm-7.75-99.74c-.32,2.05-.61,4.18-.88,6.36-.71,5.8-1.06,10.49-1.06,13.94,0,13.6,2.45,23.56,7.29,29.62,3.04,3.81,7.05,6.58,12.16,8.39,.28-1.93,.54-3.94,.76-6,.63-5.86,.95-10.68,.95-14.33,0-13.74-2.44-23.74-7.25-29.7-3.02-3.74-6.97-6.48-11.96-8.27Z"/>
      <path class="cls-2" d="M1146.52,202.06c-4.27,0-8.09-1.95-10.63-5-2.54,3.05-6.36,5-10.63,5h-46.67c-7.61,0-13.81-6.19-13.81-13.81,0-5.95,3.87-11.13,9.27-13.04l-.59-70.35c-4.75-.99-8.7-4.42-10.28-9.16l-.19-.57c-1.19-3.55-.9-7.35,.81-10.68,1.68-3.28,4.67-5.79,8.2-6.89l32.55-10.09c1.33-.41,2.71-.62,4.09-.62,6.07,0,11.37,3.89,13.18,9.69l1.62,5.19,8.14-11.67c2.58-3.7,6.83-5.91,11.36-5.91,.07,0,.23,0,.3,0,17.53,.37,31.03,5.18,40.12,14.27,9.48,9.48,14.29,23.67,14.29,42.17v54.67c5.31,1.95,9.09,7.1,9.09,12.97,0,7.62-6.2,13.82-13.81,13.82h-46.42Zm-16.66-26.82c2.38,.85,4.45,2.33,6.03,4.24,1.61-1.94,3.73-3.44,6.16-4.28v-44.49c0-6.91-2.4-9.26-3.19-10.03-1.54-1.51-3.59-2.51-6.22-3.04l-1.97,2.03-.82,55.57Z"/>
      <path class="cls-2" d="M1287.31,205.82c-10.7-.31-20.42-3.02-28.9-8.07-9.04-5.38-16.18-12.88-21.24-22.29-4.98-9.26-7.5-19.82-7.5-31.37,0-9.52,1.58-19.66,4.71-30.13,3.21-10.76,7.08-19.1,11.85-25.49,4.19-5.9,11.06-11.23,20.97-16.28,9.93-5.07,18.36-7.53,25.75-7.53,3.03,0,6.54,.25,10.57,.75l-.25-21.55c-4.71-.97-8.67-4.36-10.28-9.04l-.12-.35c-1.22-3.54-.94-7.48,.76-10.81,1.7-3.33,4.73-5.86,8.31-6.95l40-12.11c1.3-.39,2.65-.59,4.01-.59,4.9,0,9.48,2.63,11.95,6.86l1.47,2.53c1.26,2.16,1.92,4.63,1.88,7.14l-1.5,129.66c0,4.28,.18,7.1,.39,8.91,5.39,.07,10.26,3.28,12.46,8.22,2.91,6.56,.25,14.37-6.06,17.79l-31.74,17.17c-2.03,1.1-4.31,1.67-6.61,1.67-2.87,0-5.62-.87-7.94-2.53-4.91-3.48-8.67-7.93-11.18-13.23l-10.88,12.75c-2.63,3.09-6.46,4.86-10.49,4.86-.13,0-.26,0-.4,0Zm1.49-100.24c-1.84,6.76-2.77,14.58-2.77,23.36,0,6.31,.99,11.75,2.94,16.16,1.8,4.08,4.07,7.14,6.75,9.11,1.26,.92,2.51,1.59,3.78,2.02l4.88-4.88-.4-40.42c-5.17-2.2-10.24-3.99-15.17-5.35Z"/>
      <path class="cls-2" d="M1417.68,205.85c-18.24,0-33.04-6.28-43.98-18.65-10.63-12.02-16.02-28.13-16.02-47.91,0-11.53,2.33-23.08,6.93-34.33,4.48-10.97,10.31-20.34,17.32-27.86,.99-1.05,2.11-1.94,3.35-2.63,5.13-2.86,11.32-5.15,18.91-7,7.66-1.87,15-2.81,21.81-2.81,17.94,0,32.34,6.66,42.8,19.81,9.27,11.67,14.2,27.02,14.64,45.64,.18,7.48-5.76,13.76-13.25,14.01l-53.57,1.75c1.12,2.28,2.53,4.19,4.24,5.75,3.85,3.51,9.08,5.22,15.99,5.22,9.76,0,17.51-2.26,23.67-6.91,2.38-1.8,5.33-2.79,8.3-2.79,3.35,0,6.58,1.23,9.08,3.45,4.81,4.28,5.98,11.45,2.78,17.05-6.52,11.4-15.19,20.56-25.75,27.22-11.59,7.31-24.13,11.01-37.27,11.01Zm2.45-107.28c-1.27,2.37-2.42,5.09-3.44,8.15-1.17,3.52-2.05,7.12-2.62,10.76l11.51-.97c-.64-5.98-1.84-10.91-3.59-14.68-.62-1.35-1.26-2.41-1.86-3.25Z"/>
      <path class="cls-2" d="M1481.58,202.06c-7.61,0-13.81-6.19-13.81-13.81,0-5.95,3.87-11.13,9.27-13.04l-1.1-131.36c-4.69-.98-8.63-4.36-10.24-9.01l-.14-.41c-1.22-3.53-.94-7.46,.76-10.78,1.7-3.32,4.72-5.85,8.3-6.93l40.04-12.12c1.3-.39,2.65-.59,4-.59,4.89,0,9.46,2.63,11.93,6.85l1.49,2.56c1.25,2.14,1.9,4.58,1.88,7.06l-1.19,154.75c5.41,1.9,9.28,7.09,9.28,13.04,0,7.61-6.2,13.81-13.81,13.81h-46.67Z"/>
      <path class="cls-2" d="M1583.46,202.06c-7.96,0-14.44-6.48-14.44-14.44,0-7.25,5.41-13.32,12.37-14.34V41.67c-6.97-1.02-12.37-7.09-12.37-14.29,0-8.01,6.48-14.49,14.44-14.49h114.09c7.96,0,14.44,6.48,14.44,14.44v41.25c0,7.96-6.48,14.44-14.44,14.44h-.37s-1.14-.03-1.14-.03c-7.58-.19-13.76-6.28-14.06-13.86l-.13-3.18c-12.98-7.97-25.71-14.9-38.04-20.68v50.94h32.78c7.96,0,14.44,6.48,14.44,14.44v.46c0,7.96-6.48,14.44-14.44,14.44h-32.78v47.51l12.71,.12c7.89,.07,14.3,6.55,14.3,14.44s-6.48,14.44-14.44,14.44h-72.93Z"/>
      <path class="cls-2" d="M1755.01,205.85c-18.24,0-33.04-6.28-43.98-18.65-10.63-12.02-16.02-28.13-16.02-47.91,0-11.53,2.33-23.08,6.93-34.33,4.48-10.97,10.3-20.34,17.32-27.86,.99-1.05,2.12-1.94,3.37-2.64,5.13-2.86,11.31-5.15,18.9-7,7.66-1.87,15-2.81,21.81-2.81,17.94,0,32.34,6.66,42.8,19.81,9.27,11.67,14.2,27.02,14.64,45.64,.18,7.48-5.76,13.76-13.25,14.01l-53.57,1.75c1.12,2.28,2.53,4.19,4.24,5.75,3.85,3.51,9.08,5.22,15.99,5.22,9.76,0,17.51-2.26,23.67-6.91,2.38-1.8,5.33-2.79,8.3-2.79,3.35,0,6.57,1.22,9.08,3.45,4.81,4.28,5.99,11.45,2.78,17.06-6.52,11.4-15.19,20.56-25.75,27.22-11.59,7.31-24.13,11.01-37.27,11.01Zm2.45-107.28c-1.27,2.36-2.42,5.09-3.44,8.15-1.17,3.52-2.05,7.12-2.62,10.76l11.51-.97c-.64-5.98-1.84-10.91-3.59-14.68-.62-1.33-1.25-2.4-1.86-3.25Z"/>
      <path class="cls-2" d="M1855.76,205.85c-10.38,0-20.34-2.52-29.61-7.5-5.77-3.1-10.73-6.85-14.72-11.13-3.43-3.68-5.19-8.66-4.83-13.66,.36-4.99,2.8-9.65,6.71-12.78l8.31-6.67c3.2-2.56,7.21-3.98,11.3-3.98,.15,0,.3,0,.45,0-3.47-2.41-6.41-4.6-8.91-6.62-4.42-3.58-8.2-7.94-11.23-12.96-3.38-5.6-5.1-11.92-5.1-18.8,0-8.34,2.72-16.34,8.07-23.78,5.1-7.08,12.2-12.82,21.1-17.06,8.73-4.17,18.67-6.28,29.56-6.28,8.71,0,17.09,1.9,24.91,5.66,3.95,1.9,7.58,4.1,10.8,6.53,4.15,3.14,6.73,7.93,7.07,13.14,.35,5.25-1.6,10.38-5.34,14.07l-7.49,7.39c-3.4,3.35-7.9,5.2-12.67,5.2-.41,0-.82-.01-1.23-.04,8.39,5.93,14.79,11.3,19.53,16.37,6.48,6.94,9.76,15.53,9.76,25.51,0,8.57-2.53,16.66-7.53,24.04-4.85,7.17-11.69,12.94-20.31,17.15-8.42,4.11-18.05,6.19-28.62,6.19Zm-5.28-43.48c1.86,3.02,3.73,5.87,5.61,8.54,.01-.1,.02-.21,.02-.31,0-2.05-.67-3.6-2.25-5.18-.94-.94-2.06-1.95-3.38-3.05Z"/>
      <path class="cls-2" d="M1955.79,204.32c-14.46-.3-25.49-4.48-32.79-12.44-7.46-8.12-11.09-20.04-11.09-36.43v-57.17h-2.33c-8.04,0-14.59-6.54-14.59-14.59v-.82c0-5.16,2.76-9.98,7.2-12.57,5.9-3.45,12.42-8.24,19.39-14.22,7.19-6.17,13.91-12.73,19.98-19.49,2.77-3.09,6.74-4.86,10.88-4.86,1.43,0,2.85,.21,4.22,.62l2.14,.65c6.33,1.92,10.59,7.88,10.35,14.49l-.76,20.95h14.58c8.04,0,14.59,6.54,14.59,14.59v1.35c0,8.04-6.54,14.59-14.59,14.59-.06,0-15.46-.26-15.46-.26v47.91c0,7.65,1.62,10.4,2.32,11.23,.76,.91,1.58,1.46,2.66,1.74l2.61-1.48c2.19-1.25,4.68-1.9,7.2-1.9,5.25,0,10.11,2.83,12.7,7.4,3.67,6.49,1.89,14.67-4.16,19.03l-26.24,18.93c-2.51,1.81-5.45,2.76-8.51,2.76-.07,0-.23,0-.3,0Z"/>
      <path class="cls-2" d="M1997.93,202.06c-7.61,0-13.81-6.19-13.81-13.81,0-5.95,3.87-11.13,9.27-13.04l-.59-70.01c-4.69-.98-8.63-4.36-10.24-9.02l-.14-.41c-1.22-3.53-.95-7.45,.73-10.77,1.68-3.32,4.68-5.85,8.23-6.95l39.05-12.08c1.32-.41,2.7-.62,4.08-.62,4.89,0,9.46,2.62,11.93,6.85l1.49,2.55c1.25,2.14,1.9,4.58,1.88,7.06l-.68,93.39c5.41,1.9,9.28,7.09,9.28,13.04,0,7.61-6.2,13.81-13.81,13.81h-46.67Zm10.09-141.25c-7.61,0-13.8-6.2-13.8-13.81V28.2c0-6.5,4.42-12.03,10.76-13.47l24.7-5.6c1-.23,2.03-.34,3.06-.34,7.61,0,13.8,6.2,13.8,13.81v20.73c0,6.79-5.06,12.66-11.78,13.66l-24.7,3.67c-.67,.1-1.36,.15-2.04,.15Z"/>
      <path class="cls-2" d="M2096.62,201.89c-5.82,0-11.11-3.66-13.17-9.1l-36.63-96.68c-5.91-1.69-10.17-7.1-10.17-13.54,0-7.81,6.32-14.13,14.09-14.13h51.67c7.77,0,14.09,6.32,14.09,14.09,0,5.58-3.17,10.37-7.84,12.65l8.92,31.56,8.38-31.49c-4.76-2.25-8-7.08-8-12.73,0-7.77,6.32-14.09,14.09-14.09h35.25c7.77,0,14.09,6.32,14.09,14.09,0,6.6-4.41,12.09-10.49,13.67l-41.34,95.99c-2.12,4.92-6.76,8.17-12.1,8.49l-19.99,1.19c-.28,.02-.56,.02-.84,.02Z"/>
      <path class="cls-2" d="M2184.76,205.85c-9.7,0-18.12-3.68-24.36-10.65-6.05-6.74-9.12-15.28-9.12-25.36,0-3.98,.44-8.31,1.32-12.87,.66-3.46,1.46-6.4,2.44-8.98,1.76-4.65,5.9-8.04,10.8-8.82l43.56-6.99c.09-4.57-.76-7.98-2.55-10.16-1.9-2.31-6.19-2.8-9.45-2.8-2.88,0-5.97,.32-9.19,.95-1.63,.32-3.13,.68-4.48,1.08l-.77,1.63c-2.28,4.84-7.21,7.97-12.56,7.97-1.65,0-3.27-.29-4.82-.86-6.98-2.58-10.67-10.16-8.4-17.24l9.94-31.12c1.25-3.91,4.13-7.05,7.92-8.61,13.51-5.57,26.63-8.39,39.01-8.39,14.3,0,26.31,3.97,35.69,11.79,9.93,8.27,14.96,20.84,14.96,37.35,0,.17,0,.33-.01,.5,0,0-.26,5.21-.27,5.29l-2.52,34-.48,8.7c0,.16,0,.32,0,.48,5.21,.38,9.77,3.65,11.79,8.54l.16,.39c2.84,6.88-.2,14.73-6.92,17.88l-31.61,14.84c-1.84,.87-3.89,1.32-5.93,1.32-3.32,0-6.52-1.19-9.01-3.34-1.87-1.62-3.54-3.42-5-5.39-3.5,1.76-7.03,3.32-10.55,4.67-7.37,2.82-13.79,4.2-19.61,4.2Z"/>
      <path class="cls-2" d="M2269.88,202.06c-7.61,0-13.81-6.19-13.81-13.81,0-5.95,3.87-11.13,9.27-13.04l-1.1-131.36c-4.69-.98-8.63-4.36-10.24-9.01l-.14-.41c-1.22-3.53-.94-7.46,.76-10.78,1.7-3.32,4.72-5.85,8.3-6.93l40.04-12.12c1.3-.39,2.65-.59,4-.59,4.89,0,9.46,2.63,11.93,6.85l1.49,2.56c1.25,2.14,1.9,4.58,1.88,7.06l-1.19,154.75c5.41,1.9,9.28,7.09,9.28,13.04,0,7.61-6.2,13.81-13.81,13.81h-46.67Z"/>
    </g>
    <g>
      <path class="cls-3" d="M14.46,198.06c-7.98,0-14.46-6.49-14.46-14.46,0-7.21,5.4-13.28,12.37-14.31V37.66C5.41,36.63,0,30.56,0,23.35c0-7.98,6.49-14.46,14.46-14.46h57.73c7.98,0,14.46,6.49,14.46,14.46,0,7.21-5.4,13.28-12.37,14.31V169.29c6.97,1.03,12.37,7.1,12.37,14.31,0,7.98-6.49,14.46-14.46,14.46H14.46Z"/>
      <path class="cls-3" d="M161.27,198.06c-4.27,0-8.09-1.95-10.63-5-2.54,3.05-6.36,5-10.63,5h-46.67c-7.61,0-13.81-6.19-13.81-13.81,0-5.95,3.87-11.13,9.27-13.04l-.59-70.35c-4.75-.99-8.7-4.42-10.28-9.16l-.19-.57c-1.19-3.55-.9-7.35,.81-10.68,1.68-3.28,4.67-5.79,8.2-6.89l32.55-10.09c1.33-.41,2.71-.62,4.09-.62,6.07,0,11.37,3.89,13.18,9.69l1.62,5.19,8.14-11.67c2.58-3.7,6.83-5.91,11.36-5.91,.07,0,.23,0,.3,0,17.53,.37,31.03,5.18,40.12,14.27,9.48,9.48,14.29,23.67,14.29,42.17v54.67c5.31,1.95,9.09,7.1,9.09,12.97,0,7.62-6.2,13.82-13.81,13.82h-46.42Zm-16.66-26.82c2.38,.85,4.45,2.33,6.03,4.24,1.61-1.94,3.73-3.44,6.16-4.28v-44.49c0-6.91-2.4-9.26-3.19-10.03-1.54-1.51-3.59-2.51-6.22-3.04l-1.97,2.03-.82,55.57Z"/>
      <path class="cls-3" d="M221.04,198.06c-7.57,0-13.73-6.16-13.73-13.73v-.15c0-5.94,3.88-11.12,9.29-12.99l-.41-77.41h-.46c-7.57,0-13.73-6.16-13.73-13.73v-1.88c0-6.56,4.63-12.06,10.79-13.41-.32-1.62-.63-3.31-.92-5.05-1.18-6.89-1.78-12.98-1.78-18.09,0-3.21,.08-5.66,.24-7.49,.11-1.21,.38-2.4,.8-3.53,2.12-5.74,5.85-10.98,11.07-15.56,4.94-4.33,10.55-7.8,16.69-10.32,6.32-2.59,12.4-3.9,18.06-3.9,8.36,0,16.85,1.29,25.25,3.84,6.66,2.02,12.88,4.61,18.47,7.7,3.39,1.87,5.83,5.1,6.71,8.88,.88,3.79,.11,7.8-2.11,10.99l-16,22.94c-2.57,3.68-6.78,5.88-11.26,5.88-3.71,0-7.31-1.53-9.88-4.21-1.37-1.42-2.87-2.9-4.48-4.43,1.71,4.83,3.33,8.86,4.83,12.04h12.52c7.57,0,13.73,6.16,13.73,13.73v3.01c0,7.57-6.16,13.73-13.73,13.73-.16,0-.31,0-.47,0l-7.82-.27-.4,75.73,6.19,.24c7.4,.29,13.2,6.32,13.2,13.72s-6.16,13.73-13.73,13.73h-56.92Z"/>
      <path class="cls-3" d="M337.75,201.85c-19.45,0-35.46-5.96-47.61-17.71-12.24-11.83-18.45-28.53-18.45-49.61,0-8.81,1.62-18.05,4.83-27.46,3.12-9.19,7.66-17.47,13.49-24.6,.68-.83,1.42-1.62,2.2-2.35,6.01-5.65,13.04-10.3,20.88-13.8,8.42-3.76,17.31-5.67,26.43-5.67,19.44,0,35.45,5.96,47.6,17.71,12.24,11.85,18.45,28.54,18.45,49.61,0,8.94-1.57,18.24-4.67,27.63-3.04,9.22-7.55,17.52-13.39,24.68-.68,.83-1.42,1.62-2.2,2.36-6.05,5.68-13.1,10.29-20.97,13.72-8.39,3.65-17.34,5.5-26.59,5.5Zm-7.75-99.74c-.32,2.05-.61,4.18-.88,6.36-.71,5.8-1.06,10.49-1.06,13.94,0,13.6,2.45,23.56,7.29,29.62,3.04,3.81,7.05,6.58,12.16,8.39,.28-1.93,.54-3.94,.76-6,.63-5.86,.95-10.68,.95-14.33,0-13.74-2.44-23.74-7.25-29.7-3.02-3.74-6.97-6.48-11.96-8.27Z"/>
      <path class="cls-3" d="M403.58,198.06c-7.57,0-13.72-6.16-13.72-13.72v-.17c0-5.93,3.87-11.1,9.27-12.97l-.59-70.3c-4.73-.97-8.68-4.38-10.25-9.1l-.25-.74c-1.18-3.53-.89-7.3,.81-10.61s4.59-5.74,8.14-6.84l32.73-10.15c1.32-.41,2.69-.62,4.07-.62,6,0,11.26,3.84,13.08,9.57l.81,2.53c2.49-3.29,5.06-6.24,7.71-8.83,1.5-1.46,3.33-2.58,5.29-3.22,4.53-1.49,9.81-2.24,15.69-2.24,6.9,0,13.58,1.05,19.85,3.11,6.76,2.22,10.71,9.39,9.01,16.32l-6.44,26.15c-1.51,6.15-6.99,10.44-13.32,10.44-.8,0-1.61-.07-2.41-.21-4.02-.71-8.94-1.4-14.62-2.03-4.75-.53-9-.96-12.68-1.28l-.81,57.18,9.07,.31c7.44,.25,13.26,6.27,13.26,13.71s-6.16,13.72-13.72,13.72h-59.97Z"/>
      <path class="cls-3" d="M631.68,198.06c-3.93,0-7.48-1.65-10-4.29-2.52,2.64-6.07,4.29-10,4.29h-46.42c-3.86,0-7.36-1.59-9.87-4.16-2.51,2.56-6.01,4.16-9.87,4.16h-46.67c-7.61,0-13.81-6.19-13.81-13.81,0-5.95,3.87-11.13,9.27-13.04l-.59-70.35c-4.75-.99-8.7-4.42-10.28-9.16l-.19-.57c-1.19-3.55-.9-7.34,.81-10.68,1.68-3.28,4.67-5.79,8.2-6.89l32.55-10.09c1.33-.41,2.71-.62,4.09-.62,6.07,0,11.37,3.89,13.18,9.69l1.62,5.19,8.14-11.67c2.58-3.7,6.8-5.91,11.29-5.91,.07,0,.22,0,.3,0,14.01,.3,25.39,3.57,33.83,9.72,4.13,3.01,7.61,6.74,10.42,11.14l10.56-15.19c2.58-3.71,6.83-5.93,11.37-5.93,.08,0,.25,0,.32,0,17.08,.39,30.23,5.23,39.08,14.39,9.15,9.47,13.79,23.7,13.79,42.3v54.67c5.31,1.95,9.09,7.1,9.09,12.97,0,7.62-6.2,13.82-13.81,13.82h-46.42Zm-15.27-26.79c2.02,.74,3.82,1.95,5.28,3.49,1.51-1.59,3.4-2.84,5.53-3.57v-44.49c0-4.79-1.03-8.33-3.05-10.54-.83-.9-2.17-2.06-4.76-2.71l-3,3v54.82Zm-66.28-.04c2.01,.72,3.81,1.89,5.27,3.4,1.49-1.53,3.34-2.73,5.4-3.44v-44.49c0-4.75-1-8.22-2.98-10.33-.84-.89-2.19-2.04-4.82-2.68l-2.06,2.06-.82,55.48Z"/>
      <path class="cls-3" d="M707.41,201.85c-9.7,0-18.12-3.68-24.36-10.65-6.05-6.74-9.12-15.28-9.12-25.36,0-3.98,.44-8.31,1.32-12.87,.66-3.46,1.46-6.4,2.44-8.98,1.76-4.65,5.9-8.04,10.8-8.82l43.56-6.99c.09-4.57-.76-7.98-2.55-10.16-1.9-2.31-6.19-2.8-9.45-2.8-2.88,0-5.97,.32-9.19,.95-1.64,.32-3.13,.68-4.48,1.08l-.77,1.63c-2.28,4.84-7.21,7.97-12.56,7.97-1.65,0-3.27-.29-4.82-.86-6.98-2.58-10.67-10.16-8.4-17.24l9.94-31.12c1.25-3.91,4.13-7.05,7.92-8.61,13.51-5.57,26.63-8.39,39.01-8.39,14.3,0,26.31,3.97,35.69,11.79,9.93,8.27,14.96,20.84,14.96,37.35,0,.17,0,.33-.01,.5,0,0-.26,5.21-.27,5.29l-2.52,34-.48,8.7c0,.17,0,.32,0,.48,5.21,.38,9.77,3.65,11.79,8.54l.16,.39c2.84,6.88-.2,14.73-6.92,17.88l-31.61,14.84c-1.84,.87-3.89,1.32-5.93,1.32-3.32,0-6.52-1.19-9.01-3.34-1.87-1.62-3.54-3.42-5-5.39-3.5,1.76-7.03,3.32-10.55,4.67-7.37,2.82-13.79,4.2-19.61,4.2Z"/>
      <path class="cls-3" d="M839.71,201.85c-18.08,0-32.79-6.28-43.73-18.65-10.63-12.02-16.02-28.13-16.02-47.91,0-11.55,2.38-23.12,7.08-34.4,4.56-10.94,10.51-20.3,17.68-27.82,1.13-1.19,2.45-2.15,3.92-2.87,6.16-3.02,12.67-5.38,19.35-7,6.97-1.7,13.8-2.56,20.29-2.56,11.96,0,22.8,3.32,32.22,9.87,8.25,5.74,15.09,13.8,20.32,23.95,3.35,6.49,1.02,14.45-5.3,18.13l-22.27,12.97c-2.09,1.22-4.48,1.86-6.89,1.87-5.65,0-10.65-3.4-12.74-8.65-2.29-5.76-5.2-11.67-8.66-17.56-.99-1.69-1.91-3.18-2.76-4.49-.84,1.67-1.64,3.49-2.4,5.46-2.65,6.79-3.99,13.85-3.99,20.99,0,10.46,2.09,18.23,6.2,23.06,3.81,4.49,9.09,6.58,16.62,6.58s14.75-2.5,22.2-7.65c2.31-1.6,5.01-2.44,7.82-2.44,3.91,0,7.64,1.67,10.24,4.59,4.06,4.57,4.62,11.14,1.4,16.35-6.66,10.78-14.96,19.7-24.67,26.52-11.02,7.74-23.1,11.67-35.92,11.67Z"/>
      <path class="cls-3" d="M899.83,198.06c-7.61,0-13.81-6.19-13.81-13.81,0-5.95,3.87-11.13,9.27-13.04l-.59-70.01c-4.69-.98-8.63-4.36-10.24-9.02l-.14-.41c-1.22-3.53-.95-7.45,.73-10.77,1.68-3.32,4.68-5.85,8.23-6.95l39.05-12.08c1.32-.41,2.7-.62,4.08-.62,4.89,0,9.46,2.62,11.93,6.85l1.49,2.55c1.25,2.14,1.9,4.58,1.88,7.06l-.68,93.39c5.41,1.9,9.28,7.09,9.28,13.04,0,7.61-6.2,13.81-13.81,13.81h-46.67Zm10.09-141.25c-7.61,0-13.8-6.2-13.8-13.81V24.2c0-6.5,4.42-12.03,10.76-13.47l24.7-5.6c1-.23,2.03-.34,3.06-.34,7.61,0,13.8,6.2,13.8,13.81v20.73c0,6.79-5.06,12.66-11.78,13.66l-24.7,3.67c-.67,.1-1.36,.15-2.04,.15Z"/>
      <path class="cls-3" d="M1012.67,201.85c-19.45,0-35.46-5.96-47.61-17.71-12.24-11.83-18.45-28.53-18.45-49.61,0-8.81,1.62-18.05,4.83-27.46,3.2-9.41,7.88-17.85,13.9-25.1,.41-.49,.85-.97,1.32-1.41,6.12-5.85,13.3-10.65,21.35-14.25,3.05-1.36,6.15-2.48,9.31-3.35-.66-.57-1.27-1.19-1.84-1.87-4.68-5.63-4.92-13.67-.57-19.55l25.38-34.42c2.98-4.03,7.75-6.44,12.76-6.44,4.32,0,8.36,1.71,11.37,4.81l5.17,5.32c2.97,3.06,4.56,7.09,4.47,11.35-.08,4.26-1.83,8.23-4.92,11.17l-28.88,27.5c16.83,1.09,30.86,6.97,41.77,17.52,12.24,11.85,18.45,28.54,18.45,49.61,0,8.94-1.57,18.24-4.67,27.63-3.11,9.44-7.76,17.91-13.8,25.18-.42,.5-.85,.96-1.3,1.4-6.16,5.89-13.38,10.66-21.46,14.18-8.39,3.65-17.34,5.5-26.59,5.5Zm-7.75-99.74c-.32,2.05-.61,4.18-.88,6.36-.71,5.8-1.06,10.49-1.06,13.94,0,13.6,2.45,23.56,7.29,29.62,3.04,3.81,7.05,6.58,12.16,8.39,.28-1.93,.54-3.94,.76-6,.63-5.86,.95-10.68,.95-14.33,0-13.74-2.44-23.74-7.25-29.7-3.02-3.74-6.97-6.48-11.96-8.27Z"/>
      <path class="cls-3" d="M1146.52,198.06c-4.27,0-8.09-1.95-10.63-5-2.54,3.05-6.36,5-10.63,5h-46.67c-7.61,0-13.81-6.19-13.81-13.81,0-5.95,3.87-11.13,9.27-13.04l-.59-70.35c-4.75-.99-8.7-4.42-10.28-9.16l-.19-.57c-1.19-3.55-.9-7.35,.81-10.68,1.68-3.28,4.67-5.79,8.2-6.89l32.55-10.09c1.33-.41,2.71-.62,4.09-.62,6.07,0,11.37,3.89,13.18,9.69l1.62,5.19,8.14-11.67c2.58-3.7,6.83-5.91,11.36-5.91,.07,0,.23,0,.3,0,17.53,.37,31.03,5.18,40.12,14.27,9.48,9.48,14.29,23.67,14.29,42.17v54.67c5.31,1.95,9.09,7.1,9.09,12.97,0,7.62-6.2,13.82-13.81,13.82h-46.42Zm-16.66-26.82c2.38,.85,4.45,2.33,6.03,4.24,1.61-1.94,3.73-3.44,6.16-4.28v-44.49c0-6.91-2.4-9.26-3.19-10.03-1.54-1.51-3.59-2.51-6.22-3.04l-1.97,2.03-.82,55.57Z"/>
      <path class="cls-3" d="M1287.31,201.82c-10.7-.31-20.42-3.02-28.9-8.07-9.04-5.38-16.18-12.88-21.24-22.29-4.98-9.26-7.5-19.82-7.5-31.37,0-9.52,1.58-19.66,4.71-30.13,3.21-10.76,7.08-19.1,11.85-25.49,4.19-5.9,11.06-11.23,20.97-16.28,9.93-5.07,18.36-7.53,25.75-7.53,3.03,0,6.54,.25,10.57,.75l-.25-21.55c-4.71-.97-8.67-4.36-10.28-9.04l-.12-.35c-1.22-3.54-.94-7.48,.76-10.81,1.7-3.33,4.73-5.86,8.31-6.95l40-12.11c1.3-.39,2.65-.59,4.01-.59,4.9,0,9.48,2.63,11.95,6.86l1.47,2.53c1.26,2.16,1.92,4.63,1.88,7.14l-1.5,129.66c0,4.28,.18,7.1,.39,8.91,5.39,.07,10.26,3.28,12.46,8.22,2.91,6.56,.25,14.37-6.06,17.79l-31.74,17.17c-2.03,1.1-4.31,1.67-6.61,1.67-2.87,0-5.62-.87-7.94-2.53-4.91-3.48-8.67-7.93-11.18-13.23l-10.88,12.75c-2.63,3.09-6.46,4.86-10.49,4.86-.13,0-.26,0-.4,0Zm1.49-100.24c-1.84,6.76-2.77,14.58-2.77,23.36,0,6.31,.99,11.75,2.94,16.16,1.8,4.08,4.07,7.14,6.75,9.11,1.26,.92,2.51,1.59,3.78,2.02l4.88-4.88-.4-40.42c-5.17-2.2-10.24-3.99-15.17-5.35Z"/>
      <path class="cls-3" d="M1417.68,201.85c-18.24,0-33.04-6.28-43.98-18.65-10.63-12.02-16.02-28.13-16.02-47.91,0-11.53,2.33-23.08,6.93-34.33,4.48-10.97,10.31-20.34,17.32-27.86,.99-1.05,2.11-1.94,3.35-2.63,5.13-2.86,11.32-5.15,18.91-7,7.66-1.87,15-2.81,21.81-2.81,17.94,0,32.34,6.66,42.8,19.81,9.27,11.67,14.2,27.02,14.64,45.64,.18,7.48-5.76,13.76-13.25,14.01l-53.57,1.75c1.12,2.28,2.53,4.19,4.24,5.75,3.85,3.51,9.08,5.22,15.99,5.22,9.76,0,17.51-2.26,23.67-6.91,2.38-1.8,5.33-2.79,8.3-2.79,3.35,0,6.58,1.23,9.08,3.45,4.81,4.28,5.98,11.45,2.78,17.05-6.52,11.4-15.19,20.56-25.75,27.22-11.59,7.31-24.13,11.01-37.27,11.01Zm2.45-107.28c-1.27,2.37-2.42,5.09-3.44,8.15-1.17,3.52-2.05,7.12-2.62,10.76l11.51-.97c-.64-5.98-1.84-10.91-3.59-14.68-.62-1.35-1.26-2.41-1.86-3.25Z"/>
      <path class="cls-3" d="M1481.58,198.06c-7.61,0-13.81-6.19-13.81-13.81,0-5.95,3.87-11.13,9.27-13.04l-1.1-131.36c-4.69-.98-8.63-4.36-10.24-9.01l-.14-.41c-1.22-3.53-.94-7.46,.76-10.78,1.7-3.32,4.72-5.85,8.3-6.93l40.04-12.12c1.3-.39,2.65-.59,4-.59,4.89,0,9.46,2.63,11.93,6.85l1.49,2.56c1.25,2.14,1.9,4.58,1.88,7.06l-1.19,154.75c5.41,1.9,9.28,7.09,9.28,13.04,0,7.61-6.2,13.81-13.81,13.81h-46.67Z"/>
      <path class="cls-3" d="M1583.46,198.06c-7.96,0-14.44-6.48-14.44-14.44,0-7.25,5.41-13.32,12.37-14.34V37.67c-6.97-1.02-12.37-7.09-12.37-14.29,0-8.01,6.48-14.49,14.44-14.49h114.09c7.96,0,14.44,6.48,14.44,14.44v41.25c0,7.96-6.48,14.44-14.44,14.44h-.37s-1.14-.03-1.14-.03c-7.58-.19-13.76-6.28-14.06-13.86l-.13-3.18c-12.98-7.97-25.71-14.9-38.04-20.68v50.94h32.78c7.96,0,14.44,6.48,14.44,14.44v.46c0,7.96-6.48,14.44-14.44,14.44h-32.78v47.51l12.71,.12c7.89,.07,14.3,6.55,14.3,14.44s-6.48,14.44-14.44,14.44h-72.93Z"/>
      <path class="cls-3" d="M1755.01,201.85c-18.24,0-33.04-6.28-43.98-18.65-10.63-12.02-16.02-28.13-16.02-47.91,0-11.53,2.33-23.08,6.93-34.33,4.48-10.97,10.3-20.34,17.32-27.86,.99-1.05,2.12-1.94,3.37-2.64,5.13-2.86,11.31-5.15,18.9-7,7.66-1.87,15-2.81,21.81-2.81,17.94,0,32.34,6.66,42.8,19.81,9.27,11.67,14.2,27.02,14.64,45.64,.18,7.48-5.76,13.76-13.25,14.01l-53.57,1.75c1.12,2.28,2.53,4.19,4.24,5.75,3.85,3.51,9.08,5.22,15.99,5.22,9.76,0,17.51-2.26,23.67-6.91,2.38-1.8,5.33-2.79,8.3-2.79,3.35,0,6.57,1.22,9.08,3.45,4.81,4.28,5.99,11.45,2.78,17.06-6.52,11.4-15.19,20.56-25.75,27.22-11.59,7.31-24.13,11.01-37.27,11.01Zm2.45-107.28c-1.27,2.36-2.42,5.09-3.44,8.15-1.17,3.52-2.05,7.12-2.62,10.76l11.51-.97c-.64-5.98-1.84-10.91-3.59-14.68-.62-1.33-1.25-2.4-1.86-3.25Z"/>
      <path class="cls-3" d="M1855.76,201.85c-10.38,0-20.34-2.52-29.61-7.5-5.77-3.1-10.73-6.85-14.72-11.13-3.43-3.68-5.19-8.66-4.83-13.66,.36-4.99,2.8-9.65,6.71-12.78l8.31-6.67c3.2-2.56,7.21-3.98,11.3-3.98,.15,0,.3,0,.45,0-3.47-2.41-6.41-4.6-8.91-6.62-4.42-3.58-8.2-7.94-11.23-12.96-3.38-5.6-5.1-11.92-5.1-18.8,0-8.34,2.72-16.34,8.07-23.78,5.1-7.08,12.2-12.82,21.1-17.06,8.73-4.17,18.67-6.28,29.56-6.28,8.71,0,17.09,1.9,24.91,5.66,3.95,1.9,7.58,4.1,10.8,6.53,4.15,3.14,6.73,7.93,7.07,13.14,.35,5.25-1.6,10.38-5.34,14.07l-7.49,7.39c-3.4,3.35-7.9,5.2-12.67,5.2-.41,0-.82-.01-1.23-.04,8.39,5.93,14.79,11.3,19.53,16.37,6.48,6.94,9.76,15.53,9.76,25.51,0,8.57-2.53,16.66-7.53,24.04-4.85,7.17-11.69,12.94-20.31,17.15-8.42,4.11-18.05,6.19-28.62,6.19Zm-5.28-43.48c1.86,3.02,3.73,5.87,5.61,8.54,.01-.1,.02-.21,.02-.31,0-2.05-.67-3.6-2.25-5.18-.94-.94-2.06-1.95-3.38-3.05Z"/>
      <path class="cls-3" d="M1955.79,200.32c-14.46-.3-25.49-4.48-32.79-12.44-7.46-8.12-11.09-20.04-11.09-36.43v-57.17h-2.33c-8.04,0-14.59-6.54-14.59-14.59v-.82c0-5.16,2.76-9.98,7.2-12.57,5.9-3.45,12.42-8.24,19.39-14.22,7.19-6.17,13.91-12.73,19.98-19.49,2.77-3.09,6.74-4.86,10.88-4.86,1.43,0,2.85,.21,4.22,.62l2.14,.65c6.33,1.92,10.59,7.88,10.35,14.49l-.76,20.95h14.58c8.04,0,14.59,6.54,14.59,14.59v1.35c0,8.04-6.54,14.59-14.59,14.59-.06,0-15.46-.26-15.46-.26v47.91c0,7.65,1.62,10.4,2.32,11.23,.76,.91,1.58,1.46,2.66,1.74l2.61-1.48c2.19-1.25,4.68-1.9,7.2-1.9,5.25,0,10.11,2.83,12.7,7.4,3.67,6.49,1.89,14.67-4.16,19.03l-26.24,18.93c-2.51,1.81-5.45,2.76-8.51,2.76-.07,0-.23,0-.3,0Z"/>
      <path class="cls-3" d="M1997.93,198.06c-7.61,0-13.81-6.19-13.81-13.81,0-5.95,3.87-11.13,9.27-13.04l-.59-70.01c-4.69-.98-8.63-4.36-10.24-9.02l-.14-.41c-1.22-3.53-.95-7.45,.73-10.77,1.68-3.32,4.68-5.85,8.23-6.95l39.05-12.08c1.32-.41,2.7-.62,4.08-.62,4.89,0,9.46,2.62,11.93,6.85l1.49,2.55c1.25,2.14,1.9,4.58,1.88,7.06l-.68,93.39c5.41,1.9,9.28,7.09,9.28,13.04,0,7.61-6.2,13.81-13.81,13.81h-46.67Zm10.09-141.25c-7.61,0-13.8-6.2-13.8-13.81V24.2c0-6.5,4.42-12.03,10.76-13.47l24.7-5.6c1-.23,2.03-.34,3.06-.34,7.61,0,13.8,6.2,13.8,13.81v20.73c0,6.79-5.06,12.66-11.78,13.66l-24.7,3.67c-.67,.1-1.36,.15-2.04,.15Z"/>
      <path class="cls-3" d="M2096.62,197.89c-5.82,0-11.11-3.66-13.17-9.1l-36.63-96.68c-5.91-1.69-10.17-7.1-10.17-13.54,0-7.81,6.32-14.13,14.09-14.13h51.67c7.77,0,14.09,6.32,14.09,14.09,0,5.58-3.17,10.37-7.84,12.65l8.92,31.56,8.38-31.49c-4.76-2.25-8-7.08-8-12.73,0-7.77,6.32-14.09,14.09-14.09h35.25c7.77,0,14.09,6.32,14.09,14.09,0,6.6-4.41,12.09-10.49,13.67l-41.34,95.99c-2.12,4.92-6.76,8.17-12.1,8.49l-19.99,1.19c-.28,.02-.56,.02-.84,.02Z"/>
      <path class="cls-3" d="M2184.76,201.85c-9.7,0-18.12-3.68-24.36-10.65-6.05-6.74-9.12-15.28-9.12-25.36,0-3.98,.44-8.31,1.32-12.87,.66-3.46,1.46-6.4,2.44-8.98,1.76-4.65,5.9-8.04,10.8-8.82l43.56-6.99c.09-4.57-.76-7.98-2.55-10.16-1.9-2.31-6.19-2.8-9.45-2.8-2.88,0-5.97,.32-9.19,.95-1.63,.32-3.13,.68-4.48,1.08l-.77,1.63c-2.28,4.84-7.21,7.97-12.56,7.97-1.65,0-3.27-.29-4.82-.86-6.98-2.58-10.67-10.16-8.4-17.24l9.94-31.12c1.25-3.91,4.13-7.05,7.92-8.61,13.51-5.57,26.63-8.39,39.01-8.39,14.3,0,26.31,3.97,35.69,11.79,9.93,8.27,14.96,20.84,14.96,37.35,0,.17,0,.33-.01,.5,0,0-.26,5.21-.27,5.29l-2.52,34-.48,8.7c0,.16,0,.32,0,.48,5.21,.38,9.77,3.65,11.79,8.54l.16,.39c2.84,6.88-.2,14.73-6.92,17.88l-31.61,14.84c-1.84,.87-3.89,1.32-5.93,1.32-3.32,0-6.52-1.19-9.01-3.34-1.87-1.62-3.54-3.42-5-5.39-3.5,1.76-7.03,3.32-10.55,4.67-7.37,2.82-13.79,4.2-19.61,4.2Z"/>
      <path class="cls-3" d="M2269.88,198.06c-7.61,0-13.81-6.19-13.81-13.81,0-5.95,3.87-11.13,9.27-13.04l-1.1-131.36c-4.69-.98-8.63-4.36-10.24-9.01l-.14-.41c-1.22-3.53-.94-7.46,.76-10.78,1.7-3.32,4.72-5.85,8.3-6.93l40.04-12.12c1.3-.39,2.65-.59,4-.59,4.89,0,9.46,2.63,11.93,6.85l1.49,2.56c1.25,2.14,1.9,4.58,1.88,7.06l-1.19,154.75c5.41,1.9,9.28,7.09,9.28,13.04,0,7.61-6.2,13.81-13.81,13.81h-46.67Z"/>
    </g>
    <g>
      <path class="cls-1" d="M14.37,179.14l3.63-.07c2.43-.05,4.37-2.03,4.37-4.46V32.35c0-2.43-1.94-4.41-4.37-4.46l-3.63-.07c-2.43-.05-4.37-2.03-4.37-4.46h0c0-2.47,2-4.46,4.46-4.46h57.73c2.47,0,4.46,2,4.46,4.46h0c0,2.43-1.94,4.41-4.37,4.46l-3.63,.07c-2.43,.05-4.37,2.03-4.37,4.46V174.6c0,2.43,1.94,4.41,4.37,4.46l3.63,.07c2.43,.05,4.37,2.03,4.37,4.46h0c0,2.47-2,4.46-4.46,4.46H14.46c-2.47,0-4.46-2-4.46-4.46h0c0-2.43,1.94-4.41,4.37-4.46Z"/>
      <path class="cls-1" d="M211.49,184.25h0c0,2.11-1.71,3.82-3.81,3.82h-46.42c-2.1,0-3.81-1.71-3.81-3.81h0c0-1.98,1.52-3.64,3.5-3.8l2.34-.19c1.98-.16,3.5-1.81,3.5-3.8v-49.76c0-7.41-2.06-13.13-6.19-17.17-3.77-3.69-8.83-5.76-15.18-6.22-1.14-.08-2.26,.33-3.06,1.15l-5.83,6.01c-.68,.7-1.06,1.63-1.07,2.6l-.93,63.35c-.03,2.01,1.5,3.69,3.5,3.85l2.29,.19c1.98,.16,3.5,1.81,3.5,3.8h0c0,2.1-1.71,3.81-3.81,3.81h-46.67c-2.1,0-3.81-1.71-3.81-3.81h0c0-1.98,1.52-3.64,3.5-3.8l2.31-.19c1.99-.16,3.52-1.83,3.5-3.83l-.69-82.08c-.02-2.45-2.31-4.24-4.69-3.67l-1.56,.37c-1.92,.45-3.87-.63-4.49-2.5l-.19-.58c-.68-2.03,.45-4.21,2.49-4.84l32.55-10.09c2.01-.62,4.14,.5,4.76,2.5l7.7,24.65,19.81-28.4c.74-1.06,1.96-1.66,3.24-1.63,14.93,.32,26.02,4.1,33.26,11.34,7.58,7.57,11.36,19.28,11.36,35.1v59.87c0,1.98,1.52,3.63,3.49,3.8l2.1,.18c1.97,.16,3.49,1.82,3.49,3.8Z"/>
      <path class="cls-1" d="M253.03,52.34c2.99,8.84,5.77,15.56,8.32,20.15,.66,1.19,1.91,1.94,3.28,1.94h16.36c2.06,0,3.73,1.67,3.73,3.73v3.01c0,2.11-1.75,3.8-3.86,3.73l-14.27-.49c-2.1-.07-3.85,1.61-3.86,3.71l-.47,88.25c-.01,2.01,1.58,3.67,3.59,3.75l12.25,.48c2,.08,3.59,1.72,3.59,3.73h0c0,2.06-1.67,3.73-3.73,3.73h-56.92c-2.06,0-3.73-1.67-3.73-3.73v-.15c0-1.94,1.49-3.56,3.43-3.72l2.46-.2c1.95-.16,3.44-1.79,3.43-3.74l-.47-89.03c-.01-2.05-1.68-3.71-3.73-3.71h-6.69c-2.06,0-3.73-1.67-3.73-3.73v-1.88c0-2.06,1.67-3.73,3.73-3.73h4.78c2.43,0,4.2-2.28,3.62-4.64-.86-3.49-1.66-7.42-2.41-11.77-1.1-6.39-1.64-11.87-1.64-16.41,0-2.88,.07-5.07,.2-6.59,.03-.32,.1-.64,.21-.94,1.55-4.2,4.31-8.04,8.29-11.53,4.12-3.62,8.75-6.48,13.89-8.58,5.13-2.1,9.89-3.16,14.27-3.16,7.41,0,14.85,1.14,22.35,3.41,6.03,1.83,11.54,4.13,16.54,6.88,1.93,1.06,2.49,3.59,1.23,5.39l-16,22.94c-1.35,1.93-4.11,2.15-5.74,.46-3.32-3.45-7.25-7.13-11.81-11.05-6.06-5.22-11.78-9.68-17.17-13.38,1.01,7.75,3.24,16.71,6.69,26.89Z"/>
      <path class="cls-1" d="M380.17,85.55c10.27,9.93,15.4,24.07,15.4,42.42,0,7.91-1.39,16.08-4.17,24.49-2.67,8.1-6.55,15.26-11.64,21.49-.4,.49-.84,.96-1.3,1.39-5.23,4.91-11.27,8.86-18.12,11.84-7.16,3.11-14.69,4.67-22.6,4.67-16.83,0-30.39-4.96-40.65-14.9-10.27-9.93-15.4-24.07-15.4-42.42,0-7.74,1.43-15.82,4.29-24.24,2.75-8.1,6.67-15.26,11.77-21.49,.4-.49,.83-.95,1.29-1.38,5.23-4.91,11.27-8.91,18.13-11.97,7.15-3.2,14.6-4.8,22.35-4.8,16.83,0,30.38,4.97,40.65,14.9Zm-52.65,72.72c6.31,7.91,15.61,12.62,27.9,14.14,1.18-5.05,2.1-10.69,2.78-16.92,.67-6.23,1.01-11.36,1.01-15.4,0-16.16-3.16-28.15-9.47-35.98-6.31-7.83-15.53-12.5-27.65-14.01-1.18,5.22-2.15,10.94-2.9,17.17-.76,6.23-1.14,11.28-1.14,15.15,0,15.99,3.16,27.95,9.47,35.86Z"/>
      <path class="cls-1" d="M445.8,110.31l-.94,66.03c-.03,2.03,1.57,3.71,3.6,3.77l15.23,.51c2.01,.07,3.6,1.71,3.6,3.72h0c0,2.06-1.67,3.72-3.72,3.72h-59.97c-2.06,0-3.72-1.67-3.72-3.72v-.17c0-1.94,1.49-3.55,3.42-3.71l2.47-.2c1.94-.16,3.44-1.79,3.42-3.74l-.69-82.27c-.02-2.39-2.26-4.14-4.58-3.59l-1.74,.41c-1.88,.44-3.78-.62-4.39-2.45l-.25-.74c-.66-1.98,.44-4.12,2.43-4.73l32.73-10.15c1.95-.61,4.03,.48,4.65,2.43l7.47,23.49c5.38-10.92,11.24-19.48,17.57-25.67,.4-.39,.88-.69,1.42-.87,3.54-1.16,7.73-1.74,12.58-1.74,5.87,0,11.44,.87,16.73,2.61,1.84,.6,2.88,2.55,2.42,4.42l-6.44,26.15c-.47,1.91-2.33,3.12-4.26,2.77-4.27-.76-9.36-1.46-15.27-2.12-6.59-.73-12.17-1.27-16.72-1.62-1.23-.09-2.42,.43-3.19,1.39l-3.03,3.78c-.52,.65-.8,1.45-.82,2.27Z"/>
      <path class="cls-1" d="M681.9,184.25h0c0,2.11-1.71,3.82-3.81,3.82h-46.42c-2.1,0-3.81-1.71-3.81-3.81h0c0-1.98,1.52-3.64,3.5-3.8l2.34-.19c1.98-.16,3.5-1.81,3.5-3.8v-49.76c0-7.41-1.89-13.17-5.68-17.3-3.43-3.74-8.08-5.85-13.94-6.34-1.13-.09-2.25,.31-3.05,1.11l-7.02,7.02c-.71,.71-1.12,1.68-1.12,2.69v62.59c0,1.98,1.52,3.63,3.49,3.8l2.1,.18c1.97,.16,3.49,1.82,3.49,3.8h0c0,2.11-1.71,3.82-3.81,3.82h-46.42c-2.1,0-3.81-1.71-3.81-3.81h0c0-1.98,1.52-3.64,3.5-3.8l2.34-.19c1.98-.16,3.5-1.81,3.5-3.8v-49.76c0-7.41-1.89-13.13-5.68-17.17-3.43-3.66-8.08-5.74-13.94-6.22-1.13-.09-2.24,.31-3.04,1.11l-6.04,6.04c-.7,.7-1.1,1.65-1.12,2.64l-.93,63.32c-.03,2.01,1.5,3.69,3.5,3.85l2.29,.19c1.98,.16,3.5,1.81,3.5,3.8h0c0,2.1-1.71,3.81-3.81,3.81h-46.67c-2.1,0-3.81-1.71-3.81-3.81h0c0-1.98,1.52-3.64,3.5-3.8l2.31-.19c1.99-.16,3.52-1.83,3.5-3.83l-.69-82.08c-.02-2.45-2.31-4.24-4.69-3.67l-1.56,.37c-1.92,.45-3.87-.63-4.49-2.5l-.19-.58c-.68-2.03,.45-4.21,2.49-4.84l32.55-10.09c2.01-.62,4.14,.5,4.76,2.5l7.7,24.65,19.81-28.4c.72-1.03,1.91-1.66,3.17-1.63,11.99,.26,21.38,2.86,28.16,7.81,5.35,3.91,9.27,9.42,11.75,16.53,1.02,2.94,4.94,3.49,6.72,.93l16.61-23.89c.74-1.06,1.96-1.66,3.25-1.63,14.42,.33,25.13,4.11,32.12,11.34s10.98,19.36,10.98,35.35v59.87c0,1.98,1.52,3.63,3.49,3.8l2.1,.18c1.97,.16,3.49,1.82,3.49,3.8Z"/>
      <path class="cls-1" d="M784.85,176.51l-31.6,14.83c-1.36,.64-3,.46-4.14-.53-2.46-2.13-4.4-4.67-5.84-7.64-.98-2.03-3.52-2.73-5.49-1.62-4.76,2.67-9.54,4.93-14.35,6.77-6.15,2.35-11.49,3.53-16.03,3.53-6.9,0-12.54-2.44-16.92-7.32-4.38-4.88-6.57-11.11-6.57-18.68,0-3.37,.38-7.03,1.14-10.98,.55-2.85,1.2-5.29,1.97-7.31,.5-1.31,1.64-2.27,3.03-2.49l48.39-7.76c1.78-.29,3.13-1.76,3.26-3.56l.29-4.25c.34-7.58-1.26-13.51-4.8-17.8-3.54-4.29-9.26-6.44-17.17-6.44-3.54,0-7.24,.38-11.11,1.14-3.87,.76-7.16,1.73-9.85,2.9l-2.52,5.36c-.86,1.82-2.97,2.69-4.86,1.99h0c-1.95-.72-2.98-2.84-2.35-4.82l9.94-31.12c.35-1.08,1.15-1.97,2.21-2.41,12.35-5.09,24.09-7.64,35.21-7.64,11.95,0,21.71,3.16,29.29,9.47,7.57,6.31,11.36,16.2,11.36,29.67l-.25,5.05-2.52,34.09-.5,8.96c0,.09,0,.17,0,.26,0,2.97,.26,5.32,.76,7.06,.2,.7,.45,1.41,.76,2.12,.82,1.91,3.02,2.82,4.96,2.07l1.09-.42c1.97-.76,4.18,.19,4.99,2.13l.16,.4c.79,1.92-.06,4.11-1.94,5Zm-44.74-8.35l-.13-2.64c0-.12,0-.24,0-.36l.24-5.38,.49-9.24c.14-2.58-2.24-4.57-4.76-3.98l-12.05,2.82c-1.52,.35-2.69,1.57-2.94,3.11-.29,1.77-.43,3.87-.43,6.28,0,5.05,1.01,8.8,3.03,11.24,2.02,2.44,4.46,3.66,7.32,3.66,2.07,0,4.39-.6,6.95-1.79,1.44-.67,2.34-2.14,2.27-3.72Z"/>
      <path class="cls-1" d="M891.43,153.96h0c1.1,1.23,1.24,3.04,.37,4.44-5.98,9.67-13.28,17.53-21.92,23.6-9.34,6.56-19.4,9.85-30.17,9.85-15.15,0-27.23-5.09-36.23-15.28-9.01-10.18-13.51-23.94-13.51-41.28,0-10.27,2.1-20.45,6.31-30.55,4.1-9.86,9.34-18.11,15.69-24.76,.31-.33,.68-.6,1.09-.79,5.53-2.71,11.31-4.8,17.32-6.26,6.23-1.51,12.2-2.27,17.93-2.27,9.93,0,18.77,2.7,26.51,8.08,6.93,4.82,12.64,11.6,17.15,20.32,.9,1.75,.26,3.91-1.44,4.9l-22.27,12.98c-1.96,1.14-4.47,.27-5.31-1.84-2.49-6.25-5.6-12.56-9.33-18.93-4.55-7.74-8.5-13.04-11.87-15.91-4.38,4.21-8.12,10.31-11.24,18.31-3.12,8-4.67,16.2-4.67,24.62,0,12.96,2.86,22.81,8.58,29.54,5.72,6.73,13.8,10.1,24.24,10.1,9.51,0,18.8-3.14,27.89-9.43,1.55-1.07,3.64-.83,4.89,.57Z"/>
      <path class="cls-1" d="M944.49,180.27l2.31,.19c1.98,.16,3.5,1.81,3.5,3.8h0c0,2.1-1.71,3.81-3.81,3.81h-46.67c-2.1,0-3.81-1.71-3.81-3.81h0c0-1.98,1.52-3.64,3.5-3.8l2.31-.19c1.99-.16,3.52-1.83,3.5-3.83l-.73-86.35-6.31,1.33c-1.88,.4-3.76-.67-4.39-2.49l-.15-.43c-.7-2.03,.42-4.25,2.48-4.88l39.05-12.08c1.69-.52,3.52,.19,4.42,1.72l1.48,2.54c.34,.59,.52,1.26,.52,1.95l-.72,98.69c-.01,2,1.51,3.66,3.5,3.82Zm-35.4-159.78l24.7-5.6c2.38-.54,4.65,1.27,4.65,3.72v20.73c0,1.89-1.38,3.49-3.25,3.77l-24.7,3.67c-2.3,.34-4.37-1.44-4.37-3.77V24.2c0-1.78,1.23-3.32,2.97-3.72Z"/>
      <path class="cls-1" d="M1055.09,85.55c10.27,9.93,15.4,24.07,15.4,42.42,0,7.91-1.39,16.08-4.17,24.49-2.73,8.29-6.73,15.59-12,21.92-.17,.2-.34,.39-.53,.57-5.33,5.09-11.5,9.17-18.53,12.23-7.16,3.11-14.69,4.67-22.6,4.67-16.83,0-30.39-4.96-40.65-14.9-10.27-9.93-15.4-24.07-15.4-42.42,0-7.74,1.43-15.82,4.29-24.24,2.82-8.28,6.86-15.59,12.12-21.92,.17-.2,.34-.39,.53-.57,5.32-5.09,11.5-9.21,18.53-12.36,7.15-3.2,14.6-4.8,22.35-4.8,16.83,0,30.38,4.97,40.65,14.9Zm-52.65,72.72c6.31,7.91,15.61,12.62,27.9,14.14,1.18-5.05,2.1-10.69,2.78-16.92,.67-6.23,1.01-11.36,1.01-15.4,0-16.16-3.16-28.15-9.47-35.98-6.31-7.83-15.53-12.5-27.65-14.01-1.18,5.22-2.15,10.94-2.9,17.17-.76,6.23-1.14,11.28-1.14,15.15,0,15.99,3.16,27.95,9.47,35.86Zm.51-110.79l25.39-34.42c2.15-2.91,6.39-3.2,8.91-.6l5.17,5.32c2.27,2.34,2.19,6.07-.16,8.32l-30.55,29.1c-2.45,2.34-6.37,2.11-8.54-.49h0c-1.72-2.07-1.81-5.05-.21-7.22Z"/>
      <path class="cls-1" d="M1196.74,184.25h0c0,2.11-1.71,3.82-3.81,3.82h-46.42c-2.1,0-3.81-1.71-3.81-3.81h0c0-1.98,1.52-3.64,3.5-3.8l2.34-.19c1.98-.16,3.5-1.81,3.5-3.8v-49.76c0-7.41-2.06-13.13-6.19-17.17-3.77-3.69-8.83-5.76-15.18-6.22-1.14-.08-2.26,.33-3.06,1.15l-5.83,6.01c-.68,.7-1.06,1.63-1.07,2.6l-.93,63.35c-.03,2.01,1.5,3.69,3.5,3.85l2.29,.19c1.98,.16,3.5,1.81,3.5,3.8h0c0,2.1-1.71,3.81-3.81,3.81h-46.67c-2.1,0-3.81-1.71-3.81-3.81h0c0-1.98,1.52-3.64,3.5-3.8l2.31-.19c1.99-.16,3.52-1.83,3.5-3.83l-.69-82.08c-.02-2.45-2.31-4.24-4.69-3.67l-1.56,.37c-1.92,.45-3.87-.63-4.49-2.5l-.19-.58c-.68-2.03,.45-4.21,2.49-4.84l32.55-10.09c2.01-.62,4.14,.5,4.76,2.5l7.7,24.65,19.81-28.4c.74-1.06,1.96-1.66,3.24-1.63,14.93,.32,26.02,4.1,33.26,11.34,7.58,7.57,11.36,19.28,11.36,35.1v59.87c0,1.98,1.52,3.63,3.49,3.8l2.1,.18c1.97,.16,3.49,1.82,3.49,3.8Z"/>
      <path class="cls-1" d="M1361.78,172.33l-31.74,17.17c-1.27,.69-2.83,.62-4-.21-3.54-2.51-6.19-5.66-7.98-9.44-2.11-4.46-3.33-10.23-3.66-17.3l-23.82,27.91c-.74,.87-1.84,1.38-2.98,1.35-9.02-.26-17.05-2.48-24.07-6.66-7.49-4.46-13.34-10.61-17.55-18.43-4.21-7.83-6.31-16.71-6.31-26.64,0-8.59,1.43-17.68,4.29-27.27,2.86-9.59,6.31-17.08,10.35-22.47,3.2-4.54,9-8.96,17.42-13.26,8.42-4.29,15.49-6.44,21.21-6.44,5.05,0,11.95,.84,20.71,2.53l-.45-39.76c-.03-2.42-2.26-4.21-4.63-3.71l-1.7,.36c-1.89,.4-3.79-.67-4.42-2.5l-.12-.35c-.71-2.06,.43-4.29,2.52-4.92l40-12.11c1.7-.51,3.53,.2,4.43,1.74l1.47,2.53c.35,.6,.53,1.28,.52,1.98l-1.5,129.73c0,6.06,.33,10.57,1.01,13.51,.36,1.57,.86,3.03,1.51,4.39,.92,1.92,3.19,2.77,5.12,1.87l.94-.44c1.95-.91,4.26-.04,5.13,1.92h0c.81,1.83,.08,3.98-1.68,4.93Zm-81.97-27.19c2.53,5.72,5.85,10.1,9.97,13.13,3.58,2.63,7.39,4.12,11.42,4.47,1.12,.1,2.23-.32,3.03-1.12l9.03-9.03c.73-.73,1.13-1.72,1.12-2.75l-.46-46.97c-.01-1.48-.88-2.83-2.22-3.45-10.16-4.66-19.94-7.85-29.37-9.58-4.21,9.59-6.31,21.3-6.31,35.1,0,7.74,1.26,14.48,3.79,20.2Z"/>
      <path class="cls-1" d="M1460.98,86.68c7.92,9.96,12.08,23.18,12.47,39.65,.05,2.02-1.55,3.71-3.58,3.77l-66.09,2.16c1.18,9.93,4.63,17.51,10.35,22.73,5.72,5.22,13.3,7.83,22.73,7.83,11.91,0,21.8-2.97,29.7-8.93,1.42-1.07,3.39-1.03,4.72,.15h0c1.31,1.17,1.62,3.1,.74,4.62-5.73,10.01-13.19,17.92-22.41,23.72-10.02,6.31-20.67,9.47-31.94,9.47-15.32,0-27.48-5.09-36.49-15.28-9.01-10.18-13.51-23.94-13.51-41.28,0-10.27,2.06-20.45,6.19-30.55,4.04-9.89,9.16-18.16,15.38-24.82,.27-.29,.57-.53,.91-.72,4.3-2.4,9.77-4.4,16.41-6.02,6.9-1.68,13.38-2.53,19.44-2.53,14.81,0,26.47,5.35,34.97,16.03Zm-28.35,35.27c1.97-.17,3.47-1.86,3.38-3.83-.43-10.13-2.08-18.29-4.95-24.49-2.72-5.86-6.4-9.72-11.06-11.57-1.49-.59-3.2-.18-4.22,1.06-3.46,4.19-6.32,9.67-8.58,16.45-2.61,7.83-3.91,15.87-3.91,24.11v.76l29.34-2.48Z"/>
      <path class="cls-1" d="M1481.27,180.46l2.31-.19c1.99-.16,3.52-1.83,3.5-3.83l-1.23-147.71-6.3,1.33c-1.88,.4-3.76-.67-4.39-2.49l-.14-.4c-.7-2.04,.43-4.26,2.5-4.89l40.05-12.12c1.69-.51,3.51,.2,4.39,1.73l1.49,2.56c.34,.59,.52,1.26,.52,1.95l-1.23,160.04c-.02,2,1.51,3.66,3.5,3.83l2.31,.19c1.98,.16,3.5,1.81,3.5,3.8h0c0,2.1-1.71,3.81-3.81,3.81h-46.67c-2.1,0-3.81-1.71-3.81-3.81h0c0-1.98,1.52-3.64,3.5-3.8Z"/>
      <path class="cls-1" d="M1701.99,23.33v41.25c0,2.5-2.06,4.5-4.55,4.44l-1.14-.03c-2.34-.06-4.23-1.92-4.32-4.26l-.24-6.12c-.06-1.47-.84-2.82-2.09-3.6-19.32-12.04-37.93-21.73-55.83-29.05V97.77c0,2.45,1.99,4.44,4.44,4.44h38.34c2.45,0,4.44,1.99,4.44,4.44v.46c0,2.45-1.99,4.44-4.44,4.44h-38.34c-2.45,0-4.44,1.99-4.44,4.44v58.58c0,2.44,1.96,4.42,4.4,4.44l18.22,.17c2.44,.02,4.4,2,4.4,4.44h0c0,2.45-1.99,4.44-4.44,4.44h-72.93c-2.45,0-4.44-1.99-4.44-4.44v-.05c0-2.42,1.93-4.39,4.35-4.44l3.67-.07c2.42-.05,4.35-2.02,4.35-4.44V32.33c0-2.42-1.93-4.39-4.35-4.44l-3.68-.08c-2.42-.05-4.35-2.02-4.35-4.44v-.05c0-2.45,1.99-4.44,4.44-4.44h114.09c2.45,0,4.44,1.99,4.44,4.44Z"/>
      <path class="cls-1" d="M1798.32,86.68c7.92,9.96,12.08,23.18,12.47,39.65,.05,2.02-1.55,3.71-3.58,3.77l-61.9,2.02c-2.29,.07-3.95,2.2-3.5,4.44,1.58,7.85,4.8,13.99,9.67,18.42,5.72,5.22,13.3,7.83,22.73,7.83,11.91,0,21.8-2.97,29.7-8.93,1.42-1.07,3.39-1.03,4.72,.15h0c1.31,1.17,1.62,3.1,.74,4.62-5.73,10.01-13.19,17.92-22.41,23.72-10.02,6.31-20.67,9.47-31.94,9.47-15.32,0-27.48-5.09-36.49-15.28-9.01-10.18-13.51-23.94-13.51-41.28,0-10.27,2.06-20.45,6.19-30.55,4.04-9.89,9.16-18.16,15.38-24.82,.27-.29,.57-.53,.92-.72,4.3-2.4,9.77-4.4,16.41-6.02,6.9-1.68,13.38-2.53,19.44-2.53,14.81,0,26.47,5.35,34.97,16.03Zm-28.35,35.27c1.97-.17,3.47-1.86,3.38-3.83-.43-10.13-2.08-18.29-4.95-24.49-3.2-6.9-7.75-11.02-13.63-12.37-4.21,4.38-7.62,10.48-10.23,18.31-2.61,7.83-3.91,15.87-3.91,24.11v.76l29.34-2.48Z"/>
      <path class="cls-1" d="M1857.9,105.75c3.62,3.71,9.13,8.08,16.54,13.13,9.09,6.23,15.99,11.87,20.71,16.92,4.71,5.05,7.07,11.28,7.07,18.68,0,6.57-1.94,12.71-5.81,18.43-3.88,5.72-9.34,10.31-16.41,13.76-7.07,3.45-15.15,5.18-24.24,5.18s-17.04-2.11-24.87-6.31c-4.83-2.6-8.88-5.64-12.14-9.14s-2.85-8.87,.82-11.82l8.31-6.67c3.82-3.07,9.49-2.05,11.97,2.18,5.28,9.01,10.67,16.65,16.16,22.92,2.86-2.19,5.26-4.75,7.2-7.7,1.93-2.94,2.9-5.85,2.9-8.71,0-4.71-1.73-8.79-5.18-12.25-3.45-3.45-8.8-7.61-16.03-12.5-5.89-3.87-10.6-7.24-14.14-10.1-3.54-2.86-6.53-6.31-8.96-10.35-2.44-4.04-3.66-8.58-3.66-13.63,0-6.23,2.06-12.2,6.19-17.93,4.12-5.72,9.89-10.35,17.3-13.89,7.41-3.54,15.82-5.3,25.25-5.3,7.24,0,14.1,1.56,20.58,4.67,3.36,1.62,6.4,3.45,9.1,5.5,3.89,2.94,4.21,8.69,.73,12.11l-7.49,7.39c-3.32,3.28-8.71,3.04-11.77-.49-6.58-7.61-13.67-14.56-21.26-20.85-2.86,3.71-4.29,8.5-4.29,14.39,0,4.54,1.81,8.67,5.43,12.37Z"/>
      <path class="cls-1" d="M1984.98,170.52l-26.24,18.93c-.8,.58-1.76,.89-2.75,.87-11.68-.24-20.22-3.31-25.63-9.2-5.64-6.14-8.46-16.03-8.46-29.67v-62.58c0-2.53-2.05-4.59-4.59-4.59h-7.74c-2.53,0-4.59-2.05-4.59-4.59v-.82c0-1.62,.85-3.12,2.25-3.94,6.45-3.77,13.4-8.86,20.86-15.27,7.56-6.49,14.52-13.29,20.91-20.4,1.2-1.33,3.04-1.87,4.76-1.35l2.14,.65c1.99,.6,3.33,2.48,3.26,4.56l-.96,26.56c-.09,2.6,1.99,4.76,4.59,4.76h20.19c2.53,0,4.59,2.05,4.59,4.59v1.35c0,2.57-2.1,4.63-4.67,4.59l-20.71-.35c-2.56-.04-4.67,2.02-4.67,4.59v53.41c0,8.08,1.55,13.97,4.67,17.67,2.81,3.34,6.48,5.18,11,5.5,.92,.07,1.83-.14,2.63-.59l4.21-2.39c2.21-1.25,5.01-.48,6.26,1.73h0c1.15,2.04,.59,4.62-1.31,5.99Z"/>
      <path class="cls-1" d="M2042.6,180.27l2.31,.19c1.98,.16,3.5,1.81,3.5,3.8h0c0,2.1-1.71,3.81-3.81,3.81h-46.67c-2.1,0-3.81-1.71-3.81-3.81h0c0-1.98,1.52-3.64,3.5-3.8l2.31-.19c1.99-.16,3.52-1.83,3.5-3.83l-.73-86.35-6.31,1.33c-1.88,.4-3.76-.67-4.39-2.49l-.15-.43c-.7-2.03,.42-4.25,2.48-4.88l39.05-12.08c1.69-.52,3.52,.19,4.42,1.72l1.48,2.54c.34,.59,.52,1.26,.52,1.95l-.72,98.69c-.01,2,1.51,3.66,3.5,3.82Zm-35.4-159.78l24.7-5.6c2.38-.54,4.65,1.27,4.65,3.72v20.73c0,1.89-1.38,3.49-3.25,3.77l-24.7,3.67c-2.3,.34-4.37-1.44-4.37-3.77V24.2c0-1.78,1.23-3.32,2.97-3.72Z"/>
      <path class="cls-1" d="M2171.38,78.53v.04c0,2.2-1.75,4.01-3.95,4.09l-.79,.03c-1.58,.05-2.99,1.02-3.61,2.47l-42.67,99.08c-.61,1.42-1.97,2.37-3.51,2.46l-19.99,1.19c-1.78,.11-3.43-.96-4.07-2.63l-37.87-99.94c-.58-1.54-2.04-2.58-3.68-2.64l-.66-.02c-2.2-.08-3.95-1.88-3.95-4.09v-.04c0-2.26,1.83-4.09,4.09-4.09h51.67c2.26,0,4.09,1.83,4.09,4.09h0c0,2.22-1.77,4.03-3.99,4.09l-1.34,.03c-2.67,.06-4.56,2.63-3.84,5.2l20.53,72.7,19.37-72.76c.68-2.56-1.21-5.08-3.85-5.14l-1.43-.03c-2.22-.05-3.99-1.87-3.99-4.09h0c0-2.26,1.83-4.09,4.09-4.09h35.25c2.26,0,4.09,1.83,4.09,4.09Z"/>
      <path class="cls-1" d="M2262.21,176.51l-31.6,14.83c-1.36,.64-3,.46-4.14-.53-2.46-2.13-4.4-4.67-5.84-7.64-.98-2.03-3.52-2.73-5.49-1.62-4.76,2.67-9.54,4.93-14.35,6.77-6.15,2.35-11.49,3.53-16.03,3.53-6.9,0-12.54-2.44-16.92-7.32-4.38-4.88-6.57-11.11-6.57-18.68,0-3.37,.38-7.03,1.14-10.98,.55-2.85,1.2-5.29,1.97-7.31,.5-1.31,1.64-2.27,3.03-2.49l48.39-7.76c1.78-.29,3.13-1.76,3.26-3.56l.29-4.25c.34-7.58-1.26-13.51-4.8-17.8-3.54-4.29-9.26-6.44-17.17-6.44-3.54,0-7.24,.38-11.11,1.14-3.18,.62-5.95,1.38-8.34,2.29-.95,.36-1.73,1.07-2.16,1.99l-1.88,3.99c-.86,1.82-2.97,2.69-4.86,1.99h0c-1.95-.72-2.98-2.84-2.35-4.82l9.94-31.12c.35-1.08,1.15-1.97,2.21-2.41,12.35-5.09,24.09-7.64,35.21-7.64,11.95,0,21.71,3.16,29.29,9.47,7.57,6.31,11.36,16.2,11.36,29.67l-.25,5.05-2.52,34.09-.5,8.96c0,.09,0,.17,0,.26,0,2.97,.26,5.32,.76,7.06,.2,.7,.45,1.41,.76,2.12,.82,1.91,3.02,2.82,4.96,2.07l1.09-.42c1.97-.76,4.18,.19,4.99,2.13l.16,.4c.79,1.92-.06,4.11-1.94,5Zm-44.74-8.35l-.13-2.64c0-.12,0-.24,0-.36l.24-5.38,.49-9.24c.14-2.58-2.24-4.57-4.76-3.98l-12.05,2.82c-1.52,.35-2.69,1.57-2.94,3.11-.29,1.77-.43,3.87-.43,6.28,0,5.05,1.01,8.8,3.03,11.24,2.02,2.44,4.46,3.66,7.32,3.66,2.07,0,4.39-.6,6.95-1.79,1.44-.67,2.34-2.14,2.27-3.72Z"/>
      <path class="cls-1" d="M2269.57,180.46l2.31-.19c1.99-.16,3.52-1.83,3.5-3.83l-1.19-143.05c-.02-2.41-2.24-4.19-4.59-3.7l-1.75,.37c-1.88,.4-3.76-.67-4.39-2.49l-.14-.4c-.7-2.04,.43-4.26,2.5-4.89l40.05-12.12c1.69-.51,3.51,.2,4.39,1.73l1.49,2.56c.34,.59,.52,1.26,.52,1.95l-1.23,160.04c-.02,2,1.51,3.66,3.5,3.83l2.31,.19c1.98,.16,3.5,1.81,3.5,3.8h0c0,2.1-1.71,3.81-3.81,3.81h-46.67c-2.1,0-3.81-1.71-3.81-3.81h0c0-1.98,1.52-3.64,3.5-3.8Z"/>
    </g>
  </g>
</svg>