<?xml version="1.0" encoding="UTF-8"?>
<svg id="Capa_2" data-name="Capa 2" xmlns="http://www.w3.org/2000/svg" viewBox="0 0 1100.01 245.5">
  <defs>
    <style>
      .cls-1 {
        fill: #f4fbff;
      }

      .cls-2 {
        fill: #fff;
      }

      .cls-3 {
        fill: #daf2fd;
      }

      .cls-4 {
        fill: #1e1e1e;
      }

      .cls-5 {
        fill: #3a3a3a;
      }
    </style>
  </defs>
  <g id="Capa_1-2" data-name="Capa 1">
    <path class="cls-4" d="M1083.79,118.62c8.94,0,16.22-7.28,16.22-16.22v-1.6c0-8.95-7.28-16.22-16.22-16.22h-18.45l.94-26.01c.27-7.35-4.46-13.98-11.51-16.11l-2.54-.77c-1.52-.46-3.1-.7-4.69-.7-4.6,0-9.01,1.97-12.1,5.41-7.24,8.07-15.25,15.88-23.82,23.24-8.31,7.14-16.11,12.86-23.18,16.99-1.35,.79-2.54,1.77-3.58,2.88-1.72-.99-3.48-1.95-5.32-2.83-9.13-4.38-18.92-6.61-29.09-6.61-12.76,0-24.41,2.47-34.62,7.34-10.4,4.96-18.69,11.66-24.63,19.91-1.16,1.61-2.18,3.25-3.13,4.9-1.81-3.2-3.83-6.23-6.08-9.06-12.19-15.33-29-23.1-49.95-23.1-8.01,0-16.63,1.11-25.63,3.3l-.27,.07c-12.42,3.06-23.59,9.98-31.97,19.58v-3.25c0-8.38-6.82-15.2-15.2-15.2h-15.56c-2.27-4.71-4.76-11.05-7.42-18.91-.03-.09-.06-.17-.09-.26,3.2,2.9,6.08,5.67,8.59,8.29,2.84,2.95,6.83,4.65,10.92,4.65,4.97,0,9.64-2.44,12.48-6.51l18.99-27.23c2.46-3.54,3.32-7.97,2.34-12.17-.97-4.18-3.68-7.76-7.43-9.83-6.57-3.62-13.87-6.67-21.71-9.04-9.86-2.99-19.84-4.51-29.66-4.51-6.58,0-13.65,1.53-21.02,4.55-7.18,2.95-13.74,7-19.5,12.06-6.07,5.32-10.39,11.4-12.84,18.04-.46,1.25-.76,2.55-.88,3.89-.19,2.13-.29,5.01-.29,8.79,0,6,.71,13.16,2.1,21.3,.42,2.45,.86,4.81,1.31,7.06-1.93,.28-3.73,.93-5.35,1.86l.7-60.01c.03-2.78-.69-5.52-2.09-7.9l-1.75-3c-2.74-4.69-7.81-7.61-13.24-7.61-1.5,0-3,.22-4.44,.66l-47.48,14.37c-3.96,1.2-7.32,4.01-9.21,7.7-1.89,3.69-2.19,8.05-.84,11.98l.14,.4c1.88,5.47,6.65,9.35,12.25,10.17l.32,27.75c-5.27-.7-9.79-1.05-13.66-1.05-8.6,0-18.44,2.89-30.07,8.82-11.61,5.92-19.63,12.14-24.5,19-4.53,6.08-8.37,13.72-11.68,23.14v-31.17c0-8.43-6.86-15.29-15.3-15.29h-44.01c-8.43,0-15.3,6.86-15.3,15.3,0,6.77,4.53,12.66,10.79,14.61v64.29l-5.88,5.47c-2.95-.62-5.28-1.88-7.2-3.89-2.68-2.8-4.04-7.3-4.04-13.37V99.87c0-8.43-6.86-15.29-15.3-15.29h-44.31c-8.43,0-15.29,6.86-15.29,15.29,0,.04,0,.08,0,.12-14.11-13.2-32.55-19.91-54.88-19.91-10.67,0-21.07,2.23-30.92,6.63-9.6,4.29-18.16,10.04-25.43,17.08l-.39,.38-.35,.42c-4.57,5.42-8.48,11.43-11.7,17.94l.74-96c.02-2.74-.7-5.45-2.08-7.83l-1.77-3.03c-2.73-4.68-7.79-7.59-13.21-7.59-1.5,0-3,.22-4.43,.66l-47.54,14.39c-3.96,1.2-7.31,4-9.19,7.68-.1,.19-.17,.39-.26,.59-3.33-2.31-6.83-4.44-10.54-6.34-14.17-7.25-29.89-10.92-46.72-10.92-12.37,0-25.06,1.92-37.71,5.7-12.38,3.7-24.15,9.1-34.98,16.03-.96,.62-1.86,1.32-2.68,2.11-11.22,10.74-20.53,24.99-27.66,42.34C3.65,97.82,0,116.19,0,134.91c0,21.76,4.11,41.11,12.2,57.52,8.28,16.78,20.18,29.98,35.39,39.21,15.14,9.19,33,13.85,53.1,13.85,31,0,59.06-13.38,83.52-39.78l.04,5.31c-6.37,1.88-11.01,7.82-11.01,14.68,0,8.43,6.86,15.29,15.29,15.29h55.4c8.43,0,15.3-6.86,15.3-15.29,0-.56-.04-1.11-.1-1.66,.24,.24,.47,.5,.72,.74,14.2,13.75,32.96,20.72,55.75,20.72,10.83,0,21.3-2.17,31.13-6.44,9.64-4.2,18.23-9.91,25.53-16.98l.39-.38,.35-.42c5.18-6.15,9.48-13.05,12.87-20.58,2.57,11.5,7.37,20.87,14.39,27.96,10.6,10.72,26.3,16.37,46.67,16.81h.21s.12,0,.12,0c5.01,0,9.71-2.48,12.57-6.63l10.11-14.7c.1,.21,.21,.42,.31,.63,3.5,6.89,8.76,12.55,15.62,16.83,2.42,1.51,5.22,2.31,8.08,2.31,2.65,0,5.27-.69,7.57-2l35.72-20.3c4.78,5.72,10.46,10.55,16.98,14.43,9.89,5.89,21.26,9.06,33.78,9.43h.42c4.46,0,8.7-1.96,11.62-5.38l14.04-16.45c.21,.49,.43,.97,.65,1.44,2.89,6.14,7.23,11.3,12.91,15.35,2.6,1.85,5.67,2.83,8.87,2.83,2.55,0,5.08-.64,7.31-1.85l28.77-15.57c.02,8.36,6.83,15.16,15.2,15.16h67.57c8.38,0,15.2-6.82,15.2-15.2,0-.88-.09-1.73-.23-2.57,.14,.16,.27,.33,.42,.5,12.77,14.45,30.06,21.77,51.39,21.77,15.39,0,30.08-4.34,43.66-12.9,6.02-3.79,11.5-8.29,16.44-13.44,.85,1.65,1.9,3.19,3.18,4.57,4.66,4.99,10.44,9.37,17.19,12.99,10.84,5.82,22.49,8.78,34.62,8.78s23.65-2.43,33.5-7.23c10.07-4.91,18.03-11.63,23.68-19.98,3.4-5.02,5.78-10.33,7.2-15.86,1.77,11.34,5.65,20.21,11.75,26.84,8.45,9.21,21.28,14.06,38.12,14.41h.34c3.4,0,6.67-1.06,9.46-3.07l31.15-22.47c6.72-4.85,8.71-13.94,4.62-21.16-2.87-5.07-8.28-8.22-14.12-8.22-2.8,0-5.57,.73-8,2.11l-3.47,1.97c-1.71-.36-3-1.15-4.16-2.53-.91-1.08-3.01-4.6-3.01-14.04v-57.99l19.45,.32ZM176.94,171.1c-4,0-7.87,1.42-10.92,3.99-4.91,4.16-10.2,7.49-15.7,9.91-6.78,2.98-13.9,4.49-21.15,4.49-17.34,0-30.26-5.47-39.47-16.73-9.62-11.75-14.5-29.12-14.5-51.63,0-11.96,1.88-23.61,5.58-34.64,3.66-10.88,8.72-20.33,15.06-28.08,3.81-4.66,7.88-8.45,12.14-11.34,10.5,15.69,19.88,30.64,27.95,44.54,3.04,5.23,8.68,8.48,14.74,8.48,3.99,0,7.88-1.42,10.94-3.98l21.53-18.03,.79,94.53c-2.18-.98-4.56-1.5-7-1.5Zm71.28,39.93v-1.4c.34,.59,.69,1.17,1.03,1.75-.34-.13-.68-.25-1.03-.35Zm80.95-20.63c-.32,2.93-.69,5.76-1.11,8.47-6.86-2.19-12.2-5.73-16.18-10.73-5.9-7.39-8.89-19.45-8.89-35.84,0-4.14,.43-9.75,1.27-16.68,.37-3.06,.79-6.03,1.26-8.88,6.71,2.17,11.97,5.68,15.93,10.59,5.87,7.29,8.85,19.38,8.85,35.95,0,4.37-.38,10.13-1.14,17.12Zm273.56-1.46c-1.84-.53-3.64-1.44-5.44-2.77-3.33-2.45-6.15-6.23-8.36-11.25-2.38-5.37-3.58-11.98-3.58-19.63,0-10.97,1.22-20.72,3.62-29.07,6.44,1.71,13.09,4.05,19.86,6.97l.49,49.16-6.59,6.59Zm78.79-71.73h1.64l.41,78.2c-2.63-2.03-5.9-3.19-9.36-3.19-.25,0-.49,0-.74,.02-.3-2.13-.6-5.74-.6-11.64l.76-65.62c2.3,1.4,4.99,2.23,7.88,2.23Zm74.46,93.4l-8.41-.33,.49-92.09,10.4,.36c.18,0,.35,0,.53,0,2.01,0,3.93-.4,5.69-1.12-1.6,3.13-3.11,6.41-4.5,9.8-5.4,13.22-8.14,26.8-8.14,40.35,0,17.49,3.59,32.53,10.68,44.89-2.01-1.1-4.29-1.78-6.74-1.87Zm63.96-82.03c1.44-4.33,3.1-8.1,4.97-11.29,1.22,1.37,2.34,3.15,3.37,5.36,2.23,4.83,3.73,11.16,4.47,18.89l-16.15,1.37c.67-4.86,1.79-9.65,3.35-14.33Zm90.21,52.98c-4.61,0-9.13,1.59-12.72,4.48l-.84,.67c-.85-1.83-2.06-3.52-3.64-4.92-2.77-2.46-6.34-3.82-10.05-3.82-3.29,0-6.54,1.09-9.18,3.08-7.52,5.68-16.93,8.44-28.78,8.44-8.49,0-14.94-2.12-19.72-6.48-2.51-2.29-4.49-5.16-5.97-8.68l65.22-2.13c4.42-.14,8.34-2.2,11.02-5.34,1.67,1.75,3.44,3.39,5.31,4.9,3.82,3.09,8.53,6.52,14.35,10.43-1.62-.41-3.3-.63-5-.63Zm27.88,25.97c-3.47-4.78-6.96-10.14-10.37-15.96-.24-.41-.5-.82-.77-1.21,3.76,2.82,6.73,5.32,8.88,7.46,2.07,2.07,2.99,4.21,2.99,6.93,0,.82-.24,1.74-.74,2.78Zm9.47-82.55c-1.46-1.5-2.3-2.85-2.78-4.03,3.17,3.15,6.28,6.43,9.27,9.81-2.62-2.11-4.79-4.04-6.49-5.79Zm44.39,35.85c-6.19-6.63-14.81-13.7-26.39-21.64-.29-.19-.57-.39-.85-.58,2.01,.65,4.13,1,6.28,1,5.39,0,10.46-2.08,14.3-5.87l8.88-8.77c2.08-2.05,3.66-4.5,4.69-7.16h1.71v56.95c-1.88-5.12-4.76-9.78-8.63-13.92Z"/>
    <path class="cls-5" d="M1083.79,110.54c8.94,0,16.22-7.28,16.22-16.22v-1.6c0-8.95-7.28-16.22-16.22-16.22h-18.45l.94-26.01c.27-7.35-4.46-13.98-11.51-16.11l-2.54-.77c-1.52-.46-3.1-.7-4.69-.7-4.6,0-9.01,1.97-12.1,5.41-7.24,8.07-15.25,15.88-23.82,23.24-8.31,7.14-16.11,12.86-23.18,16.99-1.35,.79-2.54,1.77-3.58,2.88-1.72-.99-3.48-1.95-5.32-2.83-9.13-4.38-18.92-6.61-29.09-6.61-12.76,0-24.41,2.47-34.62,7.34-10.4,4.96-18.69,11.66-24.63,19.91-1.16,1.61-2.18,3.25-3.13,4.9-1.81-3.2-3.83-6.23-6.08-9.06-12.19-15.33-29-23.1-49.95-23.1-8.01,0-16.63,1.11-25.63,3.3l-.27,.07c-12.42,3.06-23.59,9.98-31.97,19.58v-3.25c0-8.38-6.82-15.2-15.2-15.2h-15.56c-2.27-4.71-4.76-11.05-7.42-18.91-.03-.09-.06-.17-.09-.26,3.2,2.9,6.08,5.67,8.59,8.29,2.84,2.95,6.83,4.65,10.92,4.65,4.97,0,9.64-2.44,12.48-6.51l18.99-27.23c2.46-3.54,3.32-7.97,2.34-12.17-.97-4.18-3.68-7.76-7.43-9.83-6.57-3.62-13.87-6.67-21.71-9.04-9.86-2.99-19.84-4.51-29.66-4.51-6.58,0-13.65,1.53-21.02,4.55-7.18,2.95-13.74,7-19.5,12.06-6.07,5.32-10.39,11.4-12.84,18.04-.46,1.25-.76,2.55-.88,3.89-.19,2.13-.29,5.01-.29,8.79,0,6,.71,13.16,2.1,21.3,.42,2.45,.86,4.81,1.31,7.06-1.93,.28-3.73,.93-5.35,1.86l.7-60.01c.03-2.78-.69-5.52-2.09-7.9l-1.75-3C668.09,2.92,663.02,0,657.59,0c-1.5,0-3,.22-4.44,.66l-47.48,14.37c-3.96,1.2-7.32,4.01-9.21,7.7-1.89,3.69-2.19,8.05-.84,11.98l.14,.4c1.88,5.47,6.65,9.35,12.25,10.17l.32,27.75c-5.27-.7-9.79-1.05-13.66-1.05-8.6,0-18.44,2.89-30.07,8.82-11.61,5.92-19.63,12.14-24.5,19-4.53,6.08-8.37,13.72-11.68,23.14v-31.17c0-8.43-6.86-15.29-15.3-15.29h-44.01c-8.43,0-15.3,6.86-15.3,15.3,0,6.77,4.53,12.66,10.79,14.61v64.29l-5.88,5.47c-2.95-.62-5.28-1.88-7.2-3.89-2.68-2.8-4.04-7.3-4.04-13.37V91.79c0-8.43-6.86-15.29-15.3-15.29h-44.31c-8.43,0-15.29,6.86-15.29,15.29,0,.04,0,.08,0,.12-14.11-13.2-32.55-19.91-54.88-19.91-10.67,0-21.07,2.23-30.92,6.63-9.6,4.29-18.16,10.04-25.43,17.08l-.39,.38-.35,.42c-4.57,5.42-8.48,11.43-11.7,17.94l.74-96c.02-2.74-.7-5.45-2.08-7.83l-1.77-3.03c-2.73-4.68-7.79-7.59-13.21-7.59-1.5,0-3,.22-4.43,.66l-47.54,14.39c-3.96,1.2-7.31,4-9.19,7.68-.1,.19-.17,.39-.26,.59-3.33-2.31-6.83-4.44-10.54-6.34-14.17-7.25-29.89-10.92-46.72-10.92-12.37,0-25.06,1.92-37.71,5.7-12.38,3.7-24.15,9.1-34.98,16.03-.96,.62-1.86,1.32-2.68,2.11-11.22,10.74-20.53,24.99-27.66,42.34C3.65,89.74,0,108.11,0,126.83c0,21.76,4.11,41.11,12.2,57.52,8.28,16.78,20.18,29.98,35.39,39.21,15.14,9.19,33,13.85,53.1,13.85,31,0,59.06-13.38,83.52-39.78l.04,5.31c-6.37,1.88-11.01,7.82-11.01,14.68,0,8.43,6.86,15.29,15.29,15.29h55.4c8.43,0,15.3-6.86,15.3-15.29,0-.56-.04-1.11-.1-1.66,.24,.24,.47,.5,.72,.74,14.2,13.75,32.96,20.72,55.75,20.72,10.83,0,21.3-2.17,31.13-6.44,9.64-4.2,18.23-9.91,25.53-16.98l.39-.38,.35-.42c5.18-6.15,9.48-13.05,12.87-20.58,2.57,11.5,7.37,20.87,14.39,27.96,10.6,10.72,26.3,16.37,46.67,16.81h.21s.12,0,.12,0c5.01,0,9.71-2.48,12.57-6.63l10.11-14.7c.1,.21,.21,.42,.31,.63,3.5,6.89,8.76,12.55,15.62,16.83,2.42,1.51,5.22,2.31,8.08,2.31,2.65,0,5.27-.69,7.57-2l35.72-20.3c4.78,5.72,10.46,10.55,16.98,14.43,9.89,5.89,21.26,9.06,33.78,9.43h.42c4.46,0,8.7-1.96,11.62-5.38l14.04-16.45c.21,.49,.43,.97,.65,1.44,2.89,6.14,7.23,11.3,12.91,15.35,2.6,1.85,5.67,2.83,8.87,2.83,2.55,0,5.08-.64,7.31-1.85l28.77-15.57c.02,8.36,6.83,15.16,15.2,15.16h67.57c8.38,0,15.2-6.82,15.2-15.2,0-.88-.09-1.73-.23-2.57,.14,.16,.27,.33,.42,.5,12.77,14.45,30.06,21.77,51.39,21.77,15.39,0,30.08-4.34,43.66-12.9,6.02-3.79,11.5-8.29,16.44-13.44,.85,1.65,1.9,3.19,3.18,4.57,4.66,4.99,10.44,9.37,17.19,12.99,10.84,5.82,22.49,8.78,34.62,8.78s23.65-2.43,33.5-7.23c10.07-4.91,18.03-11.63,23.68-19.98,3.4-5.02,5.78-10.33,7.2-15.86,1.77,11.34,5.65,20.21,11.75,26.84,8.45,9.21,21.28,14.06,38.12,14.41h.34c3.4,0,6.67-1.06,9.46-3.07l31.15-22.47c6.72-4.85,8.71-13.94,4.62-21.16-2.87-5.07-8.28-8.22-14.12-8.22-2.8,0-5.57,.73-8,2.11l-3.47,1.97c-1.71-.36-3-1.15-4.16-2.53-.91-1.08-3.01-4.6-3.01-14.04v-57.99l19.45,.32ZM176.94,163.02c-4,0-7.87,1.42-10.92,3.99-4.91,4.16-10.2,7.49-15.7,9.91-6.78,2.98-13.9,4.49-21.15,4.49-17.34,0-30.26-5.47-39.47-16.73-9.62-11.75-14.5-29.12-14.5-51.63,0-11.96,1.88-23.61,5.58-34.64,3.66-10.88,8.72-20.33,15.06-28.08,3.81-4.66,7.88-8.45,12.14-11.34,10.5,15.69,19.88,30.64,27.95,44.54,3.04,5.23,8.68,8.48,14.74,8.48,3.99,0,7.88-1.42,10.94-3.98l21.53-18.03,.79,94.53c-2.18-.98-4.56-1.5-7-1.5Zm71.28,39.93v-1.4c.34,.59,.69,1.17,1.03,1.75-.34-.13-.68-.25-1.03-.35Zm80.95-20.63c-.32,2.93-.69,5.76-1.11,8.47-6.86-2.19-12.2-5.73-16.18-10.73-5.9-7.39-8.89-19.45-8.89-35.84,0-4.14,.43-9.75,1.27-16.68,.37-3.06,.79-6.03,1.26-8.88,6.71,2.17,11.97,5.68,15.93,10.59,5.87,7.29,8.85,19.38,8.85,35.95,0,4.37-.38,10.13-1.14,17.12Zm273.56-1.46c-1.84-.53-3.64-1.44-5.44-2.77-3.33-2.45-6.15-6.23-8.36-11.25-2.38-5.37-3.58-11.98-3.58-19.63,0-10.97,1.22-20.72,3.62-29.07,6.44,1.71,13.09,4.05,19.86,6.97l.49,49.16-6.59,6.59Zm78.79-71.73h1.64l.41,78.2c-2.63-2.03-5.9-3.19-9.36-3.19-.25,0-.49,0-.74,.02-.3-2.13-.6-5.74-.6-11.64l.76-65.62c2.3,1.4,4.99,2.23,7.88,2.23Zm74.46,93.4l-8.41-.33,.49-92.09,10.4,.36c.18,0,.35,0,.53,0,2.01,0,3.93-.4,5.69-1.12-1.6,3.13-3.11,6.41-4.5,9.8-5.4,13.22-8.14,26.8-8.14,40.35,0,17.49,3.59,32.53,10.68,44.89-2.01-1.1-4.29-1.78-6.74-1.87Zm63.96-82.03c1.44-4.33,3.1-8.1,4.97-11.29,1.22,1.37,2.34,3.15,3.37,5.36,2.23,4.83,3.73,11.16,4.47,18.89l-16.15,1.37c.67-4.86,1.79-9.65,3.35-14.33Zm90.21,52.98c-4.61,0-9.13,1.59-12.72,4.48l-.84,.67c-.85-1.83-2.06-3.52-3.64-4.92-2.77-2.46-6.34-3.82-10.05-3.82-3.29,0-6.54,1.09-9.18,3.08-7.52,5.68-16.93,8.44-28.78,8.44-8.49,0-14.94-2.12-19.72-6.48-2.51-2.29-4.49-5.16-5.97-8.68l65.22-2.13c4.42-.14,8.34-2.2,11.02-5.34,1.67,1.75,3.44,3.39,5.31,4.9,3.82,3.09,8.53,6.52,14.35,10.43-1.62-.41-3.3-.63-5-.63Zm27.88,25.97c-3.47-4.78-6.96-10.14-10.37-15.96-.24-.41-.5-.82-.77-1.21,3.76,2.82,6.73,5.32,8.88,7.46,2.07,2.07,2.99,4.21,2.99,6.93,0,.82-.24,1.74-.74,2.78Zm9.47-82.55c-1.46-1.5-2.3-2.85-2.78-4.03,3.17,3.15,6.28,6.43,9.27,9.81-2.62-2.11-4.79-4.04-6.49-5.79Zm44.39,35.85c-6.19-6.63-14.81-13.7-26.39-21.64-.29-.19-.57-.39-.85-.58,2.01,.65,4.13,1,6.28,1,5.39,0,10.46-2.08,14.3-5.87l8.88-8.77c2.08-2.05,3.66-4.5,4.69-7.16h1.71v56.95c-1.88-5.12-4.76-9.78-8.63-13.92Z"/>
    <g>
      <path class="cls-2" d="M365.96,100.46c12.19,11.79,18.28,28.58,18.28,50.36,0,9.4-1.65,19.09-4.95,29.08-3.3,10-8.14,18.79-14.54,26.38-6.4,6.2-13.84,11.14-22.33,14.84-8.5,3.7-17.44,5.54-26.83,5.54-19.98,0-36.07-5.89-48.26-17.68-12.19-11.79-18.28-28.57-18.28-50.36,0-9.19,1.7-18.78,5.1-28.78,3.4-9.99,8.29-18.78,14.69-26.38,6.39-6.19,13.83-11.19,22.33-14.99,8.49-3.79,17.33-5.69,26.53-5.69,19.98,0,36.07,5.9,48.26,17.68Zm-62.5,86.33c7.49,9.4,18.53,14.99,33.12,16.79,1.4-6,2.5-12.69,3.3-20.08,.8-7.39,1.2-13.49,1.2-18.29,0-19.18-3.75-33.42-11.24-42.71-7.49-9.29-18.43-14.84-32.82-16.64-1.4,6.2-2.55,12.99-3.45,20.38-.9,7.39-1.35,13.39-1.35,17.98,0,18.99,3.75,33.17,11.24,42.56Z"/>
      <path class="cls-2" d="M154.65,186.78c6.48-2.85,12.59-6.7,18.33-11.55,2.57-2.17,6.42-1.85,8.66,.66h0c2.09,2.33,2.15,5.84,.14,8.24-23.76,28.35-50.78,42.52-81.08,42.52-18.19,0-34.02-4.1-47.51-12.29-13.49-8.19-23.93-19.78-31.32-34.77-7.4-14.99-11.09-32.57-11.09-52.76,0-17.39,3.34-34.22,10.04-50.51,6.59-16.03,14.97-28.92,25.15-38.66,.32-.31,.67-.58,1.04-.82,10.03-6.42,20.79-11.34,32.26-14.78,11.69-3.49,23.23-5.25,34.62-5.25,15.18,0,29.12,3.25,41.81,9.74,10.82,5.54,19.72,12.94,26.69,22.19,2.02,2.68,1.6,6.47-.97,8.63l-26.72,22.38c-2.98,2.5-7.49,1.72-9.45-1.65-9.62-16.56-20.87-34.29-33.77-53.19-8.8,3.6-16.79,9.79-23.98,18.58-7.19,8.8-12.84,19.29-16.94,31.47-4.1,12.19-6.14,24.88-6.14,38.07,0,25.18,5.64,44.66,16.94,58.45,11.29,13.79,27.23,20.68,47.81,20.68,8.79,0,17.28-1.8,25.48-5.4Z"/>
      <path class="cls-2" d="M188.18,213.12l2.74-.22c2.36-.19,4.18-2.17,4.16-4.55l-1.42-169.82c-.02-2.86-2.66-4.98-5.45-4.39l-2.08,.44c-2.23,.47-4.46-.8-5.21-2.95l-.16-.48c-.84-2.42,.51-5.06,2.96-5.8l47.54-14.39c2-.61,4.16,.24,5.22,2.05l1.77,3.04c.41,.7,.62,1.5,.62,2.31l-1.46,189.99c-.02,2.37,1.8,4.35,4.16,4.54l2.74,.22c2.35,.19,4.16,2.15,4.16,4.51h0c0,2.5-2.02,4.52-4.52,4.52h-55.4c-2.5,0-4.52-2.02-4.52-4.52h0c0-2.36,1.81-4.32,4.16-4.51Z"/>
      <path class="cls-2" d="M1086.17,201.33l-31.15,22.47c-.95,.68-2.1,1.06-3.27,1.04-13.86-.29-24-3.92-30.41-10.92-6.7-7.29-10.04-19.03-10.04-35.22V104.41c0-3.01-2.44-5.45-5.45-5.45h-9.19c-3.01,0-5.45-2.44-5.45-5.45v-.97c0-1.92,1.01-3.71,2.67-4.68,7.65-4.48,15.91-10.52,24.76-18.12,8.97-7.7,17.24-15.77,24.82-24.22,1.42-1.58,3.61-2.21,5.65-1.6l2.54,.77c2.37,.72,3.95,2.94,3.86,5.41l-1.35,37.17h29.62c3.01,0,5.45,2.44,5.45,5.45v1.6c0,3.05-2.5,5.5-5.54,5.45l-30.13-.51v68.94c0,9.59,1.85,16.59,5.54,20.98,3.32,3.95,7.65,6.12,12.98,6.53,1.11,.08,2.23-.14,3.2-.69l5-2.84c2.62-1.49,5.95-.57,7.43,2.05h0c1.37,2.42,.7,5.48-1.55,7.11Z"/>
      <path class="cls-2" d="M725.8,61.04c3.57,10.55,6.88,18.54,9.92,23.99,.78,1.39,2.26,2.23,3.85,2.23h19.42c2.45,0,4.43,1.98,4.43,4.43v3.57c0,2.51-2.08,4.51-4.58,4.43l-16.93-.58c-2.5-.09-4.57,1.91-4.58,4.4l-.55,104.76c-.01,2.39,1.87,4.36,4.26,4.45l14.54,.57c2.38,.09,4.26,2.05,4.26,4.43h0c0,2.45-1.98,4.43-4.43,4.43h-67.57c-2.45,0-4.43-1.98-4.43-4.43v-.18c0-2.31,1.77-4.23,4.07-4.42l2.92-.24c2.31-.19,4.09-2.12,4.07-4.44l-.55-105.69c-.01-2.44-1.99-4.41-4.43-4.41h-7.95c-2.45,0-4.43-1.98-4.43-4.43v-2.23c0-2.45,1.98-4.43,4.43-4.43h5.67c2.88,0,4.99-2.69,4.3-5.48-1.03-4.15-1.98-8.82-2.86-14-1.3-7.59-1.95-14.09-1.95-19.48,0-3.41,.08-6.02,.24-7.82,.03-.39,.12-.76,.25-1.12,1.84-4.98,5.12-9.54,9.84-13.69,4.89-4.29,10.39-7.69,16.49-10.19,6.09-2.5,11.74-3.75,16.93-3.75,8.79,0,17.63,1.35,26.53,4.05,7.16,2.17,13.7,4.9,19.63,8.17,2.29,1.26,2.95,4.26,1.46,6.4l-18.99,27.23c-1.59,2.28-4.87,2.56-6.8,.56-3.94-4.09-8.62-8.47-14.03-13.13-7.19-6.19-13.99-11.49-20.38-15.89,1.2,9.19,3.85,19.83,7.94,31.92Z"/>
      <path class="cls-2" d="M939.81,124.44c4.29,4.4,10.84,9.59,19.63,15.59,10.79,7.4,18.98,14.09,24.58,20.08,5.59,6,8.39,13.39,8.39,22.18,0,7.79-2.3,15.09-6.89,21.88-4.6,6.8-11.09,12.24-19.48,16.34-8.39,4.09-17.98,6.14-28.78,6.14s-20.23-2.5-29.52-7.49c-5.74-3.08-10.54-6.7-14.41-10.85-3.81-4.08-3.38-10.53,.98-14.03l9.86-7.91c4.54-3.64,11.27-2.43,14.21,2.58,4.01,6.83,8.07,13,12.17,18.51,3.89,5.22,11.89,5.09,15.49-.33,.02-.03,.05-.07,.07-.1,2.29-3.49,3.45-6.94,3.45-10.34,0-5.59-2.05-10.44-6.14-14.54-4.1-4.09-10.44-9.04-19.04-14.84-7-4.6-12.59-8.59-16.79-11.99-4.2-3.4-7.75-7.49-10.64-12.29-2.9-4.8-4.35-10.19-4.35-16.19,0-7.39,2.44-14.49,7.34-21.28,4.89-6.79,11.74-12.29,20.53-16.49,8.79-4.2,18.78-6.29,29.97-6.29,8.59,0,16.73,1.85,24.43,5.54,4,1.93,7.61,4.11,10.83,6.54,4.61,3.49,4.96,10.3,.84,14.36l-8.89,8.77c-3.92,3.87-10.31,3.65-13.91-.52-4.52-5.24-9.25-10.21-14.18-14.92-6.03-5.76-16.12-1.65-16.21,6.69,0,.17,0,.33,0,.5,0,5.4,2.14,10.29,6.44,14.69Z"/>
      <path class="cls-2" d="M873.57,101.8c9.4,11.82,14.33,27.5,14.8,47.03,.06,2.41-1.84,4.43-4.25,4.51l-73.48,2.4c-2.72,.09-4.7,2.61-4.16,5.27,1.88,9.31,5.7,16.6,11.48,21.87,6.79,6.2,15.78,9.29,26.98,9.29,14.14,0,25.9-3.54,35.27-10.61,1.68-1.27,4.01-1.2,5.58,.19h0c1.56,1.39,1.92,3.68,.88,5.49-6.8,11.88-15.66,21.27-26.6,28.16-11.89,7.49-24.53,11.24-37.92,11.24-18.19,0-32.62-6.04-43.31-18.13-10.69-12.09-16.04-28.43-16.04-49.01,0-12.19,2.44-24.28,7.34-36.27,1.8-4.42,3.79-8.56,5.96-12.43,6.97-12.45,18.76-21.56,32.62-24.97,.08-.02,.16-.04,.25-.06,8.19-2,15.89-3,23.08-3,17.58,0,31.42,6.35,41.51,19.03Zm-33.66,41.86c2.34-.2,4.12-2.22,4.02-4.57-.51-12.01-2.47-21.69-5.87-29.05-3.22-6.95-7.6-11.53-13.13-13.74-1.77-.71-3.81-.22-5.03,1.26-4.1,4.98-7.5,11.48-10.18,19.52-3.1,9.29-4.64,18.84-4.64,28.62v.9l34.83-2.95Z"/>
      <path class="cls-2" d="M676.39,203.48l-37.67,20.38c-1.52,.83-3.4,.73-4.81-.28-4.17-2.97-7.31-6.7-9.42-11.17-2.5-5.29-3.95-12.14-4.35-20.53l-28.28,33.14c-.88,1.03-2.18,1.64-3.54,1.6-10.71-.31-20.24-2.95-28.57-7.91-8.89-5.29-15.84-12.59-20.83-21.88-5-9.29-7.49-19.83-7.49-31.62,0-10.19,1.7-20.98,5.1-32.37,3.4-11.39,7.49-20.28,12.29-26.68,3.79-5.4,10.69-10.64,20.68-15.74,9.99-5.1,18.38-7.64,25.18-7.64,6,0,14.19,1,24.58,3l-.54-47.2c-.03-2.87-2.68-5-5.5-4.41l-2.02,.43c-2.25,.47-4.5-.8-5.25-2.97l-.14-.41c-.84-2.44,.51-5.1,2.99-5.85l47.48-14.37c2.02-.61,4.19,.24,5.26,2.06l1.75,3c.42,.71,.63,1.52,.62,2.35l-1.79,154.01c0,7.19,.4,12.54,1.2,16.04,.42,1.86,1.02,3.6,1.79,5.21,1.09,2.28,3.78,3.29,6.07,2.22l1.12-.52c2.31-1.08,5.06-.05,6.09,2.28h0c.97,2.17,.1,4.73-2,5.86Zm-97.31-32.28c3,6.8,6.94,11.99,11.84,15.59,4.25,3.13,8.78,4.9,13.56,5.3,1.33,.11,2.65-.38,3.59-1.33l10.71-10.71c.87-.87,1.35-2.04,1.33-3.27l-.55-55.76c-.02-1.76-1.04-3.36-2.64-4.09-10.7-4.91-21.06-8.44-31.07-10.61-2.21-.48-4.45,.71-5.25,2.82-4.03,10.68-6.03,23.38-6.03,38.09,0,9.19,1.5,17.19,4.5,23.98Z"/>
      <path class="cls-2" d="M532.29,203.96l-36.08,20.5c-1.44,.82-3.22,.79-4.63-.08-5.2-3.24-9.1-7.43-11.71-12.57-3-5.89-4.5-13.44-4.5-22.63l-24.41,35.48c-.85,1.24-2.28,1.99-3.79,1.96-17.56-.38-30.64-4.91-39.25-13.61-8.99-9.09-13.49-23.13-13.49-42.11V101.03c0-2.36-1.81-4.32-4.16-4.51l-2.78-.23c-2.35-.19-4.16-2.15-4.16-4.51h0c0-2.5,2.02-4.52,4.52-4.52h44.31c2.5,0,4.52,2.02,4.52,4.52v67.12c0,8.99,2.35,15.94,7.04,20.83,4.26,4.45,9.81,6.96,16.64,7.53,1.29,.11,2.56-.32,3.51-1.2l10.04-9.34c.92-.86,1.44-2.06,1.44-3.31V101.02c0-2.35-1.8-4.31-4.15-4.51l-2.5-.21c-2.34-.2-4.15-2.15-4.15-4.51h0c0-2.51,2.02-4.53,4.52-4.53h44.01c2.5,0,4.52,2.02,4.52,4.52v80.01c0,7.4,.45,12.89,1.35,16.49,.48,1.92,1.11,3.69,1.91,5.33,1.11,2.29,3.85,3.26,6.13,2.12l.78-.39c2.41-1.21,5.34-.05,6.27,2.49l.24,.65c.76,2.08-.09,4.4-2.01,5.49Z"/>
    </g>
    <path class="cls-3" d="M637.57,215.93c-4.08-4.2-7.66-10.21-10.75-18.02l-4.04,10.17c.51,1.55,1.08,2.99,1.71,4.34,2.1,4.47,5.24,8.19,9.41,11.16,1.41,1.01,3.29,1.1,4.81,.28l5.4-2.92c-2.42-1.32-4.61-3-6.54-5.01Z"/>
    <path class="cls-1" d="M758.98,87.27h-7.65l8.85,.31c.12,0,.26,0,.38-.01-.48-.19-1.02-.3-1.58-.3Z"/>
    <path class="cls-3" d="M183.25,180.11c0,1.43-.48,2.85-1.47,4.01-23.77,28.35-50.8,42.53-81.09,42.53-18.18,0-34.02-4.09-47.51-12.29-13.48-8.19-23.93-19.78-31.32-34.77-7.39-14.97-11.08-32.56-11.08-52.75,0-7,.54-13.9,1.63-20.71-.19,2.84-.28,5.71-.28,8.59,0,20.19,3.69,37.77,11.08,52.75,7.39,14.99,17.84,26.58,31.32,34.77,13.49,8.2,29.33,12.29,47.51,12.29,29.24,0,55.41-13.2,78.55-39.58,.38,.27,.73,.58,1.05,.94,1.08,1.2,1.62,2.71,1.62,4.21Z"/>
    <path class="cls-3" d="M370.15,196.83c-6.4,6.21-13.84,11.15-22.33,14.84-8.5,3.7-17.44,5.55-26.82,5.55-20,0-36.08-5.9-48.26-17.68-12.19-11.8-18.29-28.58-18.29-50.36,0-9.18,1.7-18.77,5.09-28.78,1.17-3.46,2.53-6.77,4.08-9.95-3.91,5.86-7.06,12.32-9.47,19.38-3.39,10.01-5.09,19.59-5.09,28.78,0,21.79,6.1,38.57,18.29,50.36,12.19,11.78,28.27,17.68,48.26,17.68,9.39,0,18.33-1.84,26.82-5.55,8.48-3.69,15.93-8.63,22.33-14.84,4.12-4.87,7.58-10.25,10.42-16.13-1.55,2.33-3.23,4.57-5.04,6.71Z"/>
    <path class="cls-3" d="M500.39,220.49c-5.36-3.08-9.44-7.18-12.27-12.27-3.23-5.84-5.01-13.4-5.33-22.68l-7.06,11.06c.61,5.91,1.99,10.99,4.13,15.2,2.61,5.14,6.52,9.33,11.72,12.58,1.41,.88,3.19,.9,4.63,.08l5.95-3.38c-.61-.07-1.23-.27-1.78-.59Z"/>
    <path class="cls-3" d="M452.93,219.91c-19.51-.42-34.06-5.45-43.62-15.12-9.16-9.26-14.13-23.15-14.88-41.65v7.76c0,18.99,4.5,33.02,13.49,42.11,8.61,8.7,21.68,13.24,39.25,13.61,1.51,.03,2.92-.71,3.78-1.97l3.39-4.93c-.46,.13-.94,.2-1.43,.19Z"/>
    <path class="cls-3" d="M567.25,209.95c-9.71-5.44-17.39-13.09-23.01-22.93-5.63-9.84-8.61-21.1-8.94-33.77-.18-7.02,.38-14.31,1.68-21.9-.16,.48-.31,.98-.46,1.48-3.41,11.39-5.1,22.18-5.1,32.37,0,11.8,2.5,22.33,7.5,31.62,5,9.29,11.93,16.59,20.83,21.88,8.34,4.97,17.86,7.61,28.58,7.92,1.36,.04,2.65-.57,3.54-1.6l6.29-7.37c-11.51-.03-21.83-2.6-30.91-7.7Z"/>
    <path class="cls-3" d="M886.63,182.77c-6.46,10.19-14.61,18.37-24.41,24.55-11.89,7.5-24.52,11.24-37.91,11.24-18.19,0-32.63-6.05-43.32-18.14-10.69-12.08-16.03-28.41-16.03-49,0-6.61,.71-13.18,2.15-19.73-2.87,9.21-4.3,18.48-4.3,27.81,0,20.59,5.35,36.92,16.04,49,10.68,12.09,25.13,18.14,43.31,18.14,13.39,0,26.03-3.74,37.92-11.24,10.93-6.89,19.8-16.27,26.6-28.16,.39-.69,.59-1.44,.59-2.2,0-.79-.22-1.59-.65-2.28Z"/>
    <path class="cls-3" d="M992.2,178.26c-.66,6.28-2.9,12.23-6.68,17.83-4.61,6.79-11.1,12.24-19.49,16.33-8.39,4.09-17.98,6.14-28.78,6.14s-20.23-2.5-29.52-7.49c-5.74-3.08-10.54-6.71-14.41-10.85-.71-.78-1.29-1.63-1.7-2.55-1.6,3.42-1.08,7.65,1.7,10.62,3.86,4.15,8.67,7.77,14.41,10.85,9.29,4.98,19.14,7.49,29.52,7.49s20.39-2.05,28.78-6.14c8.39-4.09,14.88-9.55,19.49-16.33,4.59-6.8,6.89-14.1,6.89-21.88,0-1.37-.07-2.72-.22-4.03Z"/>
    <path class="cls-3" d="M1026.26,207.32c-8.52-7.73-13.51-20.63-14.96-38.72v10.09c0,16.19,3.34,27.92,10.05,35.21,6.41,7,16.55,10.64,30.41,10.92,1.17,.03,2.33-.35,3.27-1.04l8.67-6.25c-16.66,.73-29.13-2.69-37.44-10.22Z"/>
  </g>
</svg>