<?xml version="1.0" encoding="UTF-8"?>
<svg id="Capa_2" data-name="Capa 2" xmlns="http://www.w3.org/2000/svg" viewBox="0 0 1256.48 323.2">
  <defs>
    <style>
      .cls-1 {
        letter-spacing: -.03em;
      }

      .cls-2 {
        fill: #1e1e1e;
      }

      .cls-3 {
        fill: #3a3a3a;
      }

      .cls-4 {
        fill: #fff;
        font-family: Rakkas-Regular, Rakkas;
        font-size: 252.5px;
      }

      .cls-5 {
        letter-spacing: -.02em;
      }

      .cls-6 {
        letter-spacing: -.02em;
      }

      .cls-7 {
        letter-spacing: -.01em;
      }

      .cls-8 {
        letter-spacing: -.02em;
      }
    </style>
  </defs>
  <g id="Capa_1-2" data-name="Capa 1">
    <g>
      <path class="cls-2" d="M10,226.84c-5.52,0-10-4.48-10-10v-8.84c0-5.44,4.35-9.89,9.8-10l2.58-.05V66.55l-2.58-.05c-5.44-.11-9.8-4.55-9.8-10v-8.84c0-5.52,4.48-10,10-10h122.97c5.52,0,10,4.48,10,10v48.98c0,2.7-1.09,5.28-3.02,7.16-1.87,1.82-4.38,2.84-6.98,2.84-.08,0-.17,0-.26,0l-9.85-.25c-5.27-.13-9.53-4.33-9.74-9.6l-.29-7.28c-12.42-7.47-25.29-14.16-38.44-19.98l.33,45.14h37.29c5.52,0,10,4.48,10,10v9.34c0,5.52-4.48,10-10,10h-37.15l.34,50.96c14.58-6.22,28.87-13.37,42.69-21.36l.29-7.17c.21-5.26,4.47-9.46,9.74-9.6l9.85-.25c.09,0,.17,0,.26,0,2.6,0,5.11,1.02,6.98,2.84,1.93,1.88,3.02,4.46,3.02,7.16v50.25c0,5.52-4.48,10-10,10H10Z"/>
      <path class="cls-2" d="M201.65,226.84c-2.83,0-5.38-1.17-7.2-3.06-1.82,1.88-4.37,3.06-7.2,3.06h-44.95c-5.52,0-10-4.48-10-10v-8.08c0-5.42,4.32-9.85,9.74-10l4.91-.13,25.8-32.7-27.98-44.53-4.49-.11c-5.42-.14-9.74-4.57-9.74-10v-8.08c0-5.52,4.48-10,10-10h61.36c2.06,0,3.97,.62,5.55,1.68,1.59-1.06,3.5-1.68,5.56-1.68h44.19c5.52,0,10,4.48,10,10v8.08c0,5.42-4.32,9.85-9.74,10l-5.12,.13-24.18,28.59,30.83,48.63,4.51,.12c5.42,.14,9.74,4.57,9.74,10v8.08c0,5.52-4.48,10-10,10h-61.61Zm-10.29-27.2c1.17,.53,2.22,1.27,3.09,2.18,.2-.21,.41-.41,.63-.6l-2.71-4.31-1.01,2.74Z"/>
      <path class="cls-2" d="M259.47,289.96c-5.52,0-10-4.48-10-10v-7.32c0-5.21,4-9.55,9.19-9.97l.23-.02,1.09-132.54c-4.02-.2-7.65-2.83-8.98-6.83l-2.53-7.57c-.85-2.54-.64-5.32,.58-7.7,1.22-2.39,3.34-4.19,5.89-4.99l39.14-12.37c.98-.31,2-.46,3.01-.46,1.64,0,3.28,.41,4.75,1.2,2.38,1.29,4.14,3.49,4.87,6.1l3.02,10.75,13.08-15.31c1.9-2.22,4.68-3.5,7.6-3.5,11.54,0,21.96,2.72,30.99,8.1,9.06,5.4,16.18,12.92,21.16,22.36,4.87,9.25,7.34,19.78,7.34,31.3,0,9.48-1.53,19.63-4.56,30.16-3.13,10.91-6.99,19.27-11.8,25.54-4.2,5.87-11.05,11.18-20.92,16.21-9.94,5.07-18.36,7.53-25.75,7.53-2.67,0-6.1-.24-10.34-.74l.31,32.38,9.92,.39c5.37,.21,9.61,4.62,9.61,9.99v7.32c0,5.52-4.48,10-10,10h-66.91Zm56.65-105.64c5.15,2.18,10.14,3.96,14.93,5.32,1.83-6.75,2.75-14.55,2.75-23.3,0-6.31-.99-11.75-2.94-16.16-1.8-4.08-4.07-7.14-6.75-9.11-1.26-.93-2.5-1.6-3.77-2.02l-4.63,4.63,.4,40.64Z"/>
      <path class="cls-2" d="M434.7,230.62c-18.24,0-33.04-6.28-43.98-18.65-10.63-12.02-16.02-28.13-16.02-47.91,0-11.53,2.33-23.08,6.93-34.33,4.58-11.21,10.56-20.75,17.79-28.36,.66-.7,1.42-1.29,2.25-1.77,5.25-3.03,11.64-5.44,19.55-7.37,7.66-1.87,15-2.81,21.81-2.81,17.94,0,32.34,6.67,42.8,19.81,9.92,12.48,14.86,29.18,14.67,49.62-.05,5.36-4.32,9.73-9.67,9.9l-57.17,1.86c1.12,2.28,2.53,4.19,4.24,5.75,3.85,3.51,9.08,5.22,15.99,5.22,10.72,0,19.05-2.74,25.47-8.37,1.89-1.66,4.24-2.48,6.6-2.48s4.75,.84,6.64,2.53l4.54,4.04c3.43,3.05,4.34,8.04,2.22,12.11-6.69,12.81-15.91,22.98-27.39,30.21-11.59,7.31-24.13,11.01-37.27,11.01Zm2.45-107.28c-1.27,2.36-2.42,5.09-3.44,8.15-1.17,3.52-2.05,7.12-2.62,10.76l11.51-.97c-.64-5.98-1.84-10.9-3.59-14.68-.62-1.33-1.25-2.4-1.86-3.25Z"/>
      <path class="cls-2" d="M494.29,226.84c-5.52,0-10-4.48-10-10v-7.32c0-5.21,4-9.55,9.19-9.97h.07s-.58-68.92-.58-68.92c-4.1-.12-7.83-2.77-9.18-6.83l-2.53-7.58c-.85-2.55-.64-5.34,.59-7.73,1.23-2.39,3.37-4.19,5.93-4.99l39.89-12.37c.99-.31,1.98-.45,2.96-.45,4.24,0,8.18,2.72,9.53,6.97l1.92,6.06c2.71-3.59,5.53-6.77,8.43-9.52,1-.95,2.17-1.67,3.46-2.14,4.79-1.74,10.44-2.62,16.8-2.62,8.33,0,16.3,1.52,23.7,4.52,4.61,1.87,7.14,6.83,5.95,11.66l-8.08,32.83c-1.12,4.54-5.19,7.61-9.7,7.61-.67,0-1.35-.07-2.04-.21-4.53-.94-10.51-1.82-17.77-2.63-4.75-.53-8.99-.96-12.68-1.28l-.81,57.18,12.67,.43c5.39,.18,9.66,4.6,9.66,9.99v7.32c0,5.52-4.48,10-10,10h-67.42Z"/>
      <path class="cls-2" d="M591.5,226.84c-5.52,0-10-4.48-10-10v-7.32c0-5.21,4-9.55,9.19-9.97h.07s-.58-68.66-.58-68.66c-4.07-.12-7.77-2.74-9.15-6.74l-2.53-7.32c-.88-2.56-.69-5.37,.53-7.78s3.38-4.23,5.96-5.03l45.7-14.14c.98-.3,1.97-.45,2.96-.45,3.48,0,6.81,1.83,8.64,4.96l3.54,6.06c.91,1.55,1.38,3.32,1.36,5.11l-.69,93.98h.08c5.19,.43,9.19,4.76,9.19,9.97v7.32c0,5.52-4.48,10-10,10h-54.29Zm10.1-140.64c-2.38,0-4.7-.85-6.53-2.43-2.2-1.9-3.47-4.66-3.47-7.57v-26.26c0-4.67,3.23-8.72,7.79-9.75l32.32-7.32c.73-.17,1.47-.25,2.21-.25,2.25,0,4.45,.76,6.24,2.19,2.38,1.9,3.76,4.77,3.76,7.81v28.79c0,4.96-3.63,9.16-8.53,9.89l-32.32,4.8c-.49,.07-.98,.11-1.47,.11Z"/>
      <path class="cls-2" d="M702.09,230.62c-18.24,0-33.04-6.28-43.98-18.65-10.63-12.02-16.02-28.13-16.02-47.91,0-11.53,2.33-23.08,6.93-34.33,4.58-11.21,10.56-20.75,17.79-28.36,.66-.7,1.42-1.29,2.25-1.77,5.25-3.03,11.64-5.44,19.55-7.37,7.66-1.87,15-2.81,21.81-2.81,17.94,0,32.34,6.67,42.8,19.81,9.92,12.48,14.86,29.18,14.67,49.62-.05,5.36-4.32,9.73-9.67,9.9l-57.17,1.86c1.12,2.28,2.53,4.19,4.24,5.75,3.85,3.51,9.08,5.22,15.99,5.22,10.72,0,19.05-2.74,25.47-8.37,1.89-1.66,4.24-2.48,6.6-2.48s4.75,.84,6.64,2.53l4.54,4.04c3.43,3.05,4.34,8.04,2.22,12.11-6.69,12.81-15.91,22.98-27.39,30.21-11.59,7.31-24.13,11.01-37.27,11.01Zm2.45-107.28c-1.27,2.36-2.42,5.09-3.44,8.15-1.17,3.52-2.05,7.12-2.62,10.76l11.51-.97c-.64-5.98-1.84-10.9-3.59-14.68-.62-1.33-1.25-2.4-1.86-3.25Z"/>
      <path class="cls-2" d="M829.6,226.84c-2.63,0-5.03-1.02-6.82-2.68-1.79,1.67-4.18,2.68-6.82,2.68h-54.29c-5.52,0-10-4.48-10-10v-7.32c0-5.21,4-9.55,9.19-9.97h.07s-.58-68.92-.58-68.92c-4.1-.12-7.83-2.77-9.18-6.83l-2.53-7.58c-.85-2.55-.64-5.34,.59-7.73,1.23-2.39,3.37-4.19,5.93-4.99l39.89-12.37c.99-.31,1.98-.45,2.96-.45,4.26,0,8.21,2.74,9.54,7.02l2.76,8.82,9.29-13.32c1.87-2.68,4.93-4.28,8.2-4.28,18.67,0,32.94,4.81,42.42,14.29,9.48,9.48,14.29,23.67,14.29,42.17v54.18c5.14,.47,9.09,4.78,9.09,9.96v7.32c0,5.52-4.48,10-10,10h-54.03Zm-12.83-27.29c2.33,.19,4.41,1.16,6.01,2.65,1.59-1.49,3.68-2.46,6.01-2.65h.15v-44.07c0-6.91-2.4-9.26-3.19-10.03-1.54-1.51-3.59-2.52-6.21-3.04l-1.97,2.03-.81,55.1h.01Z"/>
      <path class="cls-2" d="M937.17,230.62c-18.08,0-32.79-6.28-43.73-18.65-10.63-12.02-16.02-28.13-16.02-47.91,0-11.55,2.38-23.12,7.08-34.4,4.67-11.22,10.8-20.77,18.23-28.38,.78-.8,1.69-1.46,2.69-1.96,6.37-3.18,13.11-5.65,20.04-7.34,6.97-1.7,13.8-2.56,20.29-2.56,11.96,0,22.8,3.32,32.22,9.87,9.2,6.4,16.62,15.66,22.06,27.52,2.15,4.68,.4,10.22-4.05,12.81l-29.04,16.92c-1.55,.9-3.29,1.36-5.03,1.36-1.16,0-2.32-.2-3.44-.61-2.79-1.02-4.99-3.24-5.99-6.04-2.47-6.95-5.86-14.11-10.06-21.27-.99-1.69-1.91-3.18-2.76-4.49-.84,1.67-1.64,3.49-2.4,5.46-2.65,6.79-3.99,13.86-3.99,20.99,0,10.46,2.09,18.22,6.2,23.06,3.81,4.49,9.09,6.58,16.62,6.58,8.26,0,16.27-3.05,24.49-9.31,1.8-1.38,3.94-2.05,6.06-2.05,2.77,0,5.51,1.14,7.48,3.36l4.04,4.54c2.86,3.22,3.34,7.92,1.18,11.65-6.93,11.99-15.77,21.81-26.26,29.18-11.02,7.74-23.1,11.67-35.92,11.67Z"/>
      <path class="cls-2" d="M993.47,226.84c-5.52,0-10-4.48-10-10v-7.32c0-5.21,4-9.55,9.19-9.97h.07s-.58-68.66-.58-68.66c-4.07-.12-7.77-2.74-9.15-6.74l-2.53-7.32c-.88-2.56-.69-5.37,.53-7.78s3.38-4.23,5.96-5.03l45.7-14.14c.98-.3,1.97-.45,2.96-.45,3.48,0,6.81,1.83,8.64,4.96l3.54,6.06c.91,1.55,1.38,3.32,1.36,5.11l-.69,93.98h.08c5.19,.43,9.19,4.76,9.19,9.97v7.32c0,5.52-4.48,10-10,10h-54.29Zm10.1-140.64c-2.38,0-4.7-.85-6.53-2.43-2.2-1.9-3.47-4.66-3.47-7.57v-26.26c0-4.67,3.23-8.72,7.79-9.75l32.32-7.32c.73-.17,1.47-.25,2.21-.25,2.25,0,4.45,.76,6.24,2.19,2.38,1.9,3.76,4.77,3.76,7.81v28.79c0,4.96-3.63,9.16-8.53,9.89l-32.32,4.8c-.49,.07-.98,.11-1.47,.11Z"/>
      <path class="cls-2" d="M1119.47,231.13c-2.03,0-4.04-.62-5.76-1.82-3.04-2.14-5.63-4.66-7.77-7.55-3.5,1.76-7.03,3.32-10.54,4.67-7.37,2.83-13.79,4.2-19.61,4.2-9.7,0-18.12-3.68-24.36-10.65-6.05-6.74-9.12-15.28-9.12-25.36,0-3.98,.44-8.31,1.32-12.87,.94-4.91,2.18-8.85,3.78-12.06,1.44-2.88,4.18-4.89,7.36-5.4l45.66-7.32c.09-4.57-.76-7.98-2.55-10.16-1.9-2.31-6.19-2.8-9.45-2.8-2.88,0-5.97,.32-9.19,.95-1.64,.32-3.13,.68-4.48,1.08l-2.29,4.86c-1.69,3.6-5.28,5.74-9.05,5.74-1.16,0-2.33-.2-3.47-.62l-6.82-2.52c-5.01-1.86-7.68-7.33-6.05-12.42l11.62-36.36c.88-2.76,2.92-5.01,5.59-6.15,14.15-6.07,27.88-9.14,40.8-9.14,14.3,0,26.31,3.97,35.69,11.79,9.93,8.27,14.96,20.84,14.96,37.35,0,.17,0,.33-.01,.5,0,0-.26,5.21-.27,5.29l-2.52,34-.45,8.09c.36-.04,.72-.06,1.07-.06,3.93,0,7.65,2.33,9.24,6.18l3.03,7.32c2.04,4.94-.16,10.61-4.99,12.88l-37.12,17.42c-1.35,.63-2.8,.95-4.25,.95Z"/>
      <path class="cls-2" d="M1199.01,230.62c-10.38,0-20.34-2.52-29.61-7.5-9.49-5.1-16.64-11.84-21.27-20.06-2.41-4.27-1.37-9.65,2.45-12.71l21.71-17.42c.24-.2,.5-.38,.75-.55-1.97-1.44-3.75-2.79-5.34-4.08-4.42-3.58-8.2-7.94-11.23-12.95-3.38-5.6-5.1-11.92-5.1-18.8,0-8.34,2.72-16.34,8.07-23.78,5.1-7.08,12.2-12.82,21.1-17.07,8.73-4.17,18.67-6.28,29.56-6.28,8.71,0,17.09,1.9,24.91,5.66,7.71,3.71,14.12,8.5,19.04,14.25,3.42,3.99,3.17,9.94-.57,13.63l-19.7,19.44c-.95,.93-2.06,1.66-3.26,2.15,6.29,4.69,11.28,9.05,15.16,13.2,6.48,6.94,9.76,15.53,9.76,25.51,0,8.57-2.53,16.66-7.53,24.04-4.85,7.17-11.69,12.94-20.31,17.15-8.42,4.11-18.05,6.19-28.62,6.19Zm-5.27-43.47c1.86,3.03,3.73,5.87,5.61,8.53,.01-.1,.02-.21,.02-.31,0-2.05-.67-3.6-2.25-5.18-.94-.93-2.06-1.95-3.37-3.04Z"/>
    </g>
    <g>
      <path class="cls-3" d="M10,220.84c-5.52,0-10-4.48-10-10v-8.84c0-5.44,4.35-9.89,9.8-10l2.58-.05V60.55l-2.58-.05c-5.44-.11-9.8-4.55-9.8-10v-8.84c0-5.52,4.48-10,10-10h122.97c5.52,0,10,4.48,10,10v48.98c0,2.7-1.09,5.28-3.02,7.16-1.87,1.82-4.38,2.84-6.98,2.84-.08,0-.17,0-.26,0l-9.85-.25c-5.27-.13-9.53-4.33-9.74-9.6l-.29-7.28c-12.42-7.47-25.29-14.16-38.44-19.98l.33,45.14h37.29c5.52,0,10,4.48,10,10v9.34c0,5.52-4.48,10-10,10h-37.15l.34,50.96c14.58-6.22,28.87-13.37,42.69-21.36l.29-7.17c.21-5.26,4.47-9.46,9.74-9.6l9.85-.25c.09,0,.17,0,.26,0,2.6,0,5.11,1.02,6.98,2.84,1.93,1.88,3.02,4.46,3.02,7.16v50.25c0,5.52-4.48,10-10,10H10Z"/>
      <path class="cls-3" d="M201.65,220.84c-2.83,0-5.38-1.17-7.2-3.06-1.82,1.88-4.37,3.06-7.2,3.06h-44.95c-5.52,0-10-4.48-10-10v-8.08c0-5.42,4.32-9.85,9.74-10l4.91-.13,25.8-32.7-27.98-44.53-4.49-.11c-5.42-.14-9.74-4.57-9.74-10v-8.08c0-5.52,4.48-10,10-10h61.36c2.06,0,3.97,.62,5.55,1.68,1.59-1.06,3.5-1.68,5.56-1.68h44.19c5.52,0,10,4.48,10,10v8.08c0,5.42-4.32,9.85-9.74,10l-5.12,.13-24.18,28.59,30.83,48.63,4.51,.12c5.42,.14,9.74,4.57,9.74,10v8.08c0,5.52-4.48,10-10,10h-61.61Zm-10.29-27.2c1.17,.53,2.22,1.27,3.09,2.18,.2-.21,.41-.41,.63-.6l-2.71-4.31-1.01,2.74Z"/>
      <path class="cls-3" d="M259.47,283.96c-5.52,0-10-4.48-10-10v-7.32c0-5.21,4-9.55,9.19-9.97l.23-.02,1.09-132.54c-4.02-.2-7.65-2.83-8.98-6.83l-2.53-7.57c-.85-2.54-.64-5.32,.58-7.7,1.22-2.39,3.34-4.19,5.89-4.99l39.14-12.37c.98-.31,2-.46,3.01-.46,1.64,0,3.28,.41,4.75,1.2,2.38,1.29,4.14,3.49,4.87,6.1l3.02,10.75,13.08-15.31c1.9-2.22,4.68-3.5,7.6-3.5,11.54,0,21.96,2.72,30.99,8.1,9.06,5.4,16.18,12.92,21.16,22.36,4.87,9.25,7.34,19.78,7.34,31.3,0,9.48-1.53,19.63-4.56,30.16-3.13,10.91-6.99,19.27-11.8,25.54-4.2,5.87-11.05,11.18-20.92,16.21-9.94,5.07-18.36,7.53-25.75,7.53-2.67,0-6.1-.24-10.34-.74l.31,32.38,9.92,.39c5.37,.21,9.61,4.62,9.61,9.99v7.32c0,5.52-4.48,10-10,10h-66.91Zm56.65-105.64c5.15,2.18,10.14,3.96,14.93,5.32,1.83-6.75,2.75-14.55,2.75-23.3,0-6.31-.99-11.75-2.94-16.16-1.8-4.08-4.07-7.14-6.75-9.11-1.26-.93-2.5-1.6-3.77-2.02l-4.63,4.63,.4,40.64Z"/>
      <path class="cls-3" d="M434.7,224.62c-18.24,0-33.04-6.28-43.98-18.65-10.63-12.02-16.02-28.13-16.02-47.91,0-11.53,2.33-23.08,6.93-34.33,4.58-11.21,10.56-20.75,17.79-28.36,.66-.7,1.42-1.29,2.25-1.77,5.25-3.03,11.64-5.44,19.55-7.37,7.66-1.87,15-2.81,21.81-2.81,17.94,0,32.34,6.67,42.8,19.81,9.92,12.48,14.86,29.18,14.67,49.62-.05,5.36-4.32,9.73-9.67,9.9l-57.17,1.86c1.12,2.28,2.53,4.19,4.24,5.75,3.85,3.51,9.08,5.22,15.99,5.22,10.72,0,19.05-2.74,25.47-8.37,1.89-1.66,4.24-2.48,6.6-2.48s4.75,.84,6.64,2.53l4.54,4.04c3.43,3.05,4.34,8.04,2.22,12.11-6.69,12.81-15.91,22.98-27.39,30.21-11.59,7.31-24.13,11.01-37.27,11.01Zm2.45-107.28c-1.27,2.36-2.42,5.09-3.44,8.15-1.17,3.52-2.05,7.12-2.62,10.76l11.51-.97c-.64-5.98-1.84-10.9-3.59-14.68-.62-1.33-1.25-2.4-1.86-3.25Z"/>
      <path class="cls-3" d="M494.29,220.84c-5.52,0-10-4.48-10-10v-7.32c0-5.21,4-9.55,9.19-9.97h.07s-.58-68.92-.58-68.92c-4.1-.12-7.83-2.77-9.18-6.83l-2.53-7.58c-.85-2.55-.64-5.34,.59-7.73,1.23-2.39,3.37-4.19,5.93-4.99l39.89-12.37c.99-.31,1.98-.45,2.96-.45,4.24,0,8.18,2.72,9.53,6.97l1.92,6.06c2.71-3.59,5.53-6.77,8.43-9.52,1-.95,2.17-1.67,3.46-2.14,4.79-1.74,10.44-2.62,16.8-2.62,8.33,0,16.3,1.52,23.7,4.52,4.61,1.87,7.14,6.83,5.95,11.66l-8.08,32.83c-1.12,4.54-5.19,7.61-9.7,7.61-.67,0-1.35-.07-2.04-.21-4.53-.94-10.51-1.82-17.77-2.63-4.75-.53-8.99-.96-12.68-1.28l-.81,57.18,12.67,.43c5.39,.18,9.66,4.6,9.66,9.99v7.32c0,5.52-4.48,10-10,10h-67.42Z"/>
      <path class="cls-3" d="M591.5,220.84c-5.52,0-10-4.48-10-10v-7.32c0-5.21,4-9.55,9.19-9.97h.07s-.58-68.66-.58-68.66c-4.07-.12-7.77-2.74-9.15-6.74l-2.53-7.32c-.88-2.56-.69-5.37,.53-7.78s3.38-4.23,5.96-5.03l45.7-14.14c.98-.3,1.97-.45,2.96-.45,3.48,0,6.81,1.83,8.64,4.96l3.54,6.06c.91,1.55,1.38,3.32,1.36,5.11l-.69,93.98h.08c5.19,.43,9.19,4.76,9.19,9.97v7.32c0,5.52-4.48,10-10,10h-54.29Zm10.1-140.64c-2.38,0-4.7-.85-6.53-2.43-2.2-1.9-3.47-4.66-3.47-7.57v-26.26c0-4.67,3.23-8.72,7.79-9.75l32.32-7.32c.73-.17,1.47-.25,2.21-.25,2.25,0,4.45,.76,6.24,2.19,2.38,1.9,3.76,4.77,3.76,7.81v28.79c0,4.96-3.63,9.16-8.53,9.89l-32.32,4.8c-.49,.07-.98,.11-1.47,.11Z"/>
      <path class="cls-3" d="M702.09,224.62c-18.24,0-33.04-6.28-43.98-18.65-10.63-12.02-16.02-28.13-16.02-47.91,0-11.53,2.33-23.08,6.93-34.33,4.58-11.21,10.56-20.75,17.79-28.36,.66-.7,1.42-1.29,2.25-1.77,5.25-3.03,11.64-5.44,19.55-7.37,7.66-1.87,15-2.81,21.81-2.81,17.94,0,32.34,6.67,42.8,19.81,9.92,12.48,14.86,29.18,14.67,49.62-.05,5.36-4.32,9.73-9.67,9.9l-57.17,1.86c1.12,2.28,2.53,4.19,4.24,5.75,3.85,3.51,9.08,5.22,15.99,5.22,10.72,0,19.05-2.74,25.47-8.37,1.89-1.66,4.24-2.48,6.6-2.48s4.75,.84,6.64,2.53l4.54,4.04c3.43,3.05,4.34,8.04,2.22,12.11-6.69,12.81-15.91,22.98-27.39,30.21-11.59,7.31-24.13,11.01-37.27,11.01Zm2.45-107.28c-1.27,2.36-2.42,5.09-3.44,8.15-1.17,3.52-2.05,7.12-2.62,10.76l11.51-.97c-.64-5.98-1.84-10.9-3.59-14.68-.62-1.33-1.25-2.4-1.86-3.25Z"/>
      <path class="cls-3" d="M829.6,220.84c-2.63,0-5.03-1.02-6.82-2.68-1.79,1.67-4.18,2.68-6.82,2.68h-54.29c-5.52,0-10-4.48-10-10v-7.32c0-5.21,4-9.55,9.19-9.97h.07s-.58-68.92-.58-68.92c-4.1-.12-7.83-2.77-9.18-6.83l-2.53-7.58c-.85-2.55-.64-5.34,.59-7.73,1.23-2.39,3.37-4.19,5.93-4.99l39.89-12.37c.99-.31,1.98-.45,2.96-.45,4.26,0,8.21,2.74,9.54,7.02l2.76,8.82,9.29-13.32c1.87-2.68,4.93-4.28,8.2-4.28,18.67,0,32.94,4.81,42.42,14.29,9.48,9.48,14.29,23.67,14.29,42.17v54.18c5.14,.47,9.09,4.78,9.09,9.96v7.32c0,5.52-4.48,10-10,10h-54.03Zm-12.83-27.29c2.33,.19,4.41,1.16,6.01,2.65,1.59-1.49,3.68-2.46,6.01-2.65h.15v-44.07c0-6.91-2.4-9.26-3.19-10.03-1.54-1.51-3.59-2.52-6.21-3.04l-1.97,2.03-.81,55.1h.01Z"/>
      <path class="cls-3" d="M937.17,224.62c-18.08,0-32.79-6.28-43.73-18.65-10.63-12.02-16.02-28.13-16.02-47.91,0-11.55,2.38-23.12,7.08-34.4,4.67-11.22,10.8-20.77,18.23-28.38,.78-.8,1.69-1.46,2.69-1.96,6.37-3.18,13.11-5.65,20.04-7.34,6.97-1.7,13.8-2.56,20.29-2.56,11.96,0,22.8,3.32,32.22,9.87,9.2,6.4,16.62,15.66,22.06,27.52,2.15,4.68,.4,10.22-4.05,12.81l-29.04,16.92c-1.55,.9-3.29,1.36-5.03,1.36-1.16,0-2.32-.2-3.44-.61-2.79-1.02-4.99-3.24-5.99-6.04-2.47-6.95-5.86-14.11-10.06-21.27-.99-1.69-1.91-3.18-2.76-4.49-.84,1.67-1.64,3.49-2.4,5.46-2.65,6.79-3.99,13.86-3.99,20.99,0,10.46,2.09,18.22,6.2,23.06,3.81,4.49,9.09,6.58,16.62,6.58,8.26,0,16.27-3.05,24.49-9.31,1.8-1.38,3.94-2.05,6.06-2.05,2.77,0,5.51,1.14,7.48,3.36l4.04,4.54c2.86,3.22,3.34,7.92,1.18,11.65-6.93,11.99-15.77,21.81-26.26,29.18-11.02,7.74-23.1,11.67-35.92,11.67Z"/>
      <path class="cls-3" d="M993.47,220.84c-5.52,0-10-4.48-10-10v-7.32c0-5.21,4-9.55,9.19-9.97h.07s-.58-68.66-.58-68.66c-4.07-.12-7.77-2.74-9.15-6.74l-2.53-7.32c-.88-2.56-.69-5.37,.53-7.78s3.38-4.23,5.96-5.03l45.7-14.14c.98-.3,1.97-.45,2.96-.45,3.48,0,6.81,1.83,8.64,4.96l3.54,6.06c.91,1.55,1.38,3.32,1.36,5.11l-.69,93.98h.08c5.19,.43,9.19,4.76,9.19,9.97v7.32c0,5.52-4.48,10-10,10h-54.29Zm10.1-140.64c-2.38,0-4.7-.85-6.53-2.43-2.2-1.9-3.47-4.66-3.47-7.57v-26.26c0-4.67,3.23-8.72,7.79-9.75l32.32-7.32c.73-.17,1.47-.25,2.21-.25,2.25,0,4.45,.76,6.24,2.19,2.38,1.9,3.76,4.77,3.76,7.81v28.79c0,4.96-3.63,9.16-8.53,9.89l-32.32,4.8c-.49,.07-.98,.11-1.47,.11Z"/>
      <path class="cls-3" d="M1119.47,225.13c-2.03,0-4.04-.62-5.76-1.82-3.04-2.14-5.63-4.66-7.77-7.55-3.5,1.76-7.03,3.32-10.54,4.67-7.37,2.83-13.79,4.2-19.61,4.2-9.7,0-18.12-3.68-24.36-10.65-6.05-6.74-9.12-15.28-9.12-25.36,0-3.98,.44-8.31,1.32-12.87,.94-4.91,2.18-8.85,3.78-12.06,1.44-2.88,4.18-4.89,7.36-5.4l45.66-7.32c.09-4.57-.76-7.98-2.55-10.16-1.9-2.31-6.19-2.8-9.45-2.8-2.88,0-5.97,.32-9.19,.95-1.64,.32-3.13,.68-4.48,1.08l-2.29,4.86c-1.69,3.6-5.28,5.74-9.05,5.74-1.16,0-2.33-.2-3.47-.62l-6.82-2.52c-5.01-1.86-7.68-7.33-6.05-12.42l11.62-36.36c.88-2.76,2.92-5.01,5.59-6.15,14.15-6.07,27.88-9.14,40.8-9.14,14.3,0,26.31,3.97,35.69,11.79,9.93,8.27,14.96,20.84,14.96,37.35,0,.17,0,.33-.01,.5,0,0-.26,5.21-.27,5.29l-2.52,34-.45,8.09c.36-.04,.72-.06,1.07-.06,3.93,0,7.65,2.33,9.24,6.18l3.03,7.32c2.04,4.94-.16,10.61-4.99,12.88l-37.12,17.42c-1.35,.63-2.8,.95-4.25,.95Z"/>
      <path class="cls-3" d="M1199.01,224.62c-10.38,0-20.34-2.52-29.61-7.5-9.49-5.1-16.64-11.84-21.27-20.06-2.41-4.27-1.37-9.65,2.45-12.71l21.71-17.42c.24-.2,.5-.38,.75-.55-1.97-1.44-3.75-2.79-5.34-4.08-4.42-3.58-8.2-7.94-11.23-12.95-3.38-5.6-5.1-11.92-5.1-18.8,0-8.34,2.72-16.34,8.07-23.78,5.1-7.08,12.2-12.82,21.1-17.07,8.73-4.17,18.67-6.28,29.56-6.28,8.71,0,17.09,1.9,24.91,5.66,7.71,3.71,14.12,8.5,19.04,14.25,3.42,3.99,3.17,9.94-.57,13.63l-19.7,19.44c-.95,.93-2.06,1.66-3.26,2.15,6.29,4.69,11.28,9.05,15.16,13.2,6.48,6.94,9.76,15.53,9.76,25.51,0,8.57-2.53,16.66-7.53,24.04-4.85,7.17-11.69,12.94-20.31,17.15-8.42,4.11-18.05,6.19-28.62,6.19Zm-5.27-43.47c1.86,3.03,3.73,5.87,5.61,8.53,.01-.1,.02-.21,.02-.31,0-2.05-.67-3.6-2.25-5.18-.94-.93-2.06-1.95-3.37-3.04Z"/>
    </g>
    <text class="cls-4" transform="translate(.91 210.84)"><tspan class="cls-8" x="0" y="0">Exp</tspan><tspan class="cls-6" x="378.24" y="0">e</tspan><tspan class="cls-8" x="485.8" y="0">ri</tspan><tspan class="cls-5" x="645.63" y="0">e</tspan><tspan class="cls-8" x="753.2" y="0">n</tspan><tspan class="cls-1" x="880.96" y="0">c</tspan><tspan class="cls-7" x="982.97" y="0">ias</tspan></text>
  </g>
</svg>