<?xml version="1.0" encoding="UTF-8"?>
<svg id="Capa_2" data-name="Capa 2" xmlns="http://www.w3.org/2000/svg" viewBox="0 0 794.2 198.05">
  <defs>
    <style>
      .cls-1 {
        fill: #fff;
      }

      .cls-2 {
        fill: #1e1e1e;
      }

      .cls-3 {
        fill: #3a3a3a;
      }
    </style>
  </defs>
  <g id="Capa_1-2" data-name="Capa 1">
    <g>
      <path class="cls-2" d="M373.13,53.02c.58,0,1.17-.04,1.74-.13l24.7-3.67c5.74-.85,10.07-5.88,10.07-11.68V16.81c0-6.51-5.29-11.81-11.8-11.81-.88,0-1.76,.1-2.62,.29l-24.7,5.6c-5.42,1.23-9.2,5.96-9.2,11.52v18.8c0,6.51,5.29,11.81,11.8,11.81Z"/>
      <path class="cls-2" d="M784.98,128.54c-5.16-5.53-12.37-11.43-22.05-18.07-6.94-4.73-12.09-8.8-15.33-12.12-2.82-2.88-3.15-5.25-3.15-6.78,0-.13,0-.26,0-.39,4.04,3.86,7.93,7.94,11.61,12.22,3.03,3.51,7.42,5.52,12.05,5.52,4.2,0,8.16-1.63,11.14-4.58l7.76-7.66c3.28-3.24,4.99-7.74,4.7-12.34-.29-4.58-2.55-8.8-6.19-11.57-3.16-2.41-6.74-4.59-10.65-6.46-7.54-3.62-15.63-5.46-24.04-5.46-10.59,0-20.24,2.05-28.7,6.08-8.59,4.1-15.44,9.63-20.34,16.43-4.4,6.11-6.93,12.61-7.54,19.35-.97-13.3-5.67-23.56-14.05-30.54-9.02-7.51-20.59-11.32-34.41-11.32-12.12,0-24.99,2.77-38.25,8.24-3.24,1.33-5.71,4.02-6.78,7.37l-.5,1.56v-.79c0-6.94-5.65-12.59-12.59-12.59h-16.66l.83-23.02c.21-5.71-3.47-10.85-8.93-12.5l-2.14-.65c-1.18-.36-2.41-.54-3.64-.54-3.57,0-7,1.53-9.39,4.2-6.13,6.83-12.91,13.45-20.16,19.67-7.06,6.06-13.68,10.92-19.68,14.43-1.89,1.11-3.42,2.68-4.49,4.52-2.42-1.61-5.02-3.1-7.8-4.44-7.54-3.62-15.63-5.46-24.04-5.46-10.59,0-20.24,2.05-28.7,6.08-8.59,4.1-15.44,9.63-20.34,16.43-5.11,7.08-7.7,14.69-7.7,22.61,0,6.51,1.62,12.49,4.81,17.77,2.91,4.82,6.53,9,10.78,12.43,3.72,3.01,8.68,6.56,14.74,10.54,6.76,4.57,11.75,8.44,14.81,11.49,1.96,1.96,2.84,4,2.84,6.59,0,1.26-.54,2.71-1.58,4.31h0c-3.28-4.39-6.53-9.34-9.73-14.79-2.89-4.92-8.21-7.97-13.9-7.97-3.62,0-7.18,1.25-10.02,3.53l-8.31,6.67c-3.47,2.78-5.64,6.92-5.96,11.36-.08,1.13-.04,2.26,.11,3.36-.4-.13-.8-.25-1.21-.34l.7-94.9c.01-2.12-.54-4.21-1.61-6.04l-1.49-2.55c-2.11-3.61-6.02-5.86-10.2-5.86-1.18,0-2.36,.18-3.49,.53l-36.12,11.18c-1.66-5.01-6.38-8.64-11.95-8.64h-16.66l.83-23.02c.21-5.71-3.47-10.85-8.93-12.5l-2.14-.65c-1.18-.36-2.41-.54-3.64-.54-3.57,0-7,1.53-9.39,4.2-6.13,6.83-12.91,13.45-20.16,19.67-5.12,4.4-10.01,8.15-14.6,11.23-5.25-1.44-10.75-2.17-16.42-2.17s-10.75,.72-15.09,2.15c-1.67,.55-3.23,1.5-4.49,2.74-3.4,3.32-6.68,7.26-9.81,11.79l-2.01-6.31c-1.55-4.89-6.04-8.17-11.17-8.17-1.18,0-2.34,.18-3.47,.53l-32.73,10.15c-3.03,.94-5.5,3.02-6.96,5.84-1.45,2.83-1.7,6.04-.69,9.06l.25,.74c1.52,4.55,5.61,7.68,10.34,7.99l.62,73.56c-.35,.08-.7,.17-1.04,.28-1.82-1.12-3.95-1.8-6.22-1.85l-2.49-.05L117,15.54c-1.77-4.94-6.48-8.27-11.73-8.27-.57,0-1.14,.04-1.7,.12l-25.04,3.43c-4.62,.64-8.47,3.76-10.04,8.15L14.7,169.29l-2.49,.05c-6.73,.13-12.21,5.72-12.21,12.46s5.59,12.46,12.46,12.46H60.6c6.87,0,12.46-5.59,12.46-12.46,0-6.38-4.91-11.73-11.16-12.39l5.16-25.64h30.31l7.25,25.83c-5.65,1.18-9.94,6.24-9.94,12.21,0,6.87,5.59,12.46,12.46,12.46h67.08c1.8,0,3.51-.39,5.06-1.08,1.49,.69,3.15,1.08,4.89,1.08h59.97c6.46,0,11.72-5.26,11.72-11.72s-4.98-11.5-11.33-11.72l-11.03-.37,.85-59.93c0-.28,.1-.55,.28-.77,.24-.3,.6-.48,.98-.48h.1c3.89,.34,8.44,.8,13.54,1.36,5.73,.64,10.69,1.33,14.75,2.05,.68,.12,1.37,.18,2.05,.18,5.41,0,10.08-3.67,11.38-8.92l1.57-6.36v52.07c0,15.86,3.46,27.34,10.56,35.08,6.91,7.54,17.46,11.5,31.35,11.79h.26c2.64,0,5.17-.82,7.33-2.38l24.25-17.49c-.99,1.72-1.55,3.71-1.55,5.81,0,6.51,5.3,11.81,11.81,11.81h46.67c6.09,0,11.11-4.63,11.74-10.55,3.05,2.63,6.52,5,10.37,7.07,8.97,4.82,18.61,7.27,28.66,7.27s19.6-2.01,27.75-5.99c8.3-4.05,14.88-9.59,19.53-16.47,4.77-7.04,7.18-14.75,7.18-22.92,0-9.46-3.1-17.58-9.22-24.14-5.16-5.53-12.37-11.43-22.05-18.07-6.94-4.73-12.09-8.8-15.33-12.12-2.82-2.88-3.15-5.25-3.15-6.78,0-.13,0-.26,0-.39,4,3.82,7.85,7.86,11.5,12.08,3.06,3.54,7.5,5.57,12.18,5.57,4.24,0,8.24-1.64,11.26-4.62l7.49-7.39c1.89-1.87,3.24-4.15,4.02-6.63,.86,.18,1.74,.29,2.66,.29h4.33v59.17c0,15.86,3.46,27.34,10.56,35.08,6.91,7.54,17.46,11.5,31.35,11.79h.26c2.64,0,5.17-.82,7.34-2.38l20.04-14.46c1.38,3.06,3.19,5.86,5.46,8.39,5.85,6.53,13.76,9.98,22.88,9.98,5.58,0,11.76-1.33,18.9-4.06,3.97-1.52,7.95-3.32,11.9-5.38,1.58,2.4,3.48,4.55,5.67,6.45,2.13,1.84,4.86,2.86,7.7,2.86,1.74,0,3.5-.39,5.08-1.13l31.6-14.83c.31-.15,.6-.31,.9-.47,3.59,3.53,7.89,6.66,12.82,9.31,8.97,4.82,18.61,7.27,28.66,7.27s19.6-2.01,27.75-5.99c8.3-4.05,14.88-9.59,19.53-16.47,4.77-7.04,7.18-14.75,7.18-22.92,0-9.46-3.1-17.58-9.22-24.14ZM72.31,118.42l7.43-36.89,10.37,36.89h-17.8Zm285.69,53.37c2.45-3.83,2.72-8.82,.35-13-2.23-3.94-6.43-6.38-10.96-6.38-2.17,0-4.32,.57-6.21,1.64l-3.26,1.85c-1.88-.31-3.3-1.12-4.52-2.57-1.04-1.24-2.79-4.51-2.79-12.52v-49.94l17.46,.29c.68,0,1.35-.07,2-.18,1.83,3.81,5.57,6.39,9.81,6.68l.62,73.25c-.88,.19-1.71,.49-2.51,.87Zm283.35-14.17l-.25,5.41c0,.23-.01,.46,0,.69-.51,.12-.87,.15-1.1,.15-.26,0-.53,0-1.16-.76-.2-.24-1.19-1.66-1.19-6.13,0-.81,.02-1.56,.05-2.27l3.85-.9-.2,3.82Zm1.77-30.38l-.06,.88-45.16,7.24c-4.19,.67-7.74,3.57-9.24,7.55-.94,2.47-1.7,5.3-2.34,8.64-.06,.31-.1,.61-.15,.91-1.88,.13-3.72,.65-5.36,1.59l-3.26,1.85c-1.88-.31-3.3-1.12-4.52-2.57-1.04-1.24-2.79-4.51-2.79-12.52v-49.94l17.46,.29c4.05,0,7.66-1.93,9.96-4.92l-6.82,21.33c-1.94,6.06,1.22,12.55,7.19,14.75,1.33,.49,2.71,.74,4.13,.74,4.58,0,8.8-2.68,10.75-6.82l1.14-2.43c1.62-.52,3.47-.99,5.53-1.39,3.35-.66,6.57-.99,9.57-.99,5.37,0,9.07,1.19,10.99,3.52,2.21,2.68,3.21,6.81,2.98,12.27Zm97.39,41.87h0c-3.31-4.43-6.6-9.43-9.83-14.95-2.85-4.87-8.12-7.89-13.76-7.89-3.59,0-7.11,1.24-9.91,3.49l-8.61,6.91c-1.02,.82-1.91,1.77-2.69,2.8-1.13-.35-2.32-.54-3.55-.54-.29,0-.59,.01-.88,.03-.05-.67-.09-1.5-.1-2.52l.49-8.78,2.52-34.01,.17-3.46c.55,4.89,2.07,9.45,4.57,13.57,2.91,4.82,6.53,9,10.78,12.43,3.72,3.01,8.68,6.56,14.74,10.54,6.76,4.57,11.75,8.44,14.81,11.49,1.96,1.96,2.84,4,2.84,6.59,0,1.26-.54,2.71-1.58,4.31Z"/>
    </g>
    <g>
      <path class="cls-3" d="M373.13,48.02c.58,0,1.17-.04,1.74-.13l24.7-3.67c5.74-.85,10.07-5.88,10.07-11.68V11.81c0-6.51-5.29-11.81-11.8-11.81-.88,0-1.76,.1-2.62,.29l-24.7,5.6c-5.42,1.23-9.2,5.96-9.2,11.52v18.8c0,6.51,5.29,11.81,11.8,11.81Z"/>
      <path class="cls-3" d="M784.98,123.54c-5.16-5.53-12.37-11.43-22.05-18.07-6.94-4.73-12.09-8.8-15.33-12.12-2.82-2.88-3.15-5.25-3.15-6.78,0-.13,0-.26,0-.39,4.04,3.86,7.93,7.94,11.61,12.22,3.03,3.51,7.42,5.52,12.05,5.52,4.2,0,8.16-1.63,11.14-4.58l7.76-7.66c3.28-3.24,4.99-7.74,4.7-12.34-.29-4.58-2.55-8.8-6.19-11.57-3.16-2.41-6.74-4.59-10.65-6.46-7.54-3.62-15.63-5.46-24.04-5.46-10.59,0-20.24,2.05-28.7,6.08-8.59,4.1-15.44,9.63-20.34,16.43-4.4,6.11-6.93,12.61-7.54,19.35-.97-13.3-5.67-23.56-14.05-30.54-9.02-7.51-20.59-11.32-34.41-11.32-12.12,0-24.99,2.77-38.25,8.24-3.24,1.33-5.71,4.02-6.78,7.37l-.5,1.56v-.79c0-6.94-5.65-12.59-12.59-12.59h-16.66l.83-23.02c.21-5.71-3.47-10.85-8.93-12.5l-2.14-.65c-1.18-.36-2.41-.54-3.64-.54-3.57,0-7,1.53-9.39,4.2-6.13,6.83-12.91,13.45-20.16,19.67-7.06,6.06-13.68,10.92-19.68,14.43-1.89,1.11-3.42,2.68-4.49,4.52-2.42-1.61-5.02-3.1-7.8-4.44-7.54-3.62-15.63-5.46-24.04-5.46-10.59,0-20.24,2.05-28.7,6.08-8.59,4.1-15.44,9.63-20.34,16.43-5.11,7.08-7.7,14.69-7.7,22.61,0,6.51,1.62,12.49,4.81,17.77,2.91,4.82,6.53,9,10.78,12.43,3.72,3.01,8.68,6.56,14.74,10.54,6.76,4.57,11.75,8.44,14.81,11.49,1.96,1.96,2.84,4,2.84,6.59,0,1.26-.54,2.71-1.58,4.31h0c-3.28-4.39-6.53-9.34-9.73-14.79-2.89-4.92-8.21-7.97-13.9-7.97-3.62,0-7.18,1.25-10.02,3.53l-8.31,6.67c-3.47,2.78-5.64,6.92-5.96,11.36-.08,1.13-.04,2.26,.11,3.36-.4-.13-.8-.25-1.21-.34l.7-94.9c.01-2.12-.54-4.21-1.61-6.04l-1.49-2.55c-2.11-3.61-6.02-5.86-10.2-5.86-1.18,0-2.36,.18-3.49,.53l-36.12,11.18c-1.66-5.01-6.38-8.64-11.95-8.64h-16.66l.83-23.02c.21-5.71-3.47-10.85-8.93-12.5l-2.14-.65c-1.18-.36-2.41-.54-3.64-.54-3.57,0-7,1.53-9.39,4.2-6.13,6.83-12.91,13.45-20.16,19.67-5.12,4.4-10.01,8.15-14.6,11.23-5.25-1.44-10.75-2.17-16.42-2.17s-10.75,.72-15.09,2.15c-1.67,.55-3.23,1.5-4.49,2.74-3.4,3.32-6.68,7.26-9.81,11.79l-2.01-6.31c-1.55-4.89-6.04-8.17-11.17-8.17-1.18,0-2.34,.18-3.47,.53l-32.73,10.15c-3.03,.94-5.5,3.02-6.96,5.84-1.45,2.83-1.7,6.04-.69,9.06l.25,.74c1.52,4.55,5.61,7.68,10.34,7.99l.62,73.56c-.35,.08-.7,.17-1.04,.28-1.82-1.12-3.95-1.8-6.22-1.85l-2.49-.05L117,10.54c-1.77-4.94-6.48-8.27-11.73-8.27-.57,0-1.14,.04-1.7,.12l-25.04,3.43c-4.62,.64-8.47,3.76-10.04,8.15L14.7,164.29l-2.49,.05c-6.73,.13-12.21,5.72-12.21,12.46s5.59,12.46,12.46,12.46H60.6c6.87,0,12.46-5.59,12.46-12.46,0-6.38-4.91-11.73-11.16-12.39l5.16-25.64h30.31l7.25,25.83c-5.65,1.18-9.94,6.24-9.94,12.21,0,6.87,5.59,12.46,12.46,12.46h67.08c1.8,0,3.51-.39,5.06-1.08,1.49,.69,3.15,1.08,4.89,1.08h59.97c6.46,0,11.72-5.26,11.72-11.72s-4.98-11.5-11.33-11.72l-11.03-.37,.85-59.93c0-.28,.1-.55,.28-.77,.24-.3,.6-.48,.98-.48h.1c3.89,.34,8.44,.8,13.54,1.36,5.73,.64,10.69,1.33,14.75,2.05,.68,.12,1.37,.18,2.05,.18,5.41,0,10.08-3.67,11.38-8.92l1.57-6.36v52.07c0,15.86,3.46,27.34,10.56,35.08,6.91,7.54,17.46,11.5,31.35,11.79h.26c2.64,0,5.17-.82,7.33-2.38l24.25-17.49c-.99,1.72-1.55,3.71-1.55,5.81,0,6.51,5.3,11.81,11.81,11.81h46.67c6.09,0,11.11-4.63,11.74-10.55,3.05,2.63,6.52,5,10.37,7.07,8.97,4.82,18.61,7.27,28.66,7.27s19.6-2.01,27.75-5.99c8.3-4.05,14.88-9.59,19.53-16.47,4.77-7.04,7.18-14.75,7.18-22.92,0-9.46-3.1-17.58-9.22-24.14-5.16-5.53-12.37-11.43-22.05-18.07-6.94-4.73-12.09-8.8-15.33-12.12-2.82-2.88-3.15-5.25-3.15-6.78,0-.13,0-.26,0-.39,4,3.82,7.85,7.86,11.5,12.08,3.06,3.54,7.5,5.57,12.18,5.57,4.24,0,8.24-1.64,11.26-4.62l7.49-7.39c1.89-1.87,3.24-4.15,4.02-6.63,.86,.18,1.74,.29,2.66,.29h4.33v59.17c0,15.86,3.46,27.34,10.56,35.08,6.91,7.54,17.46,11.5,31.35,11.79h.26c2.64,0,5.17-.82,7.34-2.38l20.04-14.46c1.38,3.06,3.19,5.86,5.46,8.39,5.85,6.53,13.76,9.98,22.88,9.98,5.58,0,11.76-1.33,18.9-4.06,3.97-1.52,7.95-3.32,11.9-5.38,1.58,2.4,3.48,4.55,5.67,6.45,2.13,1.84,4.86,2.86,7.7,2.86,1.74,0,3.5-.39,5.08-1.13l31.6-14.83c.31-.15,.6-.31,.9-.47,3.59,3.53,7.89,6.66,12.82,9.31,8.97,4.82,18.61,7.27,28.66,7.27s19.6-2.01,27.75-5.99c8.3-4.05,14.88-9.59,19.53-16.47,4.77-7.04,7.18-14.75,7.18-22.92,0-9.46-3.1-17.58-9.22-24.14ZM72.31,113.42l7.43-36.89,10.37,36.89h-17.8Zm285.69,53.37c2.45-3.83,2.72-8.82,.35-13-2.23-3.94-6.43-6.38-10.96-6.38-2.17,0-4.32,.57-6.21,1.64l-3.26,1.85c-1.88-.31-3.3-1.12-4.52-2.57-1.04-1.24-2.79-4.51-2.79-12.52v-49.94l17.46,.29c.68,0,1.35-.07,2-.18,1.83,3.81,5.57,6.39,9.81,6.68l.62,73.25c-.88,.19-1.71,.49-2.51,.87Zm283.35-14.17l-.25,5.41c0,.23-.01,.46,0,.69-.51,.12-.87,.15-1.1,.15-.26,0-.53,0-1.16-.76-.2-.24-1.19-1.66-1.19-6.13,0-.81,.02-1.56,.05-2.27l3.85-.9-.2,3.82Zm1.77-30.38l-.06,.88-45.16,7.24c-4.19,.67-7.74,3.57-9.24,7.55-.94,2.47-1.7,5.3-2.34,8.64-.06,.31-.1,.61-.15,.91-1.88,.13-3.72,.65-5.36,1.59l-3.26,1.85c-1.88-.31-3.3-1.12-4.52-2.57-1.04-1.24-2.79-4.51-2.79-12.52v-49.94l17.46,.29c4.05,0,7.66-1.93,9.96-4.92l-6.82,21.33c-1.94,6.06,1.22,12.55,7.19,14.75,1.33,.49,2.71,.74,4.13,.74,4.58,0,8.8-2.68,10.75-6.82l1.14-2.43c1.62-.52,3.47-.99,5.53-1.39,3.35-.66,6.57-.99,9.57-.99,5.37,0,9.07,1.19,10.99,3.52,2.21,2.68,3.21,6.81,2.98,12.27Zm97.39,41.87h0c-3.31-4.43-6.6-9.43-9.83-14.95-2.85-4.87-8.12-7.89-13.76-7.89-3.59,0-7.11,1.24-9.91,3.49l-8.61,6.91c-1.02,.82-1.91,1.77-2.69,2.8-1.13-.35-2.32-.54-3.55-.54-.29,0-.59,.01-.88,.03-.05-.67-.09-1.5-.1-2.52l.49-8.78,2.52-34.01,.17-3.46c.55,4.89,2.07,9.45,4.57,13.57,2.91,4.82,6.53,9,10.78,12.43,3.72,3.01,8.68,6.56,14.74,10.54,6.76,4.57,11.75,8.44,14.81,11.49,1.96,1.96,2.84,4,2.84,6.59,0,1.26-.54,2.71-1.58,4.31Z"/>
    </g>
    <g>
      <path class="cls-1" d="M178.69,176.8h0c0,2.47-2,4.47-4.46,4.47H107.15c-2.46,0-4.46-2-4.46-4.46h0c0-2.43,1.94-4.42,4.37-4.46l2.24-.05c2.92-.06,4.99-2.86,4.21-5.67l-10.06-35.86H60.52l-7.28,36.17c-.55,2.73,1.51,5.29,4.29,5.34l3.16,.06c2.43,.05,4.37,2.03,4.37,4.46h0c0,2.46-2,4.46-4.46,4.46H12.46c-2.46,0-4.46-2-4.46-4.46h0c0-2.43,1.94-4.42,4.37-4.46l4.93-.1c1.85-.04,3.49-1.21,4.11-2.96L76.02,16.66c.56-1.57,1.95-2.69,3.6-2.92l25.04-3.43c2.09-.29,4.1,.93,4.81,2.92l55.82,156.05c.62,1.74,2.26,2.92,4.11,2.96l4.93,.1c2.43,.05,4.37,2.03,4.37,4.46Zm-78.02-55.38l-22.22-79.03-15.91,79.03h38.13Z"/>
      <path class="cls-1" d="M226.37,105.41l-.91,64.13c-.03,2.03,1.57,3.71,3.6,3.77l15.23,.51c2.01,.07,3.6,1.71,3.6,3.72h0c0,2.06-1.67,3.72-3.72,3.72h-59.97c-2.06,0-3.72-1.67-3.72-3.72v-.17c0-1.94,1.49-3.55,3.42-3.71l2.47-.2c1.94-.16,3.44-1.79,3.42-3.74l-.69-82.27c-.02-2.39-2.26-4.14-4.58-3.59l-1.74,.41c-1.88,.44-3.78-.62-4.39-2.45l-.25-.74c-.66-1.98,.44-4.12,2.43-4.73l32.73-10.15c1.95-.61,4.03,.48,4.65,2.43l7.47,23.49c5.38-10.93,11.24-19.48,17.57-25.67,.4-.39,.88-.69,1.41-.86,3.54-1.16,7.73-1.74,12.58-1.74,5.87,0,11.44,.87,16.73,2.61,1.84,.6,2.88,2.55,2.42,4.42l-6.44,26.15c-.47,1.91-2.33,3.12-4.26,2.77-4.27-.76-9.36-1.46-15.27-2.12-5.22-.58-9.79-1.04-13.73-1.38-3.08-.27-6.08,1.03-8.02,3.44h0c-1.29,1.61-2,3.6-2.03,5.65Z"/>
      <path class="cls-1" d="M350.08,163.73l-26.24,18.93c-.8,.58-1.76,.89-2.75,.87-11.68-.24-20.22-3.31-25.63-9.2-5.64-6.14-8.46-16.03-8.46-29.67V77.49h-12.33c-2.53,0-4.59-2.05-4.59-4.59v-.82c0-1.62,.85-3.12,2.25-3.94,6.45-3.77,13.4-8.86,20.86-15.27,7.56-6.49,14.52-13.29,20.91-20.4,1.2-1.33,3.04-1.87,4.76-1.35l2.14,.65c1.99,.6,3.33,2.48,3.26,4.56l-1.13,31.31h24.95c2.53,0,4.59,2.05,4.59,4.59v1.35c0,2.57-2.1,4.63-4.67,4.59l-25.38-.43v58.08c0,8.08,1.55,13.97,4.67,17.67,2.81,3.34,6.48,5.18,11,5.5,.92,.07,1.83-.14,2.63-.59l4.21-2.39c2.21-1.25,5.01-.48,6.26,1.73h0c1.15,2.04,.59,4.62-1.31,5.99Z"/>
      <path class="cls-1" d="M407.7,173.47l2.31,.19c1.98,.16,3.5,1.81,3.5,3.8h0c0,2.1-1.71,3.81-3.81,3.81h-46.67c-2.1,0-3.81-1.71-3.81-3.81h0c0-1.98,1.52-3.64,3.5-3.8l2.31-.19c1.99-.16,3.52-1.83,3.5-3.83l-.73-86.35-6.31,1.33c-1.88,.4-3.76-.67-4.39-2.49l-.15-.43c-.7-2.03,.42-4.25,2.48-4.88l39.05-12.08c1.69-.52,3.52,.19,4.42,1.72l1.48,2.54c.34,.59,.52,1.26,.52,1.95l-.72,98.69c-.01,2,1.51,3.66,3.5,3.82ZM372.29,13.69l24.7-5.6c2.38-.54,4.65,1.27,4.65,3.72v20.73c0,1.89-1.38,3.49-3.25,3.77l-24.7,3.67c-2.3,.34-4.37-1.44-4.37-3.77V17.41c0-1.78,1.23-3.32,2.97-3.72Z"/>
      <path class="cls-1" d="M462.62,98.95c3.62,3.71,9.13,8.08,16.54,13.13,9.09,6.23,15.99,11.87,20.71,16.92,4.71,5.05,7.07,11.28,7.07,18.68,0,6.57-1.94,12.71-5.81,18.43-3.88,5.72-9.34,10.31-16.41,13.76-7.07,3.45-15.15,5.18-24.24,5.18s-17.04-2.11-24.87-6.31c-4.83-2.6-8.88-5.64-12.14-9.14s-2.85-8.87,.82-11.82l8.31-6.67c3.85-3.09,9.52-2,12.02,2.25,5.66,9.64,11.44,17.71,17.33,24.21l5.98-9.07c1.93-2.94,2.9-5.85,2.9-8.71,0-4.71-1.73-8.79-5.18-12.25-3.45-3.45-8.8-7.61-16.03-12.5-5.89-3.87-10.6-7.24-14.14-10.1-3.54-2.86-6.53-6.31-8.96-10.35-2.44-4.04-3.66-8.58-3.66-13.63,0-6.23,2.06-12.2,6.19-17.93,4.12-5.72,9.89-10.35,17.3-13.89,7.41-3.54,15.82-5.3,25.25-5.3,7.24,0,14.1,1.56,20.58,4.67,3.36,1.62,6.4,3.45,9.1,5.5,3.89,2.94,4.21,8.69,.73,12.11l-7.49,7.39c-3.32,3.28-8.71,3.04-11.77-.49-6.58-7.61-13.67-14.56-21.26-20.85-2.86,3.71-4.29,8.5-4.29,14.39,0,4.54,1.81,8.67,5.43,12.37Z"/>
      <path class="cls-1" d="M589.7,163.73l-26.24,18.93c-.8,.58-1.76,.89-2.75,.87-11.68-.24-20.22-3.31-25.63-9.2-5.64-6.14-8.46-16.03-8.46-29.67V77.49h-12.33c-2.53,0-4.59-2.05-4.59-4.59v-.82c0-1.62,.85-3.12,2.25-3.94,6.45-3.77,13.4-8.86,20.86-15.27,7.56-6.49,14.52-13.29,20.91-20.4,1.2-1.33,3.04-1.87,4.76-1.35l2.14,.65c1.99,.6,3.33,2.48,3.26,4.56l-1.13,31.31h24.95c2.53,0,4.59,2.05,4.59,4.59v1.35c0,2.57-2.1,4.63-4.67,4.59l-25.38-.43v58.08c0,8.08,1.55,13.97,4.67,17.67,2.81,3.34,6.48,5.18,11,5.5,.92,.07,1.83-.14,2.63-.59l4.21-2.39c2.21-1.25,5.01-.48,6.26,1.73h0c1.15,2.04,.59,4.62-1.31,5.99Z"/>
      <path class="cls-1" d="M693.97,169.71l-31.6,14.83c-1.36,.64-3,.46-4.14-.53-3.48-3.02-5.94-6.88-7.36-11.59-6.06,3.71-12.16,6.74-18.31,9.09-6.15,2.35-11.49,3.53-16.03,3.53-6.9,0-12.54-2.44-16.92-7.32-4.38-4.88-6.57-11.11-6.57-18.68,0-3.37,.38-7.03,1.14-10.98,.55-2.85,1.2-5.29,1.97-7.31,.5-1.31,1.64-2.27,3.03-2.49l48.39-7.76c1.78-.29,3.13-1.76,3.26-3.56l.29-4.25c.34-7.58-1.26-13.51-4.8-17.8-3.54-4.29-9.26-6.44-17.17-6.44-3.54,0-7.24,.38-11.11,1.14-3.87,.76-7.16,1.73-9.85,2.9l-2.52,5.36c-.86,1.82-2.97,2.69-4.86,1.99h0c-1.95-.72-2.98-2.84-2.35-4.82l9.94-31.12c.35-1.08,1.15-1.97,2.21-2.41,12.35-5.09,24.09-7.64,35.21-7.64,11.95,0,21.71,3.16,29.29,9.47,7.57,6.31,11.36,16.2,11.36,29.67l-.25,5.05-2.52,34.09-.5,8.96c0,.09,0,.17,0,.26,0,2.97,.26,5.32,.76,7.06,.2,.7,.45,1.41,.76,2.12,.82,1.91,3.02,2.82,4.96,2.07l1.09-.42c1.97-.76,4.18,.19,4.99,2.13l.16,.4c.79,1.92-.06,4.11-1.94,5Zm-44.74-8.35l-.13-2.64c0-.12,0-.24,0-.36l.24-5.38,.49-9.24c.14-2.58-2.24-4.57-4.76-3.98l-12.05,2.82c-1.52,.35-2.69,1.57-2.94,3.11-.29,1.77-.43,3.87-.43,6.28,0,5.05,1.01,8.8,3.03,11.24,2.02,2.44,4.46,3.66,7.32,3.66,2.07,0,4.39-.6,6.95-1.79,1.44-.67,2.34-2.14,2.27-3.72Z"/>
      <path class="cls-1" d="M741.89,98.95c3.62,3.71,9.13,8.08,16.54,13.13,9.09,6.23,15.99,11.87,20.71,16.92,4.71,5.05,7.07,11.28,7.07,18.68,0,6.57-1.94,12.71-5.81,18.43-3.88,5.72-9.34,10.31-16.41,13.76-7.07,3.45-15.15,5.18-24.24,5.18s-17.04-2.11-24.87-6.31c-4.89-2.63-8.98-5.72-12.27-9.28s-2.79-8.68,.81-11.57l8.61-6.91c3.77-3.02,9.32-1.96,11.76,2.21,5.69,9.72,11.5,17.84,17.43,24.38l5.98-9.07c1.93-2.94,2.9-5.85,2.9-8.71,0-4.71-1.73-8.79-5.18-12.25-3.45-3.45-8.8-7.61-16.03-12.5-5.89-3.87-10.6-7.24-14.14-10.1-3.54-2.86-6.53-6.31-8.96-10.35-2.44-4.04-3.66-8.58-3.66-13.63,0-6.23,2.06-12.2,6.19-17.93,4.12-5.72,9.89-10.35,17.3-13.89,7.41-3.54,15.82-5.3,25.25-5.3,7.24,0,14.1,1.56,20.58,4.67,3.43,1.65,6.51,3.52,9.26,5.61,3.8,2.9,4.12,8.5,.72,11.86l-7.76,7.66c-3.25,3.21-8.53,2.98-11.52-.48-6.61-7.67-13.74-14.66-21.38-20.99-2.86,3.71-4.29,8.5-4.29,14.39,0,4.54,1.81,8.67,5.43,12.37Z"/>
    </g>
  </g>
</svg>