<?xml version="1.0" encoding="UTF-8"?>
<svg id="Capa_2" data-name="Capa 2" xmlns="http://www.w3.org/2000/svg" viewBox="0 0 1256.48 263.35">
  <defs>
    <style>
      .cls-1 {
        fill: #fff;
      }

      .cls-2 {
        fill: #1e1e1e;
      }

      .cls-3 {
        fill: #3a3a3a;
      }
    </style>
  </defs>
  <g id="Capa_1-2" data-name="Capa 1">
    <g>
      <g>
        <path class="cls-2" d="M595.07,57.16c1.83,1.58,4.15,2.43,6.53,2.43,.49,0,.98-.04,1.47-.11l32.32-4.8c4.9-.73,8.53-4.94,8.53-9.89V16c0-3.04-1.38-5.92-3.76-7.81-1.79-1.43-4-2.19-6.24-2.19-.74,0-1.48,.08-2.21,.25l-32.32,7.32c-4.56,1.03-7.79,5.08-7.79,9.75v26.26c0,2.91,1.27,5.67,3.47,7.57Z"/>
        <path class="cls-2" d="M997.04,57.16c1.83,1.58,4.15,2.43,6.53,2.43,.49,0,.98-.04,1.47-.11l32.32-4.8c4.9-.73,8.53-4.94,8.53-9.89V16c0-3.04-1.38-5.92-3.76-7.81-1.79-1.43-4-2.19-6.24-2.19-.74,0-1.48,.08-2.21,.25l-32.32,7.32c-4.56,1.03-7.79,5.08-7.79,9.75v26.26c0,2.91,1.27,5.67,3.47,7.57Z"/>
        <path class="cls-2" d="M1230.55,117.93c1.2-.49,2.31-1.21,3.26-2.15l19.7-19.44c3.74-3.69,3.98-9.64,.57-13.63-4.93-5.74-11.33-10.54-19.04-14.25-7.82-3.75-16.2-5.66-24.91-5.66-10.89,0-20.83,2.11-29.56,6.28-8.9,4.25-16,9.99-21.1,17.07-2.36,3.27-4.21,6.66-5.54,10.13-2.26-9-6.65-16.27-13.15-21.69-9.38-7.82-21.39-11.79-35.69-11.79-12.92,0-26.65,3.08-40.8,9.14-2.67,1.14-4.7,3.39-5.59,6.15l-9.73,30.46,.22-29.61c.01-1.79-.46-3.56-1.36-5.11l-3.54-6.06c-1.83-3.13-5.15-4.96-8.64-4.96-.98,0-1.98,.15-2.96,.45l-45.7,14.14c-.75,.23-1.45,.55-2.11,.94-2.17-2.08-4.47-3.97-6.9-5.66-9.42-6.55-20.26-9.87-32.22-9.87-6.49,0-13.32,.86-20.29,2.56-6.93,1.69-13.67,4.15-20.04,7.34-1,.5-1.91,1.16-2.69,1.96-7.42,7.62-13.56,17.17-18.23,28.38-.32,.78-.61,1.56-.91,2.34-1.83-12.09-6.29-21.74-13.34-28.79-9.48-9.48-23.76-14.29-42.42-14.29-3.27,0-6.33,1.6-8.2,4.28l-9.29,13.32-2.76-8.82c-1.34-4.28-5.28-7.02-9.54-7.02-.98,0-1.98,.15-2.96,.45l-39.89,12.37c-1.72,.53-3.24,1.53-4.43,2.84-10.21-11.22-23.75-16.92-40.32-16.92-6.82,0-14.16,.95-21.81,2.81-7.91,1.93-14.3,4.34-19.55,7.37-.83,.48-1.59,1.08-2.25,1.77-7.23,7.61-13.21,17.15-17.79,28.36-.75,1.83-1.42,3.68-2.04,5.52l.22-29.7c.01-1.79-.46-3.56-1.36-5.11l-3.54-6.06c-1.83-3.13-5.15-4.96-8.64-4.96-.98,0-1.98,.15-2.96,.45l-30.73,9.51c-1-2.4-2.91-4.4-5.48-5.44-7.4-3-15.38-4.52-23.7-4.52-6.36,0-12.02,.88-16.8,2.62-1.29,.47-2.47,1.2-3.46,2.14-2.9,2.75-5.71,5.93-8.43,9.52l-1.92-6.06c-1.35-4.25-5.29-6.97-9.53-6.97-.98,0-1.98,.15-2.96,.45l-39.89,12.37c-1.72,.53-3.24,1.53-4.44,2.84-10.21-11.22-23.75-16.92-40.32-16.92-6.82,0-14.16,.95-21.81,2.81-7.91,1.93-14.3,4.34-19.55,7.37-.83,.48-1.59,1.08-2.25,1.77-5.87,6.18-10.91,13.66-15.05,22.25-.56-1.27-1.16-2.51-1.8-3.73-4.98-9.44-12.09-16.96-21.16-22.36-9.03-5.37-19.46-8.1-30.99-8.1-2.92,0-5.7,1.28-7.6,3.5l-13.08,15.31-3.02-10.75c-.73-2.61-2.49-4.81-4.87-6.1-1.47-.8-3.11-1.2-4.75-1.2-1.01,0-2.03,.15-3.01,.46l-27.64,8.74c-1.5-3.62-5.07-6.17-9.24-6.17h-44.19c-2.06,0-3.97,.62-5.56,1.68-1.59-1.06-3.5-1.68-5.55-1.68h-58.93V21.05c0-5.52-4.48-10-10-10H10C4.48,11.05,0,15.53,0,21.05v8.84c0,5.44,4.35,9.89,9.8,10l2.58,.05V171.34l-2.58,.05c-5.44,.11-9.8,4.55-9.8,10v8.84c0,5.52,4.48,10,10,10H138.02c.74,0,1.45-.09,2.15-.24,.69,.15,1.41,.24,2.15,.24h44.95c2.83,0,5.38-1.17,7.2-3.06,1.82,1.88,4.37,3.06,7.2,3.06h57.53l-.29,35.82-.23,.02c-5.19,.42-9.19,4.76-9.19,9.97v7.32c0,5.52,4.48,10,10,10h66.91c5.52,0,10-4.48,10-10v-7.32c0-5.37-4.24-9.78-9.61-9.99l-9.92-.39-.31-32.38c4.25,.5,7.67,.74,10.34,.74,7.39,0,15.82-2.46,25.75-7.53,9.87-5.03,16.72-10.34,20.92-16.21,2.52-3.28,4.77-7.14,6.8-11.64,2.58,6.23,6.03,11.83,10.36,16.73,10.94,12.38,25.74,18.65,43.98,18.65,13.14,0,25.68-3.7,37.27-11.01,4.45-2.81,8.56-6.06,12.32-9.73v6.95c0,5.52,4.48,10,10,10h67.42c5.52,0,10-4.48,10-10v-7.32c0-5.39-4.27-9.81-9.66-9.99l-12.67-.43,.81-57.18c3.69,.33,7.94,.76,12.68,1.28,7.26,.81,13.23,1.69,17.77,2.63,.68,.14,1.36,.21,2.04,.21,2.97,0,5.74-1.33,7.61-3.54l.48,57.04h-.07c-5.19,.43-9.19,4.76-9.19,9.97v7.32c0,5.52,4.48,10,10,10h54.29c5.52,0,10-4.48,10-10v-7.32c0-.13-.01-.26-.02-.4,.76,.97,1.53,1.93,2.35,2.85,10.94,12.38,25.74,18.65,43.98,18.65,13.14,0,25.68-3.7,37.27-11.01,4.45-2.81,8.56-6.06,12.31-9.73v6.95c0,5.52,4.48,10,10,10h54.29c2.63,0,5.03-1.02,6.82-2.68,1.79,1.67,4.18,2.68,6.82,2.68h54.03c5.52,0,10-4.48,10-10v-4.65c10.92,12.23,25.56,18.44,43.53,18.44,12.82,0,24.91-3.92,35.92-11.67,3.67-2.58,7.13-5.46,10.38-8.62v6.5c0,5.52,4.48,10,10,10h54.29c2.94,0,5.57-1.27,7.4-3.29,5.71,4.65,12.75,7.08,20.63,7.08,5.83,0,12.24-1.37,19.61-4.2,3.52-1.35,7.04-2.91,10.54-4.67,2.14,2.88,4.73,5.41,7.77,7.55,1.71,1.21,3.73,1.82,5.76,1.82,1.44,0,2.9-.31,4.25-.95l33.46-15.71c3.5,3.26,7.58,6.15,12.22,8.64,9.27,4.98,19.23,7.5,29.61,7.5s20.21-2.08,28.62-6.19c8.62-4.21,15.46-9.97,20.31-17.15,4.99-7.38,7.53-15.47,7.53-24.04,0-9.98-3.28-18.57-9.76-25.51-3.88-4.15-8.87-8.51-15.16-13.2ZM148.02,170.68v-30.7c0-2.7-1.09-5.28-3.02-7.16-1.87-1.82-4.38-2.84-6.98-2.84-.08,0-.17,0-.26,0l-9.85,.25c-5.27,.14-9.52,4.33-9.74,9.6l-.29,7.17c-13.82,7.99-28.11,15.14-42.69,21.36l-.34-50.96h37.15c5.52,0,10-4.48,10-10v-9.34c0-5.52-4.48-10-10-10h-37.29l-.33-45.14c13.15,5.83,26.02,12.52,38.44,19.98l.29,7.28c.21,5.26,4.47,9.46,9.74,9.6l7.68,.2v4.7c0,5.42,4.32,9.86,9.74,10l4.49,.11,27.98,44.53-24.74,31.35Zm46.43,4.53c-.88-.91-1.93-1.65-3.09-2.18l1.01-2.74,2.71,4.31c-.22,.19-.43,.39-.63,.6Zm64.55-3.17l-30.83-48.63,22.76-26.92,.06,.19c1.33,3.99,4.96,6.62,8.98,6.83l-.56,68.54h-.41Zm72.05-9.02c-4.79-1.36-9.78-3.14-14.93-5.32l-.4-40.64,4.63-4.63c1.27,.43,2.51,1.1,3.77,2.02,2.68,1.97,4.95,5.03,6.75,9.11,1.95,4.42,2.94,9.86,2.94,16.16,0,8.75-.92,16.55-2.75,23.3Zm102.66-58.14c1.02-3.06,2.17-5.78,3.44-8.15,.62,.85,1.24,1.92,1.86,3.25,1.75,3.79,2.95,8.7,3.59,14.68l-11.51,.97c.57-3.65,1.44-7.24,2.62-10.76Zm20.18,50.09c-6.91,0-12.14-1.71-15.99-5.22-1.71-1.56-3.12-3.47-4.24-5.75l57.17-1.86c.86-.03,1.68-.17,2.46-.4l.05,5.56-.74-.66c-1.89-1.68-4.27-2.53-6.64-2.53s-4.71,.83-6.6,2.48c-6.42,5.63-14.75,8.37-25.47,8.37Zm39.59,17.96c-.13,.01-.26,.03-.39,.05,.15-.21,.3-.42,.45-.64v.58s-.07,0-.07,0Zm153.12,0h-.08s.05-7.39,.05-7.39c1.05,2.94,2.28,5.74,3.69,8.41-1.11-.56-2.35-.91-3.66-1.02Zm54.51-68.05c1.02-3.06,2.17-5.78,3.44-8.15,.62,.85,1.24,1.92,1.86,3.25,1.75,3.79,2.95,8.7,3.59,14.68l-11.51,.97c.57-3.65,1.44-7.24,2.62-10.76Zm20.18,50.09c-6.91,0-12.14-1.71-15.99-5.22-1.71-1.56-3.12-3.47-4.24-5.75l57.17-1.86c.85-.03,1.68-.17,2.46-.4l.05,5.56-.74-.66c-1.89-1.68-4.27-2.53-6.64-2.53s-4.71,.83-6.6,2.48c-6.42,5.63-14.75,8.37-25.47,8.37Zm39.59,17.96c-.13,.01-.26,.03-.38,.05,.15-.21,.3-.42,.45-.63v.58s-.07,0-.07,0Zm68.07-.01h-.15c-2.33,.2-4.41,1.18-6.01,2.66-1.6-1.49-3.68-2.46-6.01-2.65h-.01s.81-55.1,.81-55.1l1.97-2.03c2.62,.52,4.67,1.53,6.21,3.04,.79,.77,3.19,3.12,3.19,10.03v44.06Zm55.6-1.01c.18,.37,.35,.74,.53,1.1-.18-.03-.35-.06-.53-.07v-1.03Zm71.56-16.94c-7.53,0-12.81-2.09-16.62-6.58-4.12-4.84-6.2-12.6-6.2-23.06,0-7.13,1.34-14.2,3.99-20.99,.77-1.97,1.57-3.79,2.4-5.46,.85,1.31,1.76,2.8,2.76,4.49,4.2,7.16,7.59,14.32,10.06,21.27,1,2.8,3.19,5.02,5.99,6.04,1.11,.41,2.28,.61,3.44,.61,1.75,0,3.49-.46,5.03-1.36l25.3-14.74,.26,30.31c-1.73-1.25-3.78-1.89-5.85-1.89s-4.25,.67-6.06,2.05c-8.22,6.27-16.23,9.31-24.49,9.31Zm98.66-17.3c-2.38,.38-4.51,1.6-6.04,3.4l.13-17.27c1.09,1.35,2.54,2.43,4.28,3.07l6.82,2.52c1.14,.42,2.31,.62,3.47,.62,3.77,0,7.36-2.15,9.05-5.74l2.29-4.86c1.34-.4,2.84-.76,4.48-1.08,3.22-.63,6.31-.95,9.19-.95,3.26,0,7.55,.49,9.45,2.8,1.79,2.17,2.65,5.59,2.55,10.16l-45.66,7.32Zm117.54,8.64l-16.98,13.63c-.58-.1-1.16-.17-1.76-.17-.36,0-.71,.02-1.07,.06l.45-8.09,1.93-26.05c.49,1.04,1.02,2.06,1.62,3.05,3.03,5.02,6.81,9.38,11.23,12.95,1.59,1.29,3.36,2.64,5.34,4.08-.26,.17-.51,.35-.75,.55Zm27.05,22.75c-1.88-2.66-3.75-5.5-5.61-8.53,1.31,1.09,2.44,2.11,3.37,3.04,1.58,1.58,2.25,3.13,2.25,5.18,0,.1,0,.2-.02,.31Z"/>
      </g>
      <g>
        <path class="cls-3" d="M595.07,51.16c1.83,1.58,4.15,2.43,6.53,2.43,.49,0,.98-.04,1.47-.11l32.32-4.8c4.9-.73,8.53-4.94,8.53-9.89V10c0-3.04-1.38-5.92-3.76-7.81-1.79-1.43-4-2.19-6.24-2.19-.74,0-1.48,.08-2.21,.25l-32.32,7.32c-4.56,1.03-7.79,5.08-7.79,9.75v26.26c0,2.91,1.27,5.67,3.47,7.57Z"/>
        <path class="cls-3" d="M997.04,51.16c1.83,1.58,4.15,2.43,6.53,2.43,.49,0,.98-.04,1.47-.11l32.32-4.8c4.9-.73,8.53-4.94,8.53-9.89V10c0-3.04-1.38-5.92-3.76-7.81-1.79-1.43-4-2.19-6.24-2.19-.74,0-1.48,.08-2.21,.25l-32.32,7.32c-4.56,1.03-7.79,5.08-7.79,9.75v26.26c0,2.91,1.27,5.67,3.47,7.57Z"/>
        <path class="cls-3" d="M1230.55,111.93c1.2-.49,2.31-1.21,3.26-2.15l19.7-19.44c3.74-3.69,3.98-9.64,.57-13.63-4.93-5.74-11.33-10.54-19.04-14.25-7.82-3.75-16.2-5.66-24.91-5.66-10.89,0-20.83,2.11-29.56,6.28-8.9,4.25-16,9.99-21.1,17.07-2.36,3.27-4.21,6.66-5.54,10.13-2.26-9-6.65-16.27-13.15-21.69-9.38-7.82-21.39-11.79-35.69-11.79-12.92,0-26.65,3.08-40.8,9.14-2.67,1.14-4.7,3.39-5.59,6.15l-9.73,30.46,.22-29.61c.01-1.79-.46-3.56-1.36-5.11l-3.54-6.06c-1.83-3.13-5.15-4.96-8.64-4.96-.98,0-1.98,.15-2.96,.45l-45.7,14.14c-.75,.23-1.45,.55-2.11,.94-2.17-2.08-4.47-3.97-6.9-5.66-9.42-6.55-20.26-9.87-32.22-9.87-6.49,0-13.32,.86-20.29,2.56-6.93,1.69-13.67,4.15-20.04,7.34-1,.5-1.91,1.16-2.69,1.96-7.42,7.62-13.56,17.17-18.23,28.38-.32,.78-.61,1.56-.91,2.34-1.83-12.09-6.29-21.74-13.34-28.79-9.48-9.48-23.76-14.29-42.42-14.29-3.27,0-6.33,1.6-8.2,4.28l-9.29,13.32-2.76-8.82c-1.34-4.28-5.28-7.02-9.54-7.02-.98,0-1.98,.15-2.96,.45l-39.89,12.37c-1.72,.53-3.24,1.53-4.43,2.84-10.21-11.22-23.75-16.92-40.32-16.92-6.82,0-14.16,.95-21.81,2.81-7.91,1.93-14.3,4.34-19.55,7.37-.83,.48-1.59,1.08-2.25,1.77-7.23,7.61-13.21,17.15-17.79,28.36-.75,1.83-1.42,3.68-2.04,5.52l.22-29.7c.01-1.79-.46-3.56-1.36-5.11l-3.54-6.06c-1.83-3.13-5.15-4.96-8.64-4.96-.98,0-1.98,.15-2.96,.45l-30.73,9.51c-1-2.4-2.91-4.4-5.48-5.44-7.4-3-15.38-4.52-23.7-4.52-6.36,0-12.02,.88-16.8,2.62-1.29,.47-2.47,1.2-3.46,2.14-2.9,2.75-5.71,5.93-8.43,9.52l-1.92-6.06c-1.35-4.25-5.29-6.97-9.53-6.97-.98,0-1.98,.15-2.96,.45l-39.89,12.37c-1.72,.53-3.24,1.53-4.44,2.84-10.21-11.22-23.75-16.92-40.32-16.92-6.82,0-14.16,.95-21.81,2.81-7.91,1.93-14.3,4.34-19.55,7.37-.83,.48-1.59,1.08-2.25,1.77-5.87,6.18-10.91,13.66-15.05,22.25-.56-1.27-1.16-2.51-1.8-3.73-4.98-9.44-12.09-16.96-21.16-22.36-9.03-5.37-19.46-8.1-30.99-8.1-2.92,0-5.7,1.28-7.6,3.5l-13.08,15.31-3.02-10.75c-.73-2.61-2.49-4.81-4.87-6.1-1.47-.8-3.11-1.2-4.75-1.2-1.01,0-2.03,.15-3.01,.46l-27.64,8.74c-1.5-3.62-5.07-6.17-9.24-6.17h-44.19c-2.06,0-3.97,.62-5.56,1.68-1.59-1.06-3.5-1.68-5.55-1.68h-58.93V15.05c0-5.52-4.48-10-10-10H10C4.48,5.05,0,9.53,0,15.05v8.84c0,5.44,4.35,9.89,9.8,10l2.58,.05V165.34l-2.58,.05c-5.44,.11-9.8,4.55-9.8,10v8.84c0,5.52,4.48,10,10,10H138.02c.74,0,1.45-.09,2.15-.24,.69,.15,1.41,.24,2.15,.24h44.95c2.83,0,5.38-1.17,7.2-3.06,1.82,1.88,4.37,3.06,7.2,3.06h57.53l-.29,35.82-.23,.02c-5.19,.42-9.19,4.76-9.19,9.97v7.32c0,5.52,4.48,10,10,10h66.91c5.52,0,10-4.48,10-10v-7.32c0-5.37-4.24-9.78-9.61-9.99l-9.92-.39-.31-32.38c4.25,.5,7.67,.74,10.34,.74,7.39,0,15.82-2.46,25.75-7.53,9.87-5.03,16.72-10.34,20.92-16.21,2.52-3.28,4.77-7.14,6.8-11.64,2.58,6.23,6.03,11.83,10.36,16.73,10.94,12.38,25.74,18.65,43.98,18.65,13.14,0,25.68-3.7,37.27-11.01,4.45-2.81,8.56-6.06,12.32-9.73v6.95c0,5.52,4.48,10,10,10h67.42c5.52,0,10-4.48,10-10v-7.32c0-5.39-4.27-9.81-9.66-9.99l-12.67-.43,.81-57.18c3.69,.33,7.94,.76,12.68,1.28,7.26,.81,13.23,1.69,17.77,2.63,.68,.14,1.36,.21,2.04,.21,2.97,0,5.74-1.33,7.61-3.54l.48,57.04h-.07c-5.19,.43-9.19,4.76-9.19,9.97v7.32c0,5.52,4.48,10,10,10h54.29c5.52,0,10-4.48,10-10v-7.32c0-.13-.01-.26-.02-.4,.76,.97,1.53,1.93,2.35,2.85,10.94,12.38,25.74,18.65,43.98,18.65,13.14,0,25.68-3.7,37.27-11.01,4.45-2.81,8.56-6.06,12.31-9.73v6.95c0,5.52,4.48,10,10,10h54.29c2.63,0,5.03-1.02,6.82-2.68,1.79,1.67,4.18,2.68,6.82,2.68h54.03c5.52,0,10-4.48,10-10v-4.65c10.92,12.23,25.56,18.44,43.53,18.44,12.82,0,24.91-3.92,35.92-11.67,3.67-2.58,7.13-5.46,10.38-8.62v6.5c0,5.52,4.48,10,10,10h54.29c2.94,0,5.57-1.27,7.4-3.29,5.71,4.65,12.75,7.08,20.63,7.08,5.83,0,12.24-1.37,19.61-4.2,3.52-1.35,7.04-2.91,10.54-4.67,2.14,2.88,4.73,5.41,7.77,7.55,1.71,1.21,3.73,1.82,5.76,1.82,1.44,0,2.9-.31,4.25-.95l33.46-15.71c3.5,3.26,7.58,6.15,12.22,8.64,9.27,4.98,19.23,7.5,29.61,7.5s20.21-2.08,28.62-6.19c8.62-4.21,15.46-9.97,20.31-17.15,4.99-7.38,7.53-15.47,7.53-24.04,0-9.98-3.28-18.57-9.76-25.51-3.88-4.15-8.87-8.51-15.16-13.2ZM148.02,164.68v-30.7c0-2.7-1.09-5.28-3.02-7.16-1.87-1.82-4.38-2.84-6.98-2.84-.08,0-.17,0-.26,0l-9.85,.25c-5.27,.14-9.52,4.33-9.74,9.6l-.29,7.17c-13.82,7.99-28.11,15.14-42.69,21.36l-.34-50.96h37.15c5.52,0,10-4.48,10-10v-9.34c0-5.52-4.48-10-10-10h-37.29l-.33-45.14c13.15,5.83,26.02,12.52,38.44,19.98l.29,7.28c.21,5.26,4.47,9.46,9.74,9.6l7.68,.2v4.7c0,5.42,4.32,9.86,9.74,10l4.49,.11,27.98,44.53-24.74,31.35Zm46.43,4.53c-.88-.91-1.93-1.65-3.09-2.18l1.01-2.74,2.71,4.31c-.22,.19-.43,.39-.63,.6Zm64.55-3.17l-30.83-48.63,22.76-26.92,.06,.19c1.33,3.99,4.96,6.62,8.98,6.83l-.56,68.54h-.41Zm72.05-9.02c-4.79-1.36-9.78-3.14-14.93-5.32l-.4-40.64,4.63-4.63c1.27,.43,2.51,1.1,3.77,2.02,2.68,1.97,4.95,5.03,6.75,9.11,1.95,4.42,2.94,9.86,2.94,16.16,0,8.75-.92,16.55-2.75,23.3Zm102.66-58.14c1.02-3.06,2.17-5.78,3.44-8.15,.62,.85,1.24,1.92,1.86,3.25,1.75,3.79,2.95,8.7,3.59,14.68l-11.51,.97c.57-3.65,1.44-7.24,2.62-10.76Zm20.18,50.09c-6.91,0-12.14-1.71-15.99-5.22-1.71-1.56-3.12-3.47-4.24-5.75l57.17-1.86c.86-.03,1.68-.17,2.46-.4l.05,5.56-.74-.66c-1.89-1.68-4.27-2.53-6.64-2.53s-4.71,.83-6.6,2.48c-6.42,5.63-14.75,8.37-25.47,8.37Zm39.59,17.96c-.13,.01-.26,.03-.39,.05,.15-.21,.3-.42,.45-.64v.58s-.07,0-.07,0Zm153.12,0h-.08s.05-7.39,.05-7.39c1.05,2.94,2.28,5.74,3.69,8.41-1.11-.56-2.35-.91-3.66-1.02Zm54.51-68.05c1.02-3.06,2.17-5.78,3.44-8.15,.62,.85,1.24,1.92,1.86,3.25,1.75,3.79,2.95,8.7,3.59,14.68l-11.51,.97c.57-3.65,1.44-7.24,2.62-10.76Zm20.18,50.09c-6.91,0-12.14-1.71-15.99-5.22-1.71-1.56-3.12-3.47-4.24-5.75l57.17-1.86c.85-.03,1.68-.17,2.46-.4l.05,5.56-.74-.66c-1.89-1.68-4.27-2.53-6.64-2.53s-4.71,.83-6.6,2.48c-6.42,5.63-14.75,8.37-25.47,8.37Zm39.59,17.96c-.13,.01-.26,.03-.38,.05,.15-.21,.3-.42,.45-.63v.58s-.07,0-.07,0Zm68.07-.01h-.15c-2.33,.2-4.41,1.18-6.01,2.66-1.6-1.49-3.68-2.46-6.01-2.65h-.01s.81-55.1,.81-55.1l1.97-2.03c2.62,.52,4.67,1.53,6.21,3.04,.79,.77,3.19,3.12,3.19,10.03v44.06Zm55.6-1.01c.18,.37,.35,.74,.53,1.1-.18-.03-.35-.06-.53-.07v-1.03Zm71.56-16.94c-7.53,0-12.81-2.09-16.62-6.58-4.12-4.84-6.2-12.6-6.2-23.06,0-7.13,1.34-14.2,3.99-20.99,.77-1.97,1.57-3.79,2.4-5.46,.85,1.31,1.76,2.8,2.76,4.49,4.2,7.16,7.59,14.32,10.06,21.27,1,2.8,3.19,5.02,5.99,6.04,1.11,.41,2.28,.61,3.44,.61,1.75,0,3.49-.46,5.03-1.36l25.3-14.74,.26,30.31c-1.73-1.25-3.78-1.89-5.85-1.89s-4.25,.67-6.06,2.05c-8.22,6.27-16.23,9.31-24.49,9.31Zm98.66-17.3c-2.38,.38-4.51,1.6-6.04,3.4l.13-17.27c1.09,1.35,2.54,2.43,4.28,3.07l6.82,2.52c1.14,.42,2.31,.62,3.47,.62,3.77,0,7.36-2.15,9.05-5.74l2.29-4.86c1.34-.4,2.84-.76,4.48-1.08,3.22-.63,6.31-.95,9.19-.95,3.26,0,7.55,.49,9.45,2.8,1.79,2.17,2.65,5.59,2.55,10.16l-45.66,7.32Zm117.54,8.64l-16.98,13.63c-.58-.1-1.16-.17-1.76-.17-.36,0-.71,.02-1.07,.06l.45-8.09,1.93-26.05c.49,1.04,1.02,2.06,1.62,3.05,3.03,5.02,6.81,9.38,11.23,12.95,1.59,1.29,3.36,2.64,5.34,4.08-.26,.17-.51,.35-.75,.55Zm27.05,22.75c-1.88-2.66-3.75-5.5-5.61-8.53,1.31,1.09,2.44,2.11,3.37,3.04,1.58,1.58,2.25,3.13,2.25,5.18,0,.1,0,.2-.02,.31Z"/>
      </g>
      <g>
        <path class="cls-1" d="M138.02,133.98v50.25H10v-8.84l12.37-.25V24.14l-12.37-.25V15.05h122.97v48.98l-9.85-.25-.5-12.62c-18.68-11.62-38.13-21.38-58.33-29.29l.5,70.19h47.22v9.34h-47.22l.5,75.75c21.54-8.25,42.33-18.35,62.37-30.3l.5-12.62,9.85-.25Z"/>
        <path class="cls-1" d="M263.26,176.15v8.08h-61.61v-8.08l9.85-.25-21.46-34.09-12.62,34.09,9.85,.25v8.08h-44.95v-8.08l9.59-.25,33.08-41.92-34.59-55.04-9.85-.25v-8.08h61.36v8.08l-9.85,.25,18.94,29.79,11.87-29.79-9.85-.25v-8.08h44.19v8.08l-9.59,.25-31.82,37.62,37.62,59.34,9.85,.25Z"/>
        <path class="cls-1" d="M356.3,73.5c7.49,4.46,13.3,10.61,17.42,18.43,4.12,7.83,6.19,16.71,6.19,26.64,0,8.58-1.39,17.72-4.17,27.4-2.78,9.68-6.19,17.13-10.23,22.35-3.2,4.54-9.01,8.96-17.42,13.26-8.42,4.29-15.49,6.44-21.21,6.44-4.21,0-11.03-.76-20.45-2.27l.5,53.53,19.44,.76v7.32h-66.91v-7.32l9.34-.76,1.26-154.03-9.59,2.27-2.53-7.57,39.14-12.37,8.08,28.79,25.25-29.54c9.76,0,18.39,2.23,25.88,6.69Zm-12.5,60.22c0-7.74-1.26-14.48-3.79-20.2-2.53-5.72-5.85-10.1-9.97-13.13-4.13-3.03-8.55-4.54-13.26-4.54l-11.11,11.11,.5,51.26c11.11,5.22,21.54,8.75,31.31,10.61,4.21-9.59,6.31-21.29,6.31-35.1Z"/>
        <path class="cls-1" d="M478,82.85c8.5,10.69,12.67,25.12,12.5,43.3l-69.69,2.27c1.18,9.93,4.63,17.51,10.35,22.73,5.72,5.22,13.3,7.83,22.73,7.83,13.13,0,23.82-3.62,32.07-10.86l4.54,4.04c-5.89,11.28-13.85,20.07-23.86,26.39-10.02,6.31-20.67,9.47-31.94,9.47-15.32,0-27.48-5.09-36.49-15.28-9.01-10.18-13.51-23.94-13.51-41.28,0-10.27,2.06-20.45,6.19-30.55,4.12-10.1,9.38-18.52,15.78-25.25,4.38-2.53,10.01-4.63,16.92-6.31,6.9-1.68,13.38-2.53,19.44-2.53,14.81,0,26.47,5.35,34.97,16.03Zm-24.87,34.97c-.17-11.78-1.85-21.12-5.05-28.03-3.2-6.9-7.75-11.02-13.63-12.37-4.21,4.38-7.62,10.48-10.23,18.31-2.61,7.83-3.91,15.87-3.91,24.11v.76l32.83-2.78Z"/>
        <path class="cls-1" d="M540.24,105.19l-1.01,70.95,22.47,.76v7.32h-67.42v-7.32l9.34-.76-.76-90.4-9.59,2.27-2.53-7.58,39.89-12.37,8.59,27.02c5.55-11.28,11.61-20.03,18.18-26.26,3.7-1.35,8.16-2.02,13.38-2.02,7.07,0,13.72,1.26,19.95,3.79l-8.08,32.83c-4.88-1.01-11.11-1.93-18.69-2.78-7.57-.84-13.8-1.43-18.68-1.77l-5.05,6.31Z"/>
        <path class="cls-1" d="M636.44,176.15l9.34,.76v7.32h-54.29v-7.32l9.34-.76-.76-89.89-9.59,2.02-2.53-7.32,45.7-14.14,3.54,6.06-.76,103.27Zm-34.84-158.82l32.32-7.32v28.79l-32.32,4.8V17.32Z"/>
        <path class="cls-1" d="M745.4,82.85c8.5,10.69,12.67,25.12,12.5,43.3l-69.69,2.27c1.18,9.93,4.63,17.51,10.35,22.73,5.72,5.22,13.3,7.83,22.73,7.83,13.13,0,23.82-3.62,32.07-10.86l4.54,4.04c-5.89,11.28-13.85,20.07-23.86,26.39-10.02,6.31-20.67,9.47-31.94,9.47-15.32,0-27.48-5.09-36.49-15.28-9.01-10.18-13.51-23.94-13.51-41.28,0-10.27,2.06-20.45,6.19-30.55,4.12-10.1,9.38-18.52,15.78-25.25,4.38-2.53,10.01-4.63,16.92-6.31,6.9-1.68,13.38-2.53,19.44-2.53,14.81,0,26.47,5.35,34.97,16.03Zm-24.87,34.97c-.17-11.78-1.85-21.12-5.05-28.03-3.2-6.9-7.75-11.02-13.63-12.37-4.21,4.38-7.62,10.48-10.23,18.31-2.61,7.83-3.91,15.87-3.91,24.11v.76l32.83-2.78Z"/>
        <path class="cls-1" d="M883.64,176.9v7.32h-54.03v-7.32l9.34-.76v-53.28c0-7.41-2.06-13.13-6.19-17.17-4.13-4.04-9.81-6.14-17.04-6.31l-8.08,8.33-1.01,68.43,9.34,.76v7.32h-54.29v-7.32l9.34-.76-.76-90.4-9.59,2.27-2.53-7.58,39.89-12.37,8.84,28.28,20.96-30.05c15.99,0,27.77,3.79,35.35,11.36,7.58,7.57,11.36,19.28,11.36,35.1v63.38l9.09,.76Z"/>
        <path class="cls-1" d="M986.66,147.61l4.04,4.54c-6.23,10.77-14.01,19.44-23.36,26.01-9.34,6.56-19.4,9.85-30.17,9.85-15.15,0-27.23-5.09-36.23-15.28-9.01-10.18-13.51-23.94-13.51-41.28,0-10.27,2.1-20.45,6.31-30.55,4.21-10.1,9.6-18.52,16.16-25.25,5.72-2.86,11.7-5.05,17.93-6.57,6.23-1.51,12.2-2.27,17.93-2.27,9.93,0,18.77,2.7,26.51,8.08,7.74,5.39,13.97,13.22,18.68,23.48l-29.04,16.92c-2.7-7.58-6.31-15.23-10.86-22.98-4.55-7.74-8.5-13.04-11.87-15.91-4.38,4.21-8.12,10.31-11.24,18.31-3.12,8-4.67,16.2-4.67,24.62,0,12.96,2.86,22.81,8.58,29.54,5.72,6.73,13.8,10.1,24.24,10.1s20.62-3.79,30.55-11.36Z"/>
        <path class="cls-1" d="M1038.42,176.15l9.34,.76v7.32h-54.29v-7.32l9.34-.76-.76-89.89-9.59,2.02-2.53-7.32,45.7-14.14,3.54,6.06-.76,103.27Zm-34.84-158.82l32.32-7.32v28.79l-32.32,4.8V17.32Z"/>
        <path class="cls-1" d="M1156.59,171.1l-37.12,17.42c-4.54-3.2-7.66-7.58-9.34-13.13-6.06,3.71-12.16,6.74-18.31,9.09-6.15,2.35-11.49,3.53-16.03,3.53-6.9,0-12.54-2.44-16.92-7.32-4.38-4.88-6.57-11.11-6.57-18.68,0-3.37,.38-7.03,1.14-10.98,.76-3.95,1.72-7.11,2.9-9.47l53.53-8.58,.5-7.32c.34-7.58-1.26-13.51-4.8-17.8-3.54-4.29-9.26-6.44-17.17-6.44-3.54,0-7.24,.38-11.11,1.14-3.87,.76-7.16,1.73-9.85,2.9l-4.04,8.58-6.82-2.52,11.62-36.36c12.96-5.55,25.25-8.33,36.87-8.33s21.71,3.16,29.29,9.47c7.57,6.31,11.36,16.2,11.36,29.67l-.25,5.05-2.52,34.09-.51,9.09c0,3.03,.25,5.43,.76,7.2s1.35,3.58,2.53,5.43l7.83-3.03,3.03,7.32Zm-47.98-4.29l-.25-5.3,.25-5.56,.76-14.39-19.44,4.54c-.67,2.19-1.01,5.14-1.01,8.84,0,5.05,1.01,8.8,3.03,11.24,2.02,2.44,4.46,3.66,7.32,3.66,2.69,0,5.81-1.01,9.34-3.03Z"/>
        <path class="cls-1" d="M1201.15,101.91c3.62,3.71,9.13,8.08,16.54,13.13,9.09,6.23,15.99,11.87,20.71,16.92,4.71,5.05,7.07,11.28,7.07,18.68,0,6.57-1.94,12.71-5.81,18.43-3.88,5.72-9.34,10.31-16.41,13.76-7.07,3.45-15.15,5.18-24.24,5.18s-17.04-2.11-24.87-6.31c-7.83-4.21-13.6-9.59-17.3-16.16l21.71-17.42c6.73,12.62,13.63,22.98,20.71,31.06,2.86-2.19,5.26-4.75,7.2-7.7,1.93-2.94,2.9-5.85,2.9-8.71,0-4.71-1.73-8.79-5.18-12.25-3.45-3.45-8.8-7.61-16.03-12.5-5.89-3.87-10.6-7.24-14.14-10.1-3.54-2.86-6.53-6.31-8.96-10.35-2.44-4.04-3.66-8.58-3.66-13.63,0-6.23,2.06-12.2,6.19-17.93,4.12-5.72,9.89-10.35,17.3-13.89,7.41-3.54,15.82-5.3,25.25-5.3,7.24,0,14.1,1.56,20.58,4.67,6.48,3.12,11.74,7.03,15.78,11.74l-19.7,19.44c-8.08-10.27-17-19.44-26.76-27.52-2.86,3.71-4.29,8.5-4.29,14.39,0,4.54,1.81,8.67,5.43,12.37Z"/>
      </g>
    </g>
  </g>
</svg>