<?xml version="1.0" encoding="UTF-8"?>
<svg id="Capa_2" data-name="Capa 2" xmlns="http://www.w3.org/2000/svg" viewBox="0 0 876.73 206.84">
  <defs>
    <style>
      .cls-1 {
        fill: #fff;
      }

      .cls-2 {
        fill: #1e1e1e;
      }

      .cls-3 {
        fill: #3a3a3a;
      }
    </style>
  </defs>
  <g id="Capa_1-2" data-name="Capa 1">
    <path class="cls-2" d="M866.97,133.97c-4.74-5.07-11.14-10.45-19.53-16.37,.41,.03,.82,.04,1.23,.04,4.77,0,9.27-1.85,12.67-5.2l7.49-7.39c3.74-3.69,5.69-8.82,5.34-14.07-.34-5.21-2.92-10-7.07-13.14-3.22-2.44-6.85-4.63-10.8-6.53-7.82-3.75-16.2-5.66-24.91-5.66-10.89,0-20.83,2.11-29.56,6.28-8.9,4.25-16,9.99-21.1,17.06-2.36,3.27-4.21,6.66-5.54,10.13-2.26-9-6.65-16.27-13.15-21.69-9.38-7.82-21.39-11.79-35.69-11.79-12.38,0-25.51,2.82-39.01,8.39-3.79,1.56-6.68,4.7-7.92,8.61l-9.94,31.12c-2.26,7.08,1.43,14.65,8.4,17.24,1.55,.57,3.17,.86,4.82,.86,5.35,0,10.28-3.13,12.56-7.97l.77-1.63c1.35-.4,2.84-.76,4.48-1.08,3.22-.63,6.31-.95,9.19-.95,3.26,0,7.55,.49,9.45,2.8,1.79,2.17,2.65,5.59,2.55,10.16l-43.57,6.99c-4.79,.77-8.85,4.03-10.67,8.54l1.47-127.18c.03-2.51-.62-4.98-1.88-7.14l-1.47-2.53c-2.47-4.23-7.05-6.86-11.95-6.86-1.36,0-2.71,.2-4.01,.59l-40,12.11c-3.58,1.08-6.61,3.62-8.31,6.95-1.7,3.33-1.98,7.27-.76,10.81l.12,.35c1.61,4.68,5.57,8.07,10.28,9.04l.25,21.55c-4.03-.51-7.53-.75-10.57-.75-7.4,0-15.82,2.46-25.75,7.53-9.91,5.05-16.77,10.38-20.97,16.28-3.66,4.91-6.79,10.99-9.51,18.43-1.24-13.15-6.14-23.38-14.63-30.45-9.38-7.82-21.39-11.79-35.69-11.79-11.62,0-23.89,2.49-36.53,7.39-1.59-1.94-3.72-3.46-6.25-4.29-6.27-2.06-12.95-3.11-19.85-3.11-5.89,0-11.17,.75-15.7,2.24-1.96,.64-3.78,1.75-5.28,3.21-2.65,2.59-5.22,5.54-7.71,8.83l-.81-2.53c-1.82-5.72-7.08-9.57-13.08-9.57-1.38,0-2.75,.21-4.07,.62l-26.43,8.2c-2.54-4.31-7.21-7.22-12.57-7.22h-14.58l.76-20.95c.24-6.61-4.02-12.57-10.35-14.49l-2.14-.65c-1.37-.42-2.79-.62-4.22-.62-4.14,0-8.1,1.77-10.88,4.86-6.07,6.77-12.79,13.32-19.98,19.49-6.97,5.98-13.49,10.77-19.39,14.22-3.58,2.1-6.07,5.64-6.89,9.64-.46-.51-.93-1.02-1.41-1.5-9.09-9.09-22.59-13.89-40.12-14.27h-.3c-4.53,0-8.78,2.21-11.36,5.91l-8.14,11.67-1.62-5.19c-1.81-5.8-7.11-9.69-13.18-9.69-1.39,0-2.76,.21-4.09,.62l-32.55,10.09c-3.52,1.09-6.51,3.6-8.2,6.89-1.71,3.33-2,7.12-.81,10.68l.19,.57c1.58,4.74,5.53,8.17,10.28,9.16l.31,36.51c-2.05-5.51-7.34-9.45-13.55-9.45h-.37s-1.09,.03-1.09,.03c-7.59,.2-13.78,6.29-14.08,13.88l-.12,2.99c-13.81,7.99-28.13,15.15-42.69,21.37l-.34-50.96h32.69c7.98,0,14.46-6.49,14.46-14.46v-.42c0-7.98-6.49-14.46-14.46-14.46h-32.83l-.32-45.15c13.13,5.82,26.02,12.52,38.44,19.98l.12,3.1c.3,7.59,6.49,13.69,14.08,13.88l1.09,.03h.38c7.97,0,14.46-6.48,14.46-14.46V28.35c0-7.98-6.49-14.46-14.46-14.46H14.46C6.49,13.88,0,20.37,0,28.35c0,7.21,5.41,13.28,12.37,14.31V174.28c-6.97,1.03-12.37,7.1-12.37,14.31,0,7.98,6.49,14.46,14.46,14.46h119.09c3.55,0,6.79-1.29,9.31-3.41,2.43,2.12,5.59,3.41,9.06,3.41h46.67c4.27,0,8.09-1.95,10.63-5,2.53,3.05,6.36,5,10.63,5h46.42c7.61,0,13.81-6.19,13.81-13.82,0-5.88-3.78-11.02-9.09-12.97v-54.67c0-8.65-1.06-16.34-3.15-23.06,1.44,.47,2.97,.74,4.56,.74h2.33v57.17c0,16.39,3.63,28.3,11.09,36.43,7.3,7.95,18.33,12.14,32.79,12.44h.3c3.06,0,6-.95,8.51-2.76l17.54-12.65c.3,7.3,6.32,13.16,13.69,13.16h59.97c7.57,0,13.72-6.16,13.72-13.72s-5.83-13.47-13.26-13.71l-9.07-.31,.81-57.18c3.69,.33,7.94,.76,12.68,1.28,5.13,.57,9.62,1.18,13.4,1.82,1.05,4.35,4.17,8.1,8.67,9.76,1.55,.57,3.17,.86,4.82,.86,5.35,0,10.28-3.13,12.56-7.97l.77-1.63c1.35-.4,2.84-.76,4.48-1.08,3.22-.63,6.31-.95,9.19-.95,3.26,0,7.55,.49,9.45,2.8,1.79,2.17,2.65,5.59,2.55,10.16l-43.56,6.99c-4.9,.78-9.04,4.17-10.8,8.82-.98,2.58-1.78,5.52-2.44,8.98-.87,4.56-1.32,8.89-1.32,12.87,0,10.08,3.07,18.62,9.12,25.36,6.24,6.97,14.67,10.65,24.36,10.65,5.83,0,12.24-1.37,19.61-4.2,3.52-1.35,7.05-2.91,10.55-4.67,1.46,1.97,3.13,3.77,5,5.39,2.49,2.16,5.69,3.34,9.01,3.34,2.03,0,4.08-.46,5.93-1.32l31.61-14.84c2.08-.98,3.81-2.41,5.12-4.12,4.09,4.87,8.93,9,14.49,12.31,8.47,5.04,18.2,7.76,28.9,8.07,.13,0,.26,0,.4,0,4.03,0,7.85-1.77,10.48-4.85l10.88-12.75c2.52,5.29,6.28,9.74,11.18,13.23,2.33,1.65,5.07,2.53,7.94,2.53,2.3,0,4.58-.58,6.61-1.67l25.5-13.8c1.29,2.4,2.86,4.64,4.72,6.71,6.24,6.97,14.67,10.65,24.36,10.65,5.83,0,12.24-1.37,19.61-4.2,3.52-1.35,7.04-2.91,10.55-4.67,1.46,1.97,3.12,3.76,5,5.39,2.49,2.16,5.69,3.34,9.01,3.34,2.03,0,4.08-.46,5.93-1.32l31.31-14.69c3.5,3.26,7.59,6.16,12.22,8.65,9.27,4.98,19.23,7.5,29.61,7.5s20.21-2.08,28.62-6.19c8.62-4.21,15.46-9.97,20.31-17.15,4.99-7.38,7.53-15.47,7.53-24.04,0-9.98-3.28-18.57-9.76-25.51ZM215.38,176.19c-2.43,.84-4.55,2.34-6.16,4.28-1.58-1.91-3.65-3.39-6.03-4.24l.82-55.57,1.97-2.03c2.62,.52,4.67,1.53,6.22,3.04,.79,.77,3.19,3.12,3.19,10.03v44.49Zm119.92-15.6c-1.07-.29-1.89-.84-2.66-1.74-.7-.83-2.32-3.58-2.32-11.23v-47.91l14.54,.24c1.99,3.06,5.13,5.21,8.73,5.95l.46,54.38c-2.52-1.96-5.66-3.07-8.95-3.07-2.52,0-5,.66-7.2,1.9l-2.61,1.48Zm271.84-3.36c-1.27-.43-2.52-1.1-3.78-2.02-2.68-1.97-4.95-5.03-6.75-9.11-1.95-4.42-2.94-9.85-2.94-16.16,0-8.78,.93-16.6,2.77-23.36,4.93,1.36,10,3.15,15.17,5.35l.4,40.42-4.88,4.88Zm190.29-6.09c-4.09,0-8.1,1.41-11.3,3.98l-8.31,6.67c-.84,.67-1.6,1.43-2.29,2.23-.59-.12-1.2-.21-1.81-.26,0-.15,0-.31,0-.48l.48-8.7,1.93-26.05c.49,1.04,1.02,2.06,1.62,3.05,3.03,5.02,6.81,9.38,11.23,12.96,2.49,2.02,5.44,4.21,8.91,6.62-.15,0-.3,0-.45,0Zm23.17,20.77c-1.88-2.66-3.75-5.51-5.61-8.54,1.31,1.1,2.44,2.11,3.38,3.05,1.58,1.58,2.25,3.13,2.25,5.18,0,.1,0,.2-.02,.31Z"/>
    <path class="cls-3" d="M866.97,128.97c-4.74-5.07-11.14-10.45-19.53-16.37,.41,.03,.82,.04,1.23,.04,4.77,0,9.27-1.85,12.67-5.2l7.49-7.39c3.74-3.69,5.69-8.82,5.34-14.07-.34-5.21-2.92-10-7.07-13.14-3.22-2.44-6.85-4.63-10.8-6.53-7.82-3.75-16.2-5.66-24.91-5.66-10.89,0-20.83,2.11-29.56,6.28-8.9,4.25-16,9.99-21.1,17.06-2.36,3.27-4.21,6.66-5.54,10.13-2.26-9-6.65-16.27-13.15-21.69-9.38-7.82-21.39-11.79-35.69-11.79-12.38,0-25.51,2.82-39.01,8.39-3.79,1.56-6.68,4.7-7.92,8.61l-9.94,31.12c-2.26,7.08,1.43,14.65,8.4,17.24,1.55,.57,3.17,.86,4.82,.86,5.35,0,10.28-3.13,12.56-7.97l.77-1.63c1.35-.4,2.84-.76,4.48-1.08,3.22-.63,6.31-.95,9.19-.95,3.26,0,7.55,.49,9.45,2.8,1.79,2.17,2.65,5.59,2.55,10.16l-43.57,6.99c-4.79,.77-8.85,4.03-10.67,8.54l1.47-127.18c.03-2.51-.62-4.98-1.88-7.14l-1.47-2.53c-2.47-4.23-7.05-6.86-11.95-6.86-1.36,0-2.71,.2-4.01,.59l-40,12.11c-3.58,1.08-6.61,3.62-8.31,6.95-1.7,3.33-1.98,7.27-.76,10.81l.12,.35c1.61,4.68,5.57,8.07,10.28,9.04l.25,21.55c-4.03-.51-7.53-.75-10.57-.75-7.4,0-15.82,2.46-25.75,7.53-9.91,5.05-16.77,10.38-20.97,16.28-3.66,4.91-6.79,10.99-9.51,18.43-1.24-13.15-6.14-23.38-14.63-30.45-9.38-7.82-21.39-11.79-35.69-11.79-11.62,0-23.89,2.49-36.53,7.39-1.59-1.94-3.72-3.46-6.25-4.29-6.27-2.06-12.95-3.11-19.85-3.11-5.89,0-11.17,.75-15.7,2.24-1.96,.64-3.78,1.75-5.28,3.21-2.65,2.59-5.22,5.54-7.71,8.83l-.81-2.53c-1.82-5.72-7.08-9.57-13.08-9.57-1.38,0-2.75,.21-4.07,.62l-26.43,8.2c-2.54-4.31-7.21-7.22-12.57-7.22h-14.58l.76-20.95c.24-6.61-4.02-12.57-10.35-14.49l-2.14-.65c-1.37-.42-2.79-.62-4.22-.62-4.14,0-8.1,1.77-10.88,4.86-6.07,6.77-12.79,13.32-19.98,19.49-6.97,5.98-13.49,10.77-19.39,14.22-3.58,2.1-6.07,5.64-6.89,9.64-.46-.51-.93-1.02-1.41-1.5-9.09-9.09-22.59-13.89-40.12-14.27h-.3c-4.53,0-8.78,2.21-11.36,5.91l-8.14,11.67-1.62-5.19c-1.81-5.8-7.11-9.69-13.18-9.69-1.39,0-2.76,.21-4.09,.62l-32.55,10.09c-3.52,1.09-6.51,3.6-8.2,6.89-1.71,3.33-2,7.12-.81,10.68l.19,.57c1.58,4.74,5.53,8.17,10.28,9.16l.31,36.51c-2.05-5.51-7.34-9.45-13.55-9.45h-.37s-1.09,.03-1.09,.03c-7.59,.2-13.78,6.29-14.08,13.88l-.12,2.99c-13.81,7.99-28.13,15.15-42.69,21.37l-.34-50.96h32.69c7.98,0,14.46-6.49,14.46-14.46v-.42c0-7.98-6.49-14.46-14.46-14.46h-32.83l-.32-45.15c13.13,5.82,26.02,12.52,38.44,19.98l.12,3.1c.3,7.59,6.49,13.69,14.08,13.88l1.09,.03h.38c7.97,0,14.46-6.48,14.46-14.46V23.35c0-7.98-6.49-14.46-14.46-14.46H14.46C6.49,8.88,0,15.37,0,23.35c0,7.21,5.41,13.28,12.37,14.31V169.28c-6.97,1.03-12.37,7.1-12.37,14.31,0,7.98,6.49,14.46,14.46,14.46h119.09c3.55,0,6.79-1.29,9.31-3.41,2.43,2.12,5.59,3.41,9.06,3.41h46.67c4.27,0,8.09-1.95,10.63-5,2.53,3.05,6.36,5,10.63,5h46.42c7.61,0,13.81-6.19,13.81-13.82,0-5.88-3.78-11.02-9.09-12.97v-54.67c0-8.65-1.06-16.34-3.15-23.06,1.44,.47,2.97,.74,4.56,.74h2.33v57.17c0,16.39,3.63,28.3,11.09,36.43,7.3,7.95,18.33,12.14,32.79,12.44h.3c3.06,0,6-.95,8.51-2.76l17.54-12.65c.3,7.3,6.32,13.16,13.69,13.16h59.97c7.57,0,13.72-6.16,13.72-13.72s-5.83-13.47-13.26-13.71l-9.07-.31,.81-57.18c3.69,.33,7.94,.76,12.68,1.28,5.13,.57,9.62,1.18,13.4,1.82,1.05,4.35,4.17,8.1,8.67,9.76,1.55,.57,3.17,.86,4.82,.86,5.35,0,10.28-3.13,12.56-7.97l.77-1.63c1.35-.4,2.84-.76,4.48-1.08,3.22-.63,6.31-.95,9.19-.95,3.26,0,7.55,.49,9.45,2.8,1.79,2.17,2.65,5.59,2.55,10.16l-43.56,6.99c-4.9,.78-9.04,4.17-10.8,8.82-.98,2.58-1.78,5.52-2.44,8.98-.87,4.56-1.32,8.89-1.32,12.87,0,10.08,3.07,18.62,9.12,25.36,6.24,6.97,14.67,10.65,24.36,10.65,5.83,0,12.24-1.37,19.61-4.2,3.52-1.35,7.05-2.91,10.55-4.67,1.46,1.97,3.13,3.77,5,5.39,2.49,2.16,5.69,3.34,9.01,3.34,2.03,0,4.08-.46,5.93-1.32l31.61-14.84c2.08-.98,3.81-2.41,5.12-4.12,4.09,4.87,8.93,9,14.49,12.31,8.47,5.04,18.2,7.76,28.9,8.07,.13,0,.26,0,.4,0,4.03,0,7.85-1.77,10.48-4.85l10.88-12.75c2.52,5.29,6.28,9.74,11.18,13.23,2.33,1.65,5.07,2.53,7.94,2.53,2.3,0,4.58-.58,6.61-1.67l25.5-13.8c1.29,2.4,2.86,4.64,4.72,6.71,6.24,6.97,14.67,10.65,24.36,10.65,5.83,0,12.24-1.37,19.61-4.2,3.52-1.35,7.04-2.91,10.55-4.67,1.46,1.97,3.12,3.76,5,5.39,2.49,2.16,5.69,3.34,9.01,3.34,2.03,0,4.08-.46,5.93-1.32l31.31-14.69c3.5,3.26,7.59,6.16,12.22,8.65,9.27,4.98,19.23,7.5,29.61,7.5s20.21-2.08,28.62-6.19c8.62-4.21,15.46-9.97,20.31-17.15,4.99-7.38,7.53-15.47,7.53-24.04,0-9.98-3.28-18.57-9.76-25.51ZM215.38,171.19c-2.43,.84-4.55,2.34-6.16,4.28-1.58-1.91-3.65-3.39-6.03-4.24l.82-55.57,1.97-2.03c2.62,.52,4.67,1.53,6.22,3.04,.79,.77,3.19,3.12,3.19,10.03v44.49Zm119.92-15.6c-1.07-.29-1.89-.84-2.66-1.74-.7-.83-2.32-3.58-2.32-11.23v-47.91l14.54,.24c1.99,3.06,5.13,5.21,8.73,5.95l.46,54.38c-2.52-1.96-5.66-3.07-8.95-3.07-2.52,0-5,.66-7.2,1.9l-2.61,1.48Zm271.84-3.36c-1.27-.43-2.52-1.1-3.78-2.02-2.68-1.97-4.95-5.03-6.75-9.11-1.95-4.42-2.94-9.85-2.94-16.16,0-8.78,.93-16.6,2.77-23.36,4.93,1.36,10,3.15,15.17,5.35l.4,40.42-4.88,4.88Zm190.29-6.09c-4.09,0-8.1,1.41-11.3,3.98l-8.31,6.67c-.84,.67-1.6,1.43-2.29,2.23-.59-.12-1.2-.21-1.81-.26,0-.15,0-.31,0-.48l.48-8.7,1.93-26.05c.49,1.04,1.02,2.06,1.62,3.05,3.03,5.02,6.81,9.38,11.23,12.96,2.49,2.02,5.44,4.21,8.91,6.62-.15,0-.3,0-.45,0Zm23.17,20.77c-1.88-2.66-3.75-5.51-5.61-8.54,1.31,1.1,2.44,2.11,3.38,3.05,1.58,1.58,2.25,3.13,2.25,5.18,0,.1,0,.2-.02,.31Z"/>
    <g>
      <path class="cls-1" d="M138.02,142.39v41.2c0,2.47-2,4.46-4.46,4.46H14.46c-2.47,0-4.46-2-4.46-4.46h0c0-2.43,1.94-4.41,4.37-4.46l3.63-.07c2.43-.05,4.37-2.03,4.37-4.46V32.35c0-2.43-1.94-4.41-4.37-4.46l-3.63-.07c-2.43-.05-4.37-2.03-4.37-4.46h0c0-2.47,2-4.46,4.46-4.46h114.04c2.47,0,4.46,2,4.46,4.46V63.29c0,2.51-2.07,4.53-4.58,4.46l-1.09-.03c-2.35-.06-4.25-1.93-4.35-4.28l-.24-6.07c-.06-1.49-.85-2.86-2.12-3.63-16.13-9.88-32.82-18.39-50.07-25.53-2.95-1.22-6.2,.97-6.18,4.16l.43,59.09c.02,2.45,2.01,4.43,4.46,4.43h38.32c2.47,0,4.46,2,4.46,4.46v.42c0,2.47-2,4.46-4.46,4.46h-38.26c-2.48,0-4.48,2.02-4.46,4.49l.43,64.75c.02,3.15,3.21,5.29,6.14,4.11,18.63-7.48,36.69-16.37,54.18-26.67,1.31-.77,2.13-2.16,2.19-3.68l.24-6.02c.09-2.35,1.99-4.22,4.35-4.28l1.09-.03c2.51-.06,4.58,1.95,4.58,4.46Z"/>
      <path class="cls-1" d="M270.07,184.24h0c0,2.11-1.71,3.82-3.81,3.82h-46.42c-2.1,0-3.81-1.71-3.81-3.81h0c0-1.98,1.52-3.64,3.5-3.8l2.34-.19c1.98-.16,3.5-1.81,3.5-3.8v-49.76c0-7.41-2.06-13.13-6.19-17.17-3.77-3.69-8.83-5.76-15.18-6.22-1.14-.08-2.26,.33-3.06,1.15l-5.83,6.01c-.68,.7-1.06,1.63-1.07,2.6l-.93,63.35c-.03,2.01,1.5,3.69,3.5,3.85l2.29,.19c1.98,.16,3.5,1.81,3.5,3.8h0c0,2.1-1.71,3.81-3.81,3.81h-46.67c-2.1,0-3.81-1.71-3.81-3.81h0c0-1.98,1.52-3.64,3.5-3.8l2.31-.19c1.99-.16,3.52-1.83,3.5-3.83l-.69-82.08c-.02-2.45-2.31-4.24-4.69-3.67l-1.56,.37c-1.92,.45-3.87-.63-4.49-2.5l-.19-.58c-.68-2.03,.45-4.21,2.49-4.84l32.55-10.09c2.01-.62,4.14,.5,4.76,2.5l7.7,24.65,19.81-28.4c.74-1.06,1.96-1.66,3.24-1.63,14.93,.32,26.02,4.1,33.26,11.34,7.58,7.57,11.36,19.28,11.36,35.1v59.87c0,1.98,1.52,3.63,3.49,3.8l2.1,.18c1.97,.16,3.49,1.82,3.49,3.8Z"/>
      <path class="cls-1" d="M347.79,170.52l-26.24,18.93c-.8,.58-1.76,.89-2.75,.87-11.68-.24-20.22-3.31-25.63-9.2-5.64-6.14-8.46-16.03-8.46-29.67v-62.58c0-2.53-2.05-4.59-4.59-4.59h-7.74c-2.53,0-4.59-2.05-4.59-4.59v-.82c0-1.62,.85-3.12,2.25-3.94,6.45-3.77,13.4-8.86,20.86-15.27,7.56-6.49,14.52-13.29,20.91-20.4,1.2-1.33,3.04-1.87,4.76-1.35l2.14,.65c1.99,.6,3.33,2.48,3.26,4.56l-.96,26.56c-.09,2.6,1.99,4.76,4.59,4.76h20.19c2.53,0,4.59,2.05,4.59,4.59v1.35c0,2.57-2.1,4.63-4.67,4.59l-20.71-.35c-2.56-.04-4.67,2.02-4.67,4.59v53.41c0,8.08,1.55,13.97,4.67,17.67,2.81,3.34,6.48,5.18,11,5.5,.92,.07,1.83-.14,2.63-.59l4.21-2.39c2.21-1.25,5.01-.48,6.26,1.73h0c1.15,2.04,.59,4.62-1.31,5.99Z"/>
      <path class="cls-1" d="M400.87,109.03l-.96,67.3c-.03,2.03,1.57,3.71,3.6,3.77l15.23,.51c2.01,.07,3.6,1.71,3.6,3.72h0c0,2.06-1.67,3.72-3.72,3.72h-59.97c-2.06,0-3.72-1.67-3.72-3.72v-.17c0-1.94,1.49-3.55,3.42-3.71l2.47-.2c1.94-.16,3.44-1.79,3.42-3.74l-.69-82.27c-.02-2.39-2.26-4.14-4.58-3.59l-1.74,.41c-1.88,.44-3.78-.62-4.39-2.45l-.25-.74c-.66-1.98,.44-4.12,2.43-4.73l32.73-10.15c1.95-.61,4.03,.48,4.65,2.43l7.47,23.49c5.38-10.93,11.24-19.48,17.57-25.67,.4-.39,.88-.69,1.41-.86,3.54-1.16,7.73-1.74,12.58-1.74,5.87,0,11.44,.87,16.73,2.61,1.84,.6,2.88,2.55,2.42,4.42l-6.44,26.15c-.47,1.91-2.33,3.12-4.26,2.77-4.27-.76-9.36-1.46-15.27-2.12-7.57-.84-13.8-1.43-18.68-1.77l-5.05,6.31Z"/>
      <path class="cls-1" d="M542.2,176.5l-31.6,14.83c-1.36,.64-3,.46-4.14-.53-2.46-2.13-4.4-4.67-5.84-7.64-.98-2.03-3.52-2.73-5.49-1.62-4.76,2.67-9.54,4.93-14.35,6.77-6.15,2.35-11.49,3.53-16.03,3.53-6.9,0-12.54-2.44-16.92-7.32-4.38-4.88-6.57-11.11-6.57-18.68,0-3.37,.38-7.03,1.14-10.98,.55-2.85,1.2-5.29,1.97-7.31,.5-1.31,1.64-2.27,3.03-2.49l48.39-7.76c1.78-.29,3.13-1.76,3.26-3.56l.29-4.25c.34-7.58-1.26-13.51-4.8-17.8-3.54-4.29-9.26-6.44-17.17-6.44-3.54,0-7.24,.38-11.11,1.14-3.18,.62-5.95,1.38-8.34,2.29-.95,.36-1.73,1.07-2.16,1.99l-1.88,3.99c-.86,1.82-2.97,2.69-4.86,1.99h0c-1.95-.72-2.98-2.84-2.35-4.82l9.94-31.12c.35-1.08,1.15-1.97,2.21-2.41,12.35-5.09,24.09-7.64,35.21-7.64,11.95,0,21.71,3.16,29.29,9.47,7.57,6.31,11.36,16.2,11.36,29.67l-.25,5.05-2.52,34.09-.5,8.96c0,.09,0,.17,0,.26,0,2.97,.26,5.32,.76,7.06,.2,.7,.45,1.41,.76,2.12,.82,1.91,3.02,2.82,4.96,2.07l1.09-.42c1.97-.76,4.18,.19,4.99,2.13l.16,.4c.79,1.92-.06,4.11-1.94,5Zm-44.74-8.35l-.13-2.64c0-.12,0-.24,0-.36l.24-5.38,.49-9.24c.14-2.58-2.24-4.57-4.76-3.98l-12.05,2.82c-1.52,.35-2.69,1.57-2.94,3.11-.29,1.77-.43,3.87-.43,6.28,0,5.05,1.01,8.8,3.03,11.24,2.02,2.44,4.46,3.66,7.32,3.66,2.07,0,4.39-.6,6.95-1.79,1.44-.67,2.34-2.14,2.27-3.72Z"/>
      <path class="cls-1" d="M669.44,172.32l-31.74,17.17c-1.27,.69-2.83,.62-4-.21-3.54-2.51-6.19-5.66-7.98-9.44-2.11-4.46-3.33-10.23-3.66-17.3,0,0-18.89,22.13-23.83,27.92-.74,.87-1.83,1.38-2.98,1.34-9.02-.26-17.05-2.48-24.07-6.66-7.49-4.46-13.34-10.61-17.55-18.43-4.21-7.83-6.31-16.71-6.31-26.64,0-8.59,1.43-17.68,4.29-27.27,2.86-9.59,6.31-17.08,10.35-22.47,3.2-4.54,9-8.96,17.42-13.26,8.42-4.29,15.49-6.44,21.21-6.44,4.14,0,9.53,.57,16.16,1.7,2.36,.4,4.52-1.43,4.49-3.82l-.4-35.12c-.03-2.42-2.26-4.21-4.63-3.71l-1.7,.36c-1.89,.4-3.79-.67-4.42-2.5l-.12-.35c-.71-2.06,.43-4.29,2.52-4.92l40-12.11c1.7-.51,3.53,.2,4.43,1.74l1.47,2.53c.35,.6,.53,1.28,.52,1.98l-1.5,129.73c0,6.06,.33,10.57,1.01,13.51,.36,1.57,.86,3.03,1.51,4.39,.92,1.92,3.19,2.77,5.12,1.87l.94-.44c1.95-.91,4.26-.04,5.13,1.92h0c.81,1.83,.08,3.98-1.68,4.93Zm-81.97-27.19c2.53,5.72,5.85,10.1,9.97,13.13,3.58,2.63,7.39,4.12,11.42,4.47,1.12,.1,2.23-.32,3.03-1.12l9.03-9.03c.73-.73,1.13-1.72,1.12-2.75l-.46-46.97c-.01-1.48-.88-2.83-2.22-3.45-10.16-4.66-19.94-7.85-29.37-9.58-4.21,9.59-6.31,21.3-6.31,35.1,0,7.74,1.26,14.48,3.79,20.2Z"/>
      <path class="cls-1" d="M774.5,176.5l-31.6,14.83c-1.36,.64-3,.46-4.14-.53-3.48-3.02-5.94-6.88-7.36-11.59-6.06,3.71-12.16,6.74-18.31,9.09-6.15,2.35-11.49,3.53-16.03,3.53-6.9,0-12.54-2.44-16.92-7.32-4.38-4.88-6.57-11.11-6.57-18.68,0-3.37,.38-7.03,1.14-10.98,.55-2.85,1.2-5.29,1.97-7.31,.5-1.31,1.64-2.27,3.02-2.49,8.26-1.32,38.64-6.2,48.4-7.76,1.78-.29,3.13-1.76,3.25-3.56l.29-4.25c.34-7.58-1.26-13.51-4.8-17.8-3.54-4.29-9.26-6.44-17.17-6.44-3.54,0-7.24,.38-11.11,1.14-3.18,.62-5.95,1.38-8.34,2.29-.95,.36-1.73,1.07-2.16,1.99l-1.88,3.99c-.86,1.82-2.97,2.69-4.86,1.99h0c-1.95-.72-2.98-2.84-2.35-4.82l9.94-31.12c.35-1.08,1.15-1.97,2.21-2.41,12.35-5.09,24.09-7.64,35.21-7.64,11.95,0,21.71,3.16,29.29,9.47,7.57,6.31,11.36,16.2,11.36,29.67l-.25,5.05-2.52,34.09-.5,8.96c0,.09,0,.17,0,.26,0,2.97,.26,5.32,.76,7.06,.2,.7,.45,1.41,.76,2.12,.82,1.91,3.02,2.82,4.96,2.07l1.09-.42c1.97-.76,4.18,.19,4.99,2.13l.16,.4c.79,1.92-.06,4.11-1.94,5Zm-44.74-8.35l-.12-2.44c-.02-.33-.02-.44-.01-.56l.24-5.38,.49-9.24c.14-2.58-2.24-4.57-4.76-3.98l-7.15,1.67c-4.84,1.13-8.27,5.45-8.28,10.43v.11c0,5.05,1.01,8.8,3.03,11.24,2.02,2.44,4.46,3.66,7.32,3.66,2.07,0,4.39-.6,6.95-1.79,1.44-.67,2.34-2.14,2.27-3.72Z"/>
      <path class="cls-1" d="M822.41,105.74c3.62,3.71,9.13,8.08,16.54,13.13,9.09,6.23,15.99,11.87,20.71,16.92,4.71,5.05,7.07,11.28,7.07,18.68,0,6.57-1.94,12.71-5.81,18.43-3.88,5.72-9.34,10.31-16.41,13.76-7.07,3.45-15.15,5.18-24.24,5.18s-17.04-2.11-24.87-6.31c-4.83-2.6-8.88-5.64-12.14-9.14s-2.85-8.87,.82-11.82l8.31-6.67c3.82-3.07,9.49-2.05,11.97,2.18,5.28,9.01,10.67,16.65,16.16,22.92,2.86-2.19,5.26-4.75,7.2-7.7,1.93-2.94,2.9-5.85,2.9-8.71,0-4.71-1.73-8.79-5.18-12.25-3.45-3.45-8.8-7.61-16.03-12.5-5.89-3.87-10.6-7.24-14.14-10.1-3.54-2.86-6.53-6.31-8.96-10.35-2.44-4.04-3.66-8.58-3.66-13.63,0-6.23,2.06-12.2,6.19-17.93,4.12-5.72,9.89-10.35,17.3-13.89,7.41-3.54,15.82-5.3,25.25-5.3,7.24,0,14.1,1.56,20.58,4.67,3.36,1.62,6.4,3.45,9.1,5.5,3.89,2.94,4.21,8.69,.73,12.11l-7.49,7.39c-3.32,3.28-8.71,3.04-11.77-.49-6.58-7.61-13.67-14.56-21.26-20.85-2.86,3.71-4.29,8.5-4.29,14.39,0,4.54,1.81,8.67,5.43,12.37Z"/>
    </g>
  </g>
</svg>